<svg width="92" height="31" viewBox="0 0 92 31" fill="none" xmlns="http://www.w3.org/2000/svg">
<path d="M37.7656 13.9492L38.0368 14.2193C37.9488 14.1272 37.8588 14.0361 37.7656 13.9492Z" fill="black"/>
<path d="M16.3249 11.8901V13.994C14.5946 12.36 12.2568 11.3613 9.67384 11.3613C4.30811 11.3613 0 15.6694 0 21.0352C0 26.4009 4.30811 30.709 9.67384 30.709C12.2568 30.709 14.5946 29.7104 16.3249 28.0763V30.2557H19.3477V11.8901H16.3249ZM9.67384 27.6862C5.97112 27.6862 3.02385 24.7389 3.02385 21.0352C3.02385 17.3314 5.97112 14.3841 9.67384 14.3841C13.3766 14.3841 16.3249 17.408 16.3249 21.0352C16.3249 24.6623 13.3776 27.6862 9.67384 27.6862Z" fill="black"/>
<path d="M66.6835 30.4065H63.7734V0.705078H66.6835V30.4065Z" fill="black"/>
<path d="M91.2265 20.9593C91.2265 26.325 86.9194 30.6331 81.5527 30.6331C78.9707 30.6331 76.6319 29.6345 74.9027 28.0004C73.0379 26.2412 71.8789 23.742 71.8789 20.9593V12.8729H68.8633V9.84906H71.8789V0.705078H74.9027V9.84906H81.5317V12.8729H74.9027V20.9593C74.9027 24.662 77.85 27.6103 81.5527 27.6103C85.2554 27.6103 88.2037 24.663 88.2037 20.9593H91.2265Z" fill="black"/>
<path d="M38.1491 14.3277L38.146 14.3308C38.1117 14.2935 38.0764 14.2551 38.0391 14.2188L38.1491 14.3277Z" fill="black"/>
<path d="M61.5342 22.2576C61.5921 21.8333 61.6211 21.4008 61.6211 20.9609C61.6211 15.618 57.2892 11.2871 51.9473 11.2871C46.6053 11.2871 42.2734 15.618 42.2734 20.9609C42.2734 26.3039 46.6043 30.6348 51.9473 30.6348C56.1902 30.6348 59.7956 27.9017 61.0995 24.1007H57.8108C56.69 26.1901 54.4847 27.6109 51.9473 27.6109C48.7175 27.6109 46.0258 25.3094 45.4235 22.2576H61.5342ZM45.4235 19.6643C46.0258 16.6114 48.7175 14.3099 51.9473 14.3099C55.1771 14.3099 57.8687 16.6114 58.471 19.6643H45.4235Z" fill="black"/>
<path d="M40.0506 30.4065H37.1406V0.705078H40.0506V30.4065Z" fill="black"/>
<path fill-rule="evenodd" clip-rule="evenodd" d="M30.4062 27.8106C34.1245 27.8106 37.1388 24.7964 37.1388 21.0781C37.1388 17.3599 34.1245 14.3456 30.4062 14.3456C26.688 14.3456 23.6737 17.3599 23.6737 21.0781C23.6737 24.7964 26.688 27.8106 30.4062 27.8106ZM30.4062 30.7148C35.7285 30.7148 40.043 26.4003 40.043 21.0781C40.043 15.7559 35.7285 11.4414 30.4062 11.4414C25.084 11.4414 20.7695 15.7559 20.7695 21.0781C20.7695 26.4003 25.084 30.7148 30.4062 30.7148Z" fill="black"/>
</svg>
