<svg width="16" height="12" viewBox="0 0 16 12" fill="none" xmlns="http://www.w3.org/2000/svg">
<path d="M13.0328 10.9937H2.99219C2.46402 10.9931 1.95766 10.783 1.58418 10.4096C1.21071 10.0361 1.00062 9.52973 1 9.00156V2.99219C1.00062 2.46402 1.21071 1.95766 1.58418 1.58418C1.95766 1.21071 2.46402 1.00062 2.99219 1H13.0328C13.561 1.00062 14.0673 1.21071 14.4408 1.58418C14.8143 1.95766 15.0244 2.46402 15.025 2.99219V9.00156C15.0244 9.52973 14.8143 10.0361 14.4408 10.4096C14.0673 10.783 13.561 10.9931 13.0328 10.9937ZM2.99219 1.70312C2.65031 1.70312 2.32243 1.83894 2.08068 2.08068C1.83894 2.32243 1.70313 2.65031 1.70313 2.99219V9.00156C1.70313 9.34344 1.83894 9.67132 2.08068 9.91307C2.32243 10.1548 2.65031 10.2906 2.99219 10.2906H13.0328C13.3747 10.2906 13.7026 10.1548 13.9443 9.91307C14.1861 9.67132 14.3219 9.34344 14.3219 9.00156V2.99219C14.3219 2.65031 14.1861 2.32243 13.9443 2.08068C13.7026 1.83894 13.3747 1.70312 13.0328 1.70312H2.99219Z" fill="#F5F4F0" stroke="#F5F4F0" stroke-width="0.3"/>
<path d="M8.0121 7.42136C7.57841 7.42204 7.15631 7.28134 6.80976 7.02058L1.3371 2.88151C1.29843 2.85438 1.26563 2.81972 1.24066 2.77963C1.21568 2.73953 1.19904 2.69481 1.19173 2.64814C1.18442 2.60147 1.1866 2.55381 1.19812 2.50799C1.20964 2.46218 1.23028 2.41916 1.2588 2.3815C1.28732 2.34384 1.32314 2.31232 1.36411 2.28881C1.40509 2.2653 1.45038 2.25029 1.49728 2.24468C1.54419 2.23906 1.59174 2.24296 1.63711 2.25614C1.68247 2.26931 1.72472 2.29149 1.76132 2.32136L7.23398 6.46511C7.45871 6.63287 7.73165 6.72351 8.0121 6.72351C8.29255 6.72351 8.56549 6.63287 8.79023 6.46511L14.2629 2.32136C14.2995 2.29149 14.3417 2.26931 14.3871 2.25614C14.4325 2.24296 14.48 2.23906 14.5269 2.24468C14.5738 2.25029 14.6191 2.2653 14.6601 2.28881C14.7011 2.31232 14.7369 2.34384 14.7654 2.3815C14.7939 2.41916 14.8146 2.46218 14.8261 2.50799C14.8376 2.55381 14.8398 2.60147 14.8325 2.64814C14.8252 2.69481 14.8085 2.73953 14.7835 2.77963C14.7586 2.81972 14.7258 2.85438 14.6871 2.88151L9.21445 7.02058C8.8679 7.28134 8.4458 7.42204 8.0121 7.42136Z" fill="#F5F4F0" stroke="#F5F4F0" stroke-width="0.3"/>
<path d="M1.4888 10.0125C1.41749 10.0126 1.34785 9.99098 1.28909 9.95058C1.23034 9.91018 1.18526 9.85287 1.15983 9.78625C1.1344 9.71964 1.12984 9.64687 1.14673 9.57759C1.16362 9.50832 1.20118 9.44582 1.25442 9.39839L5.56692 5.5523C5.63654 5.49014 5.728 5.45818 5.82119 5.46345C5.91437 5.46873 6.00164 5.5108 6.0638 5.58042C6.12596 5.65004 6.15792 5.7415 6.15264 5.83468C6.14737 5.92787 6.10529 6.01514 6.03567 6.0773L1.72317 9.92339C1.65913 9.98166 1.57538 10.0135 1.4888 10.0125ZM14.5341 10.0125C14.4475 10.0135 14.3638 9.98166 14.2997 9.92339L9.98724 6.0773C9.91762 6.01514 9.87554 5.92787 9.87027 5.83468C9.86499 5.7415 9.89695 5.65004 9.95911 5.58042C10.0213 5.5108 10.1085 5.46873 10.2017 5.46345C10.2949 5.45818 10.3864 5.49014 10.456 5.5523L14.7661 9.39839C14.8194 9.44582 14.8569 9.50832 14.8738 9.57759C14.8907 9.64687 14.8862 9.71964 14.8607 9.78625C14.8353 9.85287 14.7902 9.91018 14.7315 9.95058C14.6727 9.99098 14.6031 10.0126 14.5318 10.0125H14.5341Z" fill="#F5F4F0" stroke="#F5F4F0" stroke-width="0.3"/>
</svg>
