<svg width="14" height="14" viewBox="0 0 14 14" fill="none" xmlns="http://www.w3.org/2000/svg">
<path d="M1.10237 4.9348H3.82091V13.6789H1.10237V4.9348ZM2.46171 0.588226C3.33059 0.588226 4.03671 1.29434 4.03671 2.16468C4.03671 3.03414 3.33059 3.74026 2.46171 3.74026C1.5908 3.74026 0.886719 3.03414 0.886719 2.16468C0.886719 1.29434 1.5908 0.588226 2.46171 0.588226Z" fill="#F5F4F0"/>
<path d="M5.52344 4.93494H8.13021V6.13065H8.16737C8.53019 5.44289 9.41699 4.71841 10.7387 4.71841C13.4908 4.71841 13.9987 6.52888 13.9987 8.88328V13.6791H11.2822V9.42679C11.2822 8.41249 11.2646 7.10823 9.87001 7.10823C8.45573 7.10823 8.23994 8.21374 8.23994 9.35393V13.6791H5.52344V4.93494Z" fill="#F5F4F0"/>
</svg>
