<svg width="16" height="10" viewBox="0 0 16 10" fill="none" xmlns="http://www.w3.org/2000/svg">
<path d="M14.6665 1.33333H9.99989V0H14.6665V1.33333ZM15.8172 8C15.5225 8.86467 14.4645 10 12.4165 10C10.3672 10 8.70724 8.84733 8.70724 6.21667C8.70724 3.61 10.2572 2.27 12.3512 2.27C14.4058 2.27 15.6605 3.458 15.9345 5.22067C15.9865 5.558 16.0072 6.01267 15.9978 6.64733H10.6466C10.7332 8.788 12.9685 8.85533 13.7052 8H15.8172ZM10.6932 5.33333H14.0032C13.9332 4.302 13.2459 3.854 12.3519 3.854C11.3745 3.854 10.8339 4.366 10.6932 5.33333ZM4.31062 9.992H0V0.0139999H4.63528C8.28591 0.0679999 8.35524 3.64333 6.4486 4.618C8.75591 5.458 8.83324 9.992 4.31062 9.992ZM1.99998 4H4.38929C6.06127 4 6.3266 2 4.18129 2H1.99998V4ZM4.26062 6H1.99998V8.01067H4.22729C6.26393 8.01067 6.13927 6 4.26062 6Z" fill="#F5F4F0"/>
</svg>
