<svg width="183" height="33" viewBox="0 0 183 33" fill="none" xmlns="http://www.w3.org/2000/svg">
<path d="M30.5859 31.9144V0.0665283H35.8481V31.9144H30.5859Z" fill="#E7E6E2"/>
<path d="M38.0767 17.0093C38.6004 14.8854 39.68 13.2147 41.3081 11.9996C42.9658 10.782 45.0805 10.1744 47.6498 10.1744C50.4958 10.1744 52.7192 10.9389 54.3225 12.4679C55.9531 13.969 56.7683 16.1764 56.7683 19.0926V31.9168H52.1263L51.7532 28.945C50.98 30.0208 50.0116 30.8562 48.8529 31.4511C47.719 32.046 46.422 32.3421 44.957 32.3421C44.0182 32.3421 43.1338 32.2004 42.3037 31.9168C41.5032 31.6333 40.7967 31.2232 40.1889 30.684C39.5812 30.1474 39.097 29.4943 38.7388 28.7298C38.4077 27.9374 38.2422 27.0464 38.2422 26.0541C38.2422 24.0441 38.9463 22.5151 40.3545 21.4671C41.7626 20.3913 43.7242 19.5559 46.2391 18.961L51.5433 17.7307C51.1554 15.7208 49.8312 14.7158 47.5658 14.7158C46.3775 14.7158 45.3967 14.9841 44.6235 15.5233C43.8774 16.06 43.366 16.8675 43.0893 17.9434L38.0742 17.0093H38.0767ZM43.5883 25.6718C43.5883 26.4085 43.8082 26.973 44.2504 27.3704C44.6926 27.7375 45.3004 27.9223 46.0736 27.9223C46.7925 27.9223 47.4818 27.8083 48.1464 27.583C48.8381 27.3274 49.4458 26.9603 49.9696 26.4793C50.4933 25.9984 50.9083 25.4035 51.2122 24.6972C51.5161 23.9884 51.6693 23.1682 51.6693 22.2341V21.7658L46.5727 23.0391C45.6067 23.2644 44.8606 23.5758 44.3344 23.9732C43.8378 24.3707 43.5883 24.9352 43.5883 25.6718Z" fill="#E7E6E2"/>
<path d="M58.5669 21.3001C58.5669 19.204 59.0363 17.308 59.9751 15.6094C60.9139 13.9108 62.2133 12.5793 63.871 11.6174C65.5287 10.6554 67.3791 10.1744 69.4247 10.1744C71.9396 10.1744 74.0667 10.868 75.8059 12.2553C77.5748 13.6425 78.7062 15.4828 79.2053 17.7763L73.9012 18.7534C73.6245 17.6219 73.0859 16.7435 72.2855 16.1208C71.5122 15.4702 70.5463 15.1436 69.3851 15.1436C68.3624 15.1436 67.4384 15.3993 66.6083 15.9081C65.8079 16.3891 65.1705 17.0979 64.7011 18.032C64.2589 18.9661 64.039 20.0571 64.039 21.3026C64.039 22.548 64.2589 23.6391 64.7011 24.5732C65.1433 25.4794 65.7511 26.1857 66.5243 26.697C67.3248 27.178 68.2512 27.4185 69.3011 27.4185C70.5734 27.4185 71.6209 27.092 72.451 26.4414C73.2811 25.7908 73.832 24.8972 74.1087 23.7657L79.2893 24.6567C79.0398 26.0996 78.4592 27.416 77.5476 28.6057C76.636 29.7651 75.4625 30.6866 74.0247 31.365C72.6165 32.0156 71.0552 32.3421 69.3407 32.3421C67.2951 32.3421 65.4447 31.8738 63.787 30.9397C62.1565 29.9778 60.8719 28.6614 59.9331 26.9907C59.0215 25.2921 58.5645 23.3961 58.5645 21.3001H58.5669Z" fill="#E7E6E2"/>
<path d="M80.2725 21.3836C80.2725 19.7711 80.5344 18.2826 81.0606 16.9257C81.5843 15.5385 82.3181 14.3488 83.2568 13.359C84.2228 12.3692 85.3568 11.5895 86.6562 11.0225C87.9829 10.4554 89.433 10.1744 91.0067 10.1744C92.5804 10.1744 93.9219 10.4301 95.1917 10.9389C96.4616 11.4199 97.5535 12.1287 98.4651 13.0628C99.3767 13.969 100.081 15.0576 100.577 16.3334C101.074 17.5789 101.323 18.9661 101.323 20.4951C101.323 21.2874 101.239 22.0949 101.074 22.9151H85.6582C85.9077 24.5276 86.5006 25.7326 87.4394 26.5249C88.4053 27.2894 89.6776 27.6716 91.2513 27.6716C92.578 27.6716 93.6403 27.4033 94.4432 26.8641C95.2732 26.3275 95.8662 25.5908 96.2244 24.6567L101.113 25.6769C100.506 27.8007 99.3322 29.4411 97.5906 30.603C95.8785 31.7624 93.7638 32.3447 91.2488 32.3447C89.564 32.3447 88.0446 32.0763 86.6908 31.5371C85.337 30.9979 84.1759 30.2486 83.2099 29.2867C82.2711 28.2969 81.5374 27.135 81.0137 25.8035C80.5171 24.4441 80.2676 22.9733 80.2676 21.3861L80.2725 21.3836ZM95.8143 18.7939C95.5919 17.4624 95.0682 16.4448 94.2381 15.736C93.408 14.9993 92.3309 14.6323 91.0067 14.6323C89.7641 14.6323 88.687 14.9867 87.7754 15.6929C86.8637 16.3714 86.214 17.4067 85.8262 18.7939H95.8143Z" fill="#E7E6E2"/>
<path d="M102.704 21.3001C102.704 19.204 103.173 17.308 104.112 15.6094C105.051 13.9108 106.351 12.5793 108.008 11.6174C109.666 10.6554 111.516 10.1744 113.562 10.1744C116.077 10.1744 118.204 10.868 119.943 12.2553C121.712 13.6425 122.843 15.4828 123.342 17.7763L118.038 18.7534C117.762 17.6219 117.223 16.7435 116.423 16.1208C115.649 15.4702 114.683 15.1436 113.522 15.1436C112.5 15.1436 111.573 15.3993 110.746 15.9081C109.945 16.3891 109.308 17.0979 108.838 18.032C108.396 18.9661 108.176 20.0571 108.176 21.3026C108.176 22.548 108.396 23.6391 108.838 24.5732C109.281 25.4794 109.888 26.1857 110.662 26.6971C111.462 27.178 112.388 27.4185 113.438 27.4185C114.711 27.4185 115.758 27.092 116.588 26.4414C117.416 25.7908 117.969 24.8972 118.246 23.7657L123.426 24.6567C123.177 26.0996 122.599 27.416 121.687 28.6057C120.776 29.7651 119.602 30.6866 118.164 31.365C116.756 32.0156 115.195 32.3421 113.48 32.3421C111.435 32.3421 109.584 31.8738 107.927 30.9397C106.296 29.9778 105.012 28.6614 104.073 26.9907C103.161 25.2921 102.704 23.3961 102.704 21.3001Z" fill="#E7E6E2"/>
<path d="M125.04 31.9144V0.0665283H130.302V12.5946C131.102 11.8301 131.987 11.2352 132.955 10.8099C133.951 10.3846 135.028 10.172 136.186 10.172C137.345 10.172 138.383 10.3694 139.378 10.7669C140.374 11.1339 141.229 11.701 141.948 12.4655C142.694 13.2299 143.274 14.164 143.687 15.2677C144.129 16.3714 144.349 17.6448 144.349 19.0902V31.9144H139.087V19.9382C139.087 18.4092 138.699 17.2347 137.926 16.4145C137.18 15.5943 136.172 15.1842 134.899 15.1842C133.627 15.1842 132.537 15.5664 131.626 16.3309C130.741 17.0954 130.299 18.2979 130.299 19.9408V31.9169H125.037L125.04 31.9144Z" fill="#E7E6E2"/>
<path d="M146.314 17.0093C146.838 14.8854 147.918 13.2147 149.548 11.9996C151.206 10.782 153.321 10.1744 155.89 10.1744C158.736 10.1744 160.959 10.9389 162.563 12.4679C164.193 13.969 165.009 16.1764 165.009 19.0926V31.9168H160.367L159.993 28.945C159.22 30.0208 158.254 30.8562 157.093 31.4511C155.959 32.046 154.662 32.3421 153.197 32.3421C152.258 32.3421 151.374 32.2004 150.544 31.9168C149.743 31.6333 149.037 31.2232 148.429 30.684C147.821 30.1474 147.337 29.4943 146.979 28.7298C146.648 27.9374 146.482 27.0464 146.482 26.0541C146.482 24.0441 147.187 22.5151 148.595 21.4671C150.003 20.3913 151.964 19.5559 154.479 18.961L159.783 17.7307C159.396 15.7208 158.071 14.7158 155.806 14.7158C154.618 14.7158 153.637 14.9841 152.864 15.5233C152.118 16.06 151.606 16.8675 151.33 17.9434L146.314 17.0093ZM151.826 25.6718C151.826 26.4085 152.046 26.973 152.488 27.3704C152.93 27.7375 153.538 27.9223 154.311 27.9223C155.03 27.9223 155.72 27.8083 156.384 27.583C157.076 27.3274 157.684 26.9603 158.207 26.4793C158.731 25.9984 159.146 25.4035 159.45 24.6972C159.754 23.9884 159.907 23.1682 159.907 22.2341V21.7658L154.81 23.0391C153.844 23.2644 153.098 23.5758 152.572 23.9732C152.076 24.3707 151.826 24.9352 151.826 25.6718Z" fill="#E7E6E2"/>
<path d="M165.824 15.3533V13.7812L173.574 5.79712H175.024V10.6372H182.236V15.3507H175.024V24.312C175.024 25.3878 175.274 26.165 175.77 26.6485C176.267 27.1294 177.001 27.3699 177.967 27.3699C178.767 27.3699 179.708 27.1421 180.785 26.6915L181.947 31.1088C180.289 31.929 178.577 32.3391 176.808 32.3391C174.627 32.3391 172.9 31.7442 171.627 30.5545C170.385 29.3647 169.762 27.7091 169.762 25.5853V15.3507H165.824V15.3533Z" fill="#E7E6E2"/>
<path d="M29.2774 10.4032C28.9488 6.87492 27.3961 4.09335 24.6609 2.13719C22.7426 0.763112 20.4957 0.0665283 17.9826 0.0665283C17.4064 0.0665283 16.8001 0.104697 16.1753 0.176264C14.4907 0.376651 12.9519 0.868076 11.6074 1.63623C10.219 2.42823 9.00414 3.53275 7.99753 4.92353C6.29903 7.26376 5.37804 10.0215 5.17903 13.3565C5.13738 14.0555 5.13969 14.7568 5.14895 15.4438C4.92217 15.2864 4.70002 15.129 4.47556 14.9715L3.10102 14.0077L1.80516 16.0021C1.4488 16.5531 1.08318 17.1161 0.689795 17.7268L0.199219 18.4902L0.96748 18.9482C1.18269 19.0771 1.39789 19.2059 1.6131 19.3371L2.16615 19.6711C3.344 20.3843 5.8663 21.8204 5.89176 21.9135C7.74299 28.8078 9.63356 31.8446 9.63356 31.8446H14.9859C14.9859 31.8446 12.4266 25.9284 11.6838 23.5881C13.9978 24.008 16.3003 24.0462 18.5357 23.6979C20.1069 23.4546 21.5393 23.0132 22.8004 22.3882C24.1842 21.7012 25.4037 20.7708 26.4242 19.6233C28.6573 17.1257 29.6176 14.0221 29.2797 10.4008L29.2774 10.4032ZM24.2236 12.1661C23.8857 15.6633 21.7152 18.0584 18.2672 18.7359C15.7704 19.225 13.1995 19.058 10.4157 18.2254C10.1727 17.1448 10.175 15.7253 10.175 15.7253C10.1403 12.2353 10.7258 9.89026 12.1373 7.88639C13.9724 5.27898 17.6633 4.24126 20.5396 5.51992C22.9416 6.58388 24.492 9.37975 24.2236 12.1661Z" fill="#E7E6E2"/>
</svg>
