<svg width="142" height="57" viewBox="0 0 142 57" fill="none" xmlns="http://www.w3.org/2000/svg">
<g clip-path="url(#clip0_1387_1863)">
<path d="M88.3187 45.9773C83.3138 45.7954 78.1724 44.5765 72.9161 42.3259C70.777 41.41 68.5146 40.2754 66.2124 38.964C64.6941 38.0991 61.2184 35.9748 61.0249 35.7934C60.9031 35.6793 60.8555 35.5722 60.8555 35.413C60.8555 35.1182 61.0676 34.9076 61.3641 34.9081C61.5178 34.9083 61.5549 34.9245 61.9179 35.1491C63.3745 36.0507 65.3893 37.072 67.3525 37.9038C76.4956 41.778 87.3277 43.1384 97.7257 41.7184C104.827 40.7487 111.652 38.4797 116.977 35.3188C117.745 34.8627 117.816 34.8388 118.046 34.9572C118.364 35.1208 118.433 35.5213 118.185 35.7662C118.088 35.8626 117.968 35.939 116.221 37.0226C111.559 39.9126 107.796 41.8205 103.878 43.2804C98.6077 45.2439 93.3263 46.1594 88.3187 45.9773Z" fill="black"/>
<path fill-rule="evenodd" clip-rule="evenodd" d="M37 13.51C37 13.51 37.0986 13.8198 37.1939 14.7001C37.3082 16.893 37.3142 18.7106 37.3274 20.7374C37.3537 22.3025 37.3384 23.8275 37.3248 25.296C37.3157 26.2905 37.3088 26.8326 37.3088 27.7368C37.3088 30.4275 37.0951 32.3133 37.0951 32.3133C37.0951 32.3133 39.0871 32.7413 42.0939 32.7413C45.1017 32.7413 48.293 31.702 50.1345 30.1425C51.9756 28.5831 53.6324 26.351 53.6324 22.3461C53.6324 18.341 51.9141 16.1395 49.6435 14.7028C47.3723 13.2654 43.9047 12.9907 41.2347 13.1127C38.5653 13.2353 37.0924 13.51 37 13.51ZM141.58 28.5831L137.563 27.6356C136.509 28.6746 135.37 29.1909 133.908 29.1639C130.897 29.1089 129.4 27.3407 128.844 24.4248H141.794C141.978 23.3854 142.038 22.2847 141.977 21.2453C141.854 19.1458 141.207 17.2134 139.89 15.5588C138.587 13.9206 136.346 13.0615 133.574 13.082C130.971 13.1017 128.844 13.9904 127.16 15.7729C125.577 17.4475 124.63 20.0013 124.674 23.3242C124.716 26.481 125.522 28.8314 127.497 30.754C128.872 32.0925 130.72 32.8074 133.144 32.8022C137.762 32.6634 139.681 31.1803 141.58 28.5831ZM138.292 21.1845H128.996C129.16 18.7891 131.361 16.5581 133.693 16.5691C136.107 16.5802 138.18 18.3004 138.292 21.1845ZM97.5301 16.7066C100.604 16.7066 103.097 19.4792 103.097 22.8982C103.097 26.3172 100.604 29.0899 97.5301 29.0899C94.4571 29.0899 91.9637 26.3172 91.9637 22.8982C91.9637 19.4792 94.4571 16.7066 97.5301 16.7066ZM97.6498 13C102.808 13 106.991 17.4654 106.991 22.8982C106.991 28.331 102.689 32.7367 97.5301 32.7367C92.3726 32.7367 88.1894 28.331 88.1894 22.8982C88.1894 17.4654 92.4924 13 97.6498 13ZM107.801 32.0686H111.971V19.5024C115.787 22.8353 118.598 27.0242 120.286 32.0686L123.868 32.09V13.6321L119.875 13.6321L119.871 22.6751C118.62 20.5921 117.09 18.879 115.584 17.4021C114.077 15.923 112.853 14.6705 111.326 13.6321H107.801L107.801 32.0686ZM71.3697 32.0686H75.4204V19.5024C79.236 22.8353 81.9882 27.0242 83.6758 32.0686H87.2968V13.6321H83.2456V22.5278C80.8919 19.149 78.0404 16.1141 74.7765 13.6321H71.3697V32.0686ZM59.8009 13.6321H63.7289C67.5431 17.8364 69.8778 23.9514 70.6644 32.0686H66.3985C66.2876 30.6588 66.1147 29.3631 65.8802 28.0621H57.4592C57.2254 29.3611 57.054 30.6566 56.9469 32.0686H52.8041C53.5514 23.9025 56.0549 17.584 59.8009 13.6321ZM65.0942 24.6088C64.1785 21.695 63.0883 19.2979 61.6128 17.0871C60.1467 19.3065 59.0001 21.8086 58.1897 24.6088H65.0942ZM41.2704 16.7203C41.2704 16.7203 42.0938 16.6896 43.1069 16.6896C44.1199 16.6896 46.3324 16.8731 47.9585 18.4631C49.5847 20.0531 49.6156 21.8567 49.6156 23.1106C49.6156 24.3641 49.1831 27.085 46.5131 28.3078C43.8436 29.5312 41.2397 29.0725 41.2397 29.0725L41.2704 16.7203Z" fill="#646464"/>
</g>
<defs>
<clipPath id="clip0_1387_1863">
<rect width="105" height="33" fill="white" transform="translate(37 13)"/>
</clipPath>
</defs>
</svg>
