<svg width="149" height="48" viewBox="0 0 149 48" fill="none" xmlns="http://www.w3.org/2000/svg">
<g clip-path="url(#clip0_916_531)">
<path d="M72.5705 47.6732C65.516 47.414 58.2689 45.6781 50.8601 42.4727C47.8449 41.1682 44.656 39.5523 41.4111 37.6845C39.2709 36.4527 34.3719 33.4271 34.0991 33.1688C33.9275 33.0062 33.8604 32.8538 33.8604 32.627C33.8604 32.2071 34.1594 31.9072 34.5773 31.9079C34.7939 31.9082 34.8463 31.9313 35.3578 32.2512C37.411 33.5353 40.2509 34.9898 43.018 36.1745C55.9055 41.6923 71.1736 43.6298 85.8298 41.6075C95.839 40.2263 105.46 36.9947 112.965 32.4928C114.047 31.8433 114.147 31.8092 114.472 31.9778C114.92 32.2108 115.017 32.7812 114.668 33.1301C114.531 33.2673 114.362 33.3762 111.899 34.9195C105.329 39.0355 100.024 41.7529 94.5016 43.8321C87.073 46.6286 79.6287 47.9325 72.5705 47.6732Z" fill="#BFBDB4"/>
<path fill-rule="evenodd" clip-rule="evenodd" d="M0.235352 1.43199C0.235352 1.43199 0.374264 1.87314 0.508634 3.12687C0.669717 6.25008 0.678256 8.83891 0.696875 11.7255C0.733964 13.9545 0.712267 16.1265 0.693175 18.2181C0.680299 19.6345 0.67059 20.4065 0.67059 21.6943C0.67059 25.5265 0.369351 28.2124 0.369351 28.2124C0.369351 28.2124 3.17716 28.822 7.41526 28.822C11.6548 28.822 16.1531 27.3417 18.7487 25.1207C21.3437 22.8997 23.6791 19.7206 23.6791 14.0166C23.6791 8.31246 21.2572 5.17699 18.0567 3.13073C14.8553 1.08352 9.96767 0.692251 6.20421 0.866132C2.44166 1.04072 0.365547 1.43199 0.235352 1.43199ZM147.643 22.8997L141.981 21.5501C140.495 23.0299 138.89 23.7653 136.829 23.7269C132.585 23.6486 130.476 21.1302 129.692 16.9773H147.944C148.204 15.4969 148.289 13.9292 148.203 12.4488C148.03 9.45864 147.117 6.70647 145.262 4.34985C143.425 2.0167 140.265 0.793121 136.358 0.822388C132.69 0.850403 129.691 2.11609 127.318 4.65488C125.087 7.03991 123.752 10.6771 123.814 15.4097C123.874 19.9058 125.01 23.2534 127.793 25.9915C129.731 27.8979 132.336 28.9161 135.752 28.9087C142.262 28.711 144.967 26.5987 147.643 22.8997ZM143.008 12.3623H129.906C130.137 8.95061 133.24 5.77315 136.527 5.78887C139.929 5.8046 142.852 8.25455 143.008 12.3623ZM85.554 5.98465C89.887 5.98465 93.4008 9.93357 93.4008 14.803C93.4008 19.6724 89.887 23.6215 85.554 23.6215C81.2224 23.6215 77.708 19.6724 77.708 14.803C77.708 9.93357 81.2224 5.98465 85.554 5.98465ZM85.7227 0.705566C92.9938 0.705566 98.8895 7.06542 98.8895 14.803C98.8895 22.5406 92.825 28.8153 85.554 28.8153C78.2844 28.8153 72.388 22.5406 72.388 14.803C72.388 7.06542 78.4531 0.705566 85.7227 0.705566ZM100.03 27.8639H105.909V9.96659C111.287 14.7134 115.25 20.6795 117.629 27.8639L122.678 27.8943V1.60587L117.049 1.60588L117.043 14.4853C115.281 11.5186 113.124 9.07866 111.002 6.97527C108.877 4.86859 107.151 3.08476 105 1.60588H100.03L100.03 27.8639ZM48.6803 27.8639H54.3898V9.96659C59.768 14.7134 63.6473 20.6795 66.0261 27.8639H71.1299V1.60587H65.4197V14.2755C62.102 9.46326 58.0827 5.14084 53.4822 1.60587H48.6803V27.8639ZM32.3738 1.60587H37.9104C43.2865 7.59379 46.5774 16.303 47.6861 27.8639H41.6732C41.5169 25.856 41.2733 24.0106 40.9427 22.1577H29.0731C28.7435 24.0077 28.502 25.8529 28.351 27.8639H22.5116C23.5649 16.2333 27.0936 7.23429 32.3738 1.60587ZM39.8348 17.2393C38.5441 13.0893 37.0075 9.67532 34.9276 6.52656C32.8612 9.68753 31.245 13.2512 30.1028 17.2393H39.8348ZM6.25453 6.00422C6.25453 6.00422 7.41523 5.96047 8.84324 5.96047C10.271 5.96047 13.3896 6.22184 15.6816 8.48634C17.9738 10.7509 18.0173 13.3197 18.0173 15.1055C18.0173 16.8908 17.4077 20.766 13.6443 22.5076C9.8815 24.25 6.21131 23.5967 6.21131 23.5967L6.25453 6.00422Z" fill="#E7E6E2"/>
</g>
<defs>
<clipPath id="clip0_916_531">
<rect width="148" height="47" fill="white" transform="translate(0.235352 0.705566)"/>
</clipPath>
</defs>
</svg>
