<svg width="22" height="21" viewBox="0 0 22 21" fill="none" xmlns="http://www.w3.org/2000/svg">
<g clip-path="url(#clip0_1304_74)">
<path fill-rule="evenodd" clip-rule="evenodd" d="M2.95638 20.4912H19.2897C20.5784 20.4912 21.623 19.4963 21.623 18.269V2.71343C21.623 1.48613 20.5784 0.491211 19.2897 0.491211H2.95638C1.66772 0.491211 0.623047 1.48613 0.623047 2.71343V18.269C0.623047 19.4963 1.66772 20.4912 2.95638 20.4912Z" fill="#27262B"/>
<path fill-rule="evenodd" clip-rule="evenodd" d="M18.7038 17.713H15.5875V12.658C15.5875 11.2721 15.0345 10.4976 13.8827 10.4976C12.6297 10.4976 11.975 11.3036 11.975 12.658V17.713H8.97183V8.08337H11.975V9.38048C11.975 9.38048 12.878 7.78917 15.0237 7.78917C17.1683 7.78917 18.7038 9.03646 18.7038 11.6161V17.713ZM5.389 6.82245C4.36604 6.82245 3.53711 6.02679 3.53711 5.0455C3.53711 4.06421 4.36604 3.26855 5.389 3.26855C6.41196 3.26855 7.2404 4.06421 7.2404 5.0455C7.2404 6.02679 6.41196 6.82245 5.389 6.82245ZM3.83827 17.713H6.96985V8.08337H3.83827V17.713Z" fill="white"/>
</g>
<defs>
<clipPath id="clip0_1304_74">
<rect width="21" height="20" fill="white" transform="translate(0.623047 0.491211)"/>
</clipPath>
</defs>
</svg>
