<svg width="180" height="43" viewBox="0 0 180 43" fill="none" xmlns="http://www.w3.org/2000/svg">
<path d="M0.235352 0.318237L17.8015 31.322L25.2424 18.1707L15.117 0.318237H0.235352Z" fill="#E7E6E2"/>
<path d="M25.2432 18.1704L38.7826 42.0629L45.7273 29.7745L32.5381 5.28687L25.2432 18.1704Z" fill="#E7E6E2"/>
<path d="M61.6276 0.318237L45.7246 29.7748L52.6986 42.0633L76.3342 0.318237H61.6276Z" fill="#E7E6E2"/>
<path d="M38.7793 42.0625H52.698L45.7241 29.774L38.7793 42.0625Z" fill="#BFBDB4"/>
<path d="M92.9686 16.802L89.0293 5.19791H91.5679L94.2233 13.0232L96.8495 5.1384H98.892L101.547 13.0232L104.174 5.19791H106.683L102.744 16.802H100.584L97.8416 8.85767L95.1279 16.802H92.9686ZM110.097 9.78004C110.272 8.29234 111.439 7.04267 113.248 7.04267C114.153 7.04267 114.883 7.31045 115.408 7.87578C115.933 8.44111 116.196 9.06594 116.225 9.78004H110.097ZM109.192 6.62611C108.113 7.78652 107.588 9.21472 107.588 10.9405C107.588 12.7555 108.171 14.2134 109.368 15.3143C110.593 16.445 112.052 17.0103 113.803 17.0103C115.554 17.0103 116.925 16.6235 117.976 15.8796V13.7373C116.838 14.4217 115.641 14.7787 114.357 14.7787C112.052 14.7787 110.418 13.6183 110.097 11.6843H118.734V11.0297C118.734 8.94693 118.034 7.04267 116.342 5.82275C115.524 5.19791 114.532 4.90037 113.365 4.90037C111.644 4.90037 110.272 5.49545 109.192 6.62611ZM121.069 16.7128H123.549V0.318237H121.069V16.7128ZM126.642 16.7128H129.122V0.318237H126.642V16.7128ZM140.648 13.6778C139.948 14.3919 139.073 14.7787 138.051 14.7787C136.592 14.7787 135.308 13.9159 134.696 12.7257V9.15521C135.308 7.9948 136.592 7.10218 138.051 7.10218C139.073 7.10218 139.948 7.48898 140.648 8.23283C141.349 8.94693 141.67 9.86931 141.67 10.9405C141.67 12.0116 141.319 12.934 140.648 13.6778ZM134.696 15.1358C135.629 16.3855 136.972 17.0103 138.722 17.0103C140.298 17.0103 141.611 16.4152 142.662 15.2548C143.683 14.0944 144.208 12.6662 144.208 10.9405C144.208 9.24447 143.712 7.81627 142.662 6.65586C141.64 5.49545 140.327 4.90037 138.722 4.90037C136.972 4.90037 135.629 5.52521 134.696 6.77488V0.318237H132.215V16.7128H134.696V15.1358ZM154.509 13.6778C153.808 14.3919 152.933 14.7787 151.853 14.7787C150.774 14.7787 149.898 14.3919 149.198 13.6778C148.498 12.9637 148.147 12.0414 148.147 10.9405C148.147 9.86931 148.498 8.94693 149.198 8.23283C149.898 7.51873 150.803 7.13193 151.853 7.13193C152.904 7.13193 153.779 7.51873 154.509 8.23283C155.209 8.94693 155.559 9.86931 155.559 10.9405C155.559 12.0414 155.209 12.9637 154.509 13.6778ZM147.389 15.2548C148.556 16.4152 150.044 17.0103 151.853 17.0103C153.633 17.0103 155.121 16.4152 156.289 15.2548C157.456 14.0646 158.039 12.6364 158.039 10.9405C158.039 9.24447 157.456 7.81627 156.289 6.65586C155.121 5.49545 153.633 4.90037 151.853 4.90037C150.044 4.90037 148.556 5.49545 147.389 6.65586C146.222 7.81627 145.638 9.24447 145.638 10.9405C145.638 12.6662 146.222 14.0944 147.389 15.2548ZM162.796 16.7128V9.66103C163.321 8.47086 164.722 7.39972 166.501 7.39972C166.764 7.39972 166.998 7.42947 167.202 7.45922V4.93012C167.143 4.90037 167.056 4.90037 166.968 4.90037C165.218 4.90037 163.554 5.8525 162.796 7.19144V5.19791H160.315V16.7128H162.796ZM171.462 9.15521C172.104 8.11382 173.388 7.2807 174.672 7.2807C176.131 7.2807 177.327 7.9948 177.327 10.2561V16.7128H179.807V9.69078C179.807 6.71537 178.29 4.90037 175.635 4.90037C173.972 4.90037 172.6 5.49545 171.491 6.71537V5.19791H169.011V16.7128H171.491V9.15521H171.462ZM92.6476 20.8486H90.1673V37.2431H92.6476V20.8486ZM97.4331 30.3401C97.6081 28.8524 98.7753 27.6028 100.584 27.6028C101.518 27.6028 102.219 27.8705 102.744 28.4359C103.269 29.0012 103.532 29.626 103.561 30.3401H97.4331ZM96.5285 27.1862C95.4488 28.3466 94.9236 29.7748 94.9236 31.5005C94.9236 33.3155 95.5072 34.7735 96.7036 35.8744C97.9291 37.0051 99.3881 37.5704 101.139 37.5704C102.89 37.5704 104.261 37.1836 105.312 36.4397V34.2974C104.174 34.9818 102.977 35.3388 101.693 35.3388C99.3881 35.3388 97.754 34.1784 97.4331 32.2444H106.07V31.5898C106.07 29.507 105.37 27.6028 103.678 26.3828C102.86 25.758 101.868 25.4605 100.701 25.4605C98.9796 25.4605 97.6081 26.0258 96.5285 27.1862ZM117.1 33.018C116.517 34.1784 115.204 34.9818 113.745 34.9818C112.723 34.9818 111.848 34.6247 111.148 33.9404C110.447 33.2263 110.126 32.3634 110.126 31.3518C110.126 30.3104 110.476 29.4475 111.148 28.7632C111.848 28.0491 112.723 27.7218 113.745 27.7218C115.204 27.7218 116.517 28.5251 117.1 29.7153V33.018ZM117.1 27.2457C116.196 26.0555 114.853 25.4307 113.073 25.4307C111.498 25.4307 110.185 25.996 109.134 27.1267C108.113 28.2573 107.588 29.626 107.588 31.2625C107.588 32.9287 108.084 34.2974 109.134 35.4578C110.155 36.6183 111.469 37.1538 113.073 37.1538C114.795 37.1538 116.166 36.5588 117.1 35.3388V36.2017C117.1 38.6713 115.349 39.7722 112.957 39.7722C111.41 39.7722 110.039 39.3854 108.813 38.6415V40.9624C109.98 41.6467 111.469 42.0037 113.219 42.0037C114.97 42.0037 116.487 41.4979 117.713 40.516C118.968 39.5044 119.58 38.0762 119.58 36.1719V25.758H117.1V27.2457ZM129.793 33.9999C129.093 34.7735 127.868 35.3686 126.584 35.3686C125.125 35.3686 124.162 34.7735 124.162 33.5536C124.162 32.4229 125.154 31.7683 126.817 31.7683C127.868 31.7683 128.889 32.0361 129.823 32.6014V33.9999H129.793ZM133.849 35.1306C133.645 35.2496 133.441 35.3091 133.178 35.3091C132.624 35.3091 132.244 34.8925 132.244 34.1487V29.8641C132.244 27.0374 130.144 25.4605 127.021 25.4605C125.387 25.4605 124.045 25.7878 122.907 26.4423V28.6739C123.987 27.9896 125.183 27.6325 126.467 27.6325C128.685 27.6325 129.764 28.4656 129.764 30.1319V30.7567C128.743 30.1616 127.517 29.8641 126.146 29.8641C124.891 29.8641 123.812 30.1914 122.936 30.8757C122.061 31.5303 121.623 32.4824 121.623 33.7024C121.623 34.8925 122.002 35.8447 122.819 36.529C123.636 37.2133 124.629 37.5704 125.854 37.5704C127.605 37.5704 128.976 36.9753 130.027 35.7851C130.319 36.886 131.136 37.4216 132.39 37.4216C133.003 37.4216 133.499 37.3026 133.849 37.0348V35.1306ZM136.826 35.8446C138.022 37.0051 139.481 37.5704 141.144 37.5704C142.487 37.5704 143.683 37.2728 144.763 36.6183V34.476C143.829 35.071 142.749 35.3388 141.553 35.3388C140.415 35.3388 139.481 34.9818 138.693 34.2677C137.935 33.5536 137.555 32.6014 137.555 31.5005C137.555 30.3996 137.935 29.4773 138.693 28.7632C139.481 28.0491 140.415 27.692 141.553 27.692C142.574 27.692 143.566 27.9598 144.588 28.4359V26.2638C143.595 25.7283 142.457 25.4605 141.173 25.4605C139.481 25.4605 138.022 26.0258 136.826 27.1565C135.659 28.2871 135.046 29.7451 135.046 31.5005C135.046 33.256 135.659 34.714 136.826 35.8446ZM146.455 41.7062C146.893 41.974 147.564 42.093 148.498 42.093C150.365 42.093 151.795 40.9028 152.787 38.5225L158.185 25.7878H155.501L152.203 33.9106L148.819 25.758H146.046L150.978 36.8563C150.132 38.9093 149.344 39.8615 148.06 39.8615C147.476 39.8615 146.922 39.7424 146.426 39.4747V41.7062" fill="#BFBDB4"/>
</svg>
