<svg width="142" height="58" viewBox="0 0 142 58" fill="none" xmlns="http://www.w3.org/2000/svg">
<g clip-path="url(#clip0_1263_34)">
<path d="M32.1668 19.6965H28V37.142H32.1668V19.6965Z" fill="#04091C"/>
<path d="M44.3076 37.142L36.9973 27.2708L42.8545 19.6965H37.976L32.1484 27.3144L39.2809 37.142H44.3076Z" fill="#04091C"/>
<path d="M46.5651 34.8882C44.7709 33.1582 43.8516 31.0066 43.8516 28.4479C43.8516 25.8892 44.7709 23.7376 46.5651 22.0076C48.4038 20.2776 50.5836 19.3762 53.2379 19.3762C55.8477 19.3762 58.0719 20.2485 59.9106 22.0076C61.7048 23.7376 62.6242 25.8892 62.6242 28.4479V29.6545H47.6476C47.9293 31.0793 48.5966 32.2132 49.6198 33.0418C50.6429 33.8705 51.844 34.2921 53.2231 34.2921C54.9135 34.2921 56.2629 33.9141 57.286 33.0855C57.7457 32.7802 58.1312 32.3585 58.4871 31.8789H62.4759C61.9866 32.9837 61.349 33.9578 60.5631 34.7137C58.5909 36.5891 56.1442 37.5195 53.2526 37.5195C50.6281 37.4905 48.4038 36.6182 46.5651 34.8882ZM47.8403 26.7178H58.6798C58.4722 25.5694 57.9087 24.6099 56.9449 23.8103C56.0256 23.0107 54.7948 22.6036 53.2379 22.6036C51.9329 22.6036 50.7616 22.9816 49.7829 23.7085C48.7597 24.4645 48.1221 25.4822 47.8403 26.7178Z" fill="#04091C"/>
<path d="M63.0547 19.6965H67.0435L71.0026 33.7111H72.9748L77.3196 19.6965H81.2787L73.6866 43.655H69.6978L71.8478 37.142H68.0666L63.0547 19.6965Z" fill="#04091C"/>
<path d="M82.5508 22.953V19.6965H94.102V22.953H88.5266V33.8855H94.3096V37.142H84.7454V22.953H82.5508Z" fill="#04091C"/>
<path d="M117.043 37.244V19.7258H123.122L129.203 33.1879H130.017L136.098 19.7258H141.999V37.244H138.322V26.893L138.633 23.6365H138.322L132.42 36.0955H126.667L120.765 23.6365H120.453L120.765 26.893V37.244H117.043Z" fill="#04091C"/>
<path d="M98.8948 34.8882C97.056 33.1582 96.1367 31.0066 96.1367 28.4479C96.1367 25.8892 97.056 23.7376 98.8948 22.0076C100.734 20.2776 102.987 19.3762 105.716 19.3762C108.4 19.3762 110.698 20.2485 112.537 22.0076C114.375 23.7376 115.295 25.8892 115.295 28.4479C115.295 31.0066 114.375 33.1582 112.537 34.8882C110.698 36.6182 108.444 37.5195 105.716 37.5195C102.987 37.4905 100.734 36.6182 98.8948 34.8882ZM101.653 24.1883C100.63 25.2641 100.096 26.6452 100.096 28.4042C100.096 30.1633 100.63 31.559 101.653 32.6202C102.676 33.6815 104.025 34.2194 105.716 34.2194C107.406 34.2194 108.711 33.6961 109.779 32.6202C110.802 31.5444 111.336 30.1633 111.336 28.4042C111.336 26.6452 110.802 25.2495 109.779 24.1883C108.756 23.127 107.406 22.5891 105.716 22.5891C104.011 22.6036 102.676 23.1561 101.653 24.1883Z" fill="#04091C"/>
<path d="M94.9028 18.8684V15.6555H82.5508V18.8684H94.9028Z" fill="url(#paint0_linear_1263_34)"/>
</g>
<defs>
<linearGradient id="paint0_linear_1263_34" x1="82.5508" y1="17.262" x2="94.9028" y2="17.262" gradientUnits="userSpaceOnUse">
<stop stop-color="#42A4FF"/>
<stop offset="0.375" stop-color="#4681F5"/>
<stop offset="1" stop-color="#4681F5" stop-opacity="0"/>
</linearGradient>
<clipPath id="clip0_1263_34">
<rect width="114" height="28" fill="white" transform="translate(28 15.6555)"/>
</clipPath>
</defs>
</svg>
