<svg width="142" height="58" viewBox="0 0 142 58" fill="none" xmlns="http://www.w3.org/2000/svg">
<path d="M60 13.4045V26.6382H74.7811V23.3297H64.9804V21.5155H74.4431V18.296H64.9804V16.6418H74.6388V13.4045H60Z" fill="#1A1A1A"/>
<path d="M76.2422 26.6382H81.1692V18.385L85.7938 26.6382H88.373L93.0154 18.385V26.6382H98.0136V13.4045H91.3612L87.2346 20.8396L83.1791 13.4045H76.2422V26.6382Z" fill="#1A1A1A"/>
<path d="M109.065 13.1553C100.491 13.1553 99.4062 17.2285 99.4062 19.7187V20.2523C99.4062 22.7247 100.491 26.8869 109.065 26.8869C109.065 26.8869 111.429 26.8869 119.985 26.8869C128.54 26.8869 129.625 22.7247 129.625 20.2523V19.7187C129.625 17.2285 128.522 13.1553 119.985 13.1553H109.065ZM124.396 20.0922C124.396 21.5152 124.026 23.3117 120.112 23.3117C119.787 23.3117 109.489 23.3117 108.985 23.3117C105.638 23.3117 104.636 21.3288 104.636 20.0566V19.8432C104.636 18.4582 104.932 16.7622 108.77 16.7137C108.826 16.713 119.868 16.7137 119.925 16.7137C123.838 16.7137 124.396 18.438 124.396 19.8432V20.0922Z" fill="#1A1A1A"/>
<path d="M60 30.887V44.1206H65.0161V36.0986L73.3049 44.1206H78.3565V30.887H73.3404V38.4109L65.6567 30.887H60Z" fill="#1A1A1A"/>
<path d="M89.2759 30.6379C80.7024 30.6379 79.6172 34.7112 79.6172 37.2014V37.735C79.6172 40.2074 80.7024 44.3696 89.2759 44.3696H89.4554C98.0111 44.3696 99.0957 40.2074 99.0957 37.735V37.2014C99.0957 34.7112 97.9934 30.6379 89.4554 30.6379H89.2759ZM93.8664 37.5749C93.8664 38.9979 93.496 40.7944 89.5828 40.7944C89.2575 40.7944 89.7002 40.7944 89.196 40.7944C85.8491 40.7944 84.847 38.8115 84.847 37.5393V37.3259C84.847 35.9409 85.4908 34.2449 89.3292 34.1964C89.3856 34.1957 89.2188 34.1964 89.2759 34.1964C93.1891 34.1964 93.8664 35.9207 93.8664 37.3259V37.5749Z" fill="#1A1A1A"/>
<path d="M100.355 44.1206H105.283V35.8674L109.908 44.1206H112.486L117.129 35.8674V44.1206H122.127V30.887H115.475L111.348 38.322L107.293 30.887H100.355V44.1206Z" fill="#1A1A1A"/>
<path d="M129.869 44.1206H134.921V39.1758L142 30.887H136.468L132.537 35.4582L128.677 30.887H122.63L129.869 39.1402V44.1206Z" fill="#1A1A1A"/>
</svg>
