<svg width="142" height="57" viewBox="0 0 142 57" fill="none" xmlns="http://www.w3.org/2000/svg">
<path d="M31.4189 40.9001V17.7881H35.256V40.9001H31.4189Z" fill="black"/>
<path d="M36.8797 30.0826C37.2616 28.5413 38.0489 27.3289 39.236 26.4471C40.4448 25.5635 41.9868 25.1226 43.8603 25.1226C45.9356 25.1226 47.5569 25.6774 48.726 26.7869C49.915 27.8763 50.5094 29.4782 50.5094 31.5945V40.901H47.1245L46.8525 38.7443C46.2887 39.5251 45.5825 40.1313 44.7376 40.563C43.9108 40.9947 42.965 41.2097 41.8967 41.2097C41.2122 41.2097 40.5673 41.1068 39.962 40.901C39.3783 40.6953 38.8631 40.3977 38.42 40.0064C37.9768 39.6169 37.6237 39.143 37.3625 38.5882C37.1211 38.0132 37.0004 37.3665 37.0004 36.6464C37.0004 35.1878 37.5138 34.0782 38.5407 33.3177C39.5675 32.5369 40.9978 31.9307 42.8317 31.499L46.6994 30.6062C46.4166 29.1476 45.451 28.4182 43.7991 28.4182C42.9326 28.4182 42.2174 28.613 41.6536 29.0043C41.1095 29.3937 40.7366 29.9797 40.5349 30.7605L36.8779 30.0826H36.8797ZM40.8988 36.369C40.8988 36.9036 41.0591 37.3133 41.3815 37.6017C41.704 37.8681 42.1472 38.0022 42.711 38.0022C43.2352 38.0022 43.7378 37.9195 44.2224 37.756C44.7268 37.5705 45.17 37.3041 45.5519 36.955C45.9338 36.606 46.2364 36.1743 46.458 35.6618C46.6796 35.1474 46.7913 34.5522 46.7913 33.8743V33.5344L43.0749 34.4585C42.3705 34.622 41.8265 34.8479 41.4428 35.1364C41.0807 35.4248 40.8988 35.8344 40.8988 36.369Z" fill="black"/>
<path d="M51.8241 33.1964C51.8241 31.6753 52.1663 30.2994 52.8509 29.0667C53.5354 27.8341 54.483 26.8678 55.6918 26.1697C56.9005 25.4716 58.2498 25.1226 59.7414 25.1226C61.5753 25.1226 63.1263 25.6259 64.3945 26.6326C65.6844 27.6393 66.5094 28.9749 66.8733 30.6392L63.0056 31.3483C62.8038 30.5272 62.4111 29.8897 61.8275 29.4378C61.2636 28.9657 60.5593 28.7287 59.7126 28.7287C58.9668 28.7287 58.293 28.9142 57.6878 29.2835C57.1041 29.6325 56.6393 30.1469 56.297 30.8248C55.9746 31.5027 55.8143 32.2944 55.8143 33.1983C55.8143 34.1021 55.9746 34.8939 56.297 35.5717C56.6195 36.2294 57.0627 36.7419 57.6265 37.113C58.2102 37.4621 58.8857 37.6366 59.6513 37.6366C60.5791 37.6366 61.3429 37.3996 61.9482 36.9275C62.5534 36.4554 62.9552 35.8069 63.1569 34.9857L66.9346 35.6324C66.7526 36.6795 66.3293 37.6348 65.6645 38.4982C64.9998 39.3395 64.1441 40.0082 63.0957 40.5006C62.0689 40.9727 60.9304 41.2097 59.6802 41.2097C58.1886 41.2097 56.8393 40.8698 55.6305 40.1919C54.4416 39.4939 53.5048 38.5386 52.8203 37.3261C52.1555 36.0935 51.8223 34.7175 51.8223 33.1964H51.8241Z" fill="black"/>
<path d="M67.6491 33.257C67.6491 32.0868 67.8401 31.0067 68.2238 30.022C68.6057 29.0153 69.1407 28.1519 69.8252 27.4336C70.5296 26.7153 71.3565 26.1495 72.304 25.738C73.2714 25.3265 74.3289 25.1226 75.4764 25.1226C76.6239 25.1226 77.6021 25.3081 78.528 25.6773C79.454 26.0264 80.2502 26.5408 80.9149 27.2186C81.5797 27.8763 82.0931 28.6662 82.4552 29.5921C82.8172 30.496 82.9992 31.5027 82.9992 32.6122C82.9992 33.1872 82.9379 33.7733 82.8172 34.3685H71.5762C71.7582 35.5387 72.1905 36.4131 72.8751 36.9881C73.5795 37.5429 74.5072 37.8203 75.6547 37.8203C76.6221 37.8203 77.3967 37.6256 77.9822 37.2343C78.5875 36.8448 79.0198 36.3102 79.281 35.6324L82.8461 36.3727C82.4029 37.914 81.5472 39.1044 80.2772 39.9476C79.0288 40.789 77.4868 41.2115 75.6529 41.2115C74.4243 41.2115 73.3164 41.0168 72.3293 40.6255C71.3421 40.2342 70.4954 39.6904 69.791 38.9923C69.1065 38.2741 68.5714 37.4308 68.1895 36.4645C67.8275 35.478 67.6455 34.4107 67.6455 33.2589L67.6491 33.257ZM78.982 31.3777C78.8198 30.4114 78.4379 29.6729 77.8327 29.1586C77.2274 28.624 76.4419 28.3576 75.4764 28.3576C74.5702 28.3576 73.7848 28.6148 73.1201 29.1273C72.4554 29.6197 71.9816 30.371 71.6988 31.3777H78.982Z" fill="black"/>
<path d="M84.0059 33.1964C84.0059 31.6753 84.3481 30.2994 85.0327 29.0667C85.7172 27.8341 86.6648 26.8678 87.8736 26.1697C89.0823 25.4716 90.4316 25.1226 91.9232 25.1226C93.7571 25.1226 95.3081 25.6259 96.5763 26.6326C97.8662 27.6393 98.6912 28.9749 99.0551 30.6392L95.1874 31.3483C94.9856 30.5272 94.5929 29.8897 94.0093 29.4378C93.4454 28.9657 92.741 28.7287 91.8944 28.7287C91.1486 28.7287 90.473 28.9142 89.8696 29.2835C89.2859 29.6325 88.8211 30.1469 88.4788 30.8248C88.1564 31.5027 87.9961 32.2944 87.9961 33.1983C87.9961 34.1021 88.1564 34.8939 88.4788 35.5717C88.8013 36.2294 89.2445 36.7419 89.8083 37.113C90.392 37.4621 91.0675 37.6366 91.8331 37.6366C92.7609 37.6366 93.5247 37.3996 94.13 36.9275C94.7334 36.4554 95.137 35.8069 95.3387 34.9857L99.1164 35.6324C98.9344 36.6795 98.5129 37.6348 97.8481 38.4982C97.1834 39.3395 96.3277 40.0082 95.2793 40.5006C94.2525 40.9727 93.1139 41.2097 91.8637 41.2097C90.3722 41.2097 89.0229 40.8698 87.8141 40.1919C86.6252 39.4939 85.6884 38.5386 85.0039 37.3261C84.3391 36.0935 84.0059 34.7175 84.0059 33.1964Z" fill="black"/>
<path d="M100.293 40.9001V17.7881H104.13V26.8797C104.714 26.3249 105.358 25.8932 106.065 25.5846C106.791 25.2759 107.576 25.1216 108.421 25.1216C109.266 25.1216 110.022 25.2649 110.748 25.5533C111.474 25.8197 112.098 26.2312 112.622 26.786C113.166 27.3408 113.589 28.0187 113.89 28.8196C114.213 29.6206 114.373 30.5446 114.373 31.5936V40.9001H110.536V32.209C110.536 31.0994 110.253 30.247 109.689 29.6518C109.145 29.0566 108.41 28.759 107.482 28.759C106.555 28.759 105.76 29.0364 105.095 29.5912C104.451 30.146 104.128 31.0186 104.128 32.2108V40.9019H100.291L100.293 40.9001Z" fill="black"/>
<path d="M115.807 30.0826C116.189 28.5413 116.976 27.3289 118.165 26.4471C119.374 25.5635 120.916 25.1226 122.789 25.1226C124.864 25.1226 126.486 25.6774 127.655 26.7869C128.844 27.8763 129.438 29.4782 129.438 31.5945V40.901H126.053L125.781 38.7443C125.217 39.5251 124.513 40.1313 123.666 40.563C122.839 40.9947 121.894 41.2097 120.825 41.2097C120.141 41.2097 119.496 41.1068 118.891 40.901C118.307 40.6953 117.792 40.3977 117.349 40.0064C116.906 39.6169 116.552 39.143 116.291 38.5882C116.05 38.0132 115.929 37.3665 115.929 36.6464C115.929 35.1878 116.443 34.0782 117.469 33.3177C118.496 32.5369 119.927 31.9307 121.76 31.499L125.628 30.6062C125.345 29.1476 124.38 28.4182 122.728 28.4182C121.861 28.4182 121.146 28.613 120.582 29.0043C120.038 29.3937 119.665 29.9797 119.464 30.7605L115.807 30.0826ZM119.826 36.369C119.826 36.9036 119.986 37.3133 120.308 37.6017C120.631 37.8681 121.074 38.0022 121.638 38.0022C122.162 38.0022 122.665 37.9195 123.149 37.756C123.654 37.5705 124.097 37.3041 124.479 36.955C124.861 36.606 125.163 36.1743 125.385 35.6618C125.606 35.1474 125.718 34.5522 125.718 33.8743V33.5344L122.002 34.4585C121.297 34.622 120.753 34.8479 120.37 35.1364C120.008 35.4248 119.826 35.8344 119.826 36.369Z" fill="black"/>
<path d="M130.032 28.8826V27.7418L135.683 21.9478H136.741V25.4602H141.999V28.8808H136.741V35.384C136.741 36.1647 136.923 36.7287 137.285 37.0796C137.647 37.4286 138.182 37.6032 138.886 37.6032C139.47 37.6032 140.156 37.4378 140.942 37.1108L141.788 40.3165C140.58 40.9117 139.331 41.2093 138.041 41.2093C136.451 41.2093 135.192 40.7776 134.264 39.9142C133.358 39.0508 132.904 37.8493 132.904 36.308V28.8808H130.032V28.8826Z" fill="black"/>
<path d="M30.4642 25.2894C30.2246 22.7289 29.0924 20.7104 27.0979 19.2908C25.6991 18.2936 24.0607 17.7881 22.2282 17.7881C21.808 17.7881 21.3659 17.8158 20.9103 17.8677C19.6819 18.0131 18.5598 18.3698 17.5795 18.9272C16.5671 19.502 15.6812 20.3035 14.9472 21.3128C13.7086 23.0111 13.0371 25.0124 12.892 27.4326C12.8616 27.9399 12.8633 28.4488 12.87 28.9474C12.7047 28.8332 12.5427 28.7189 12.379 28.6046L11.3767 27.9052L10.4318 29.3525C10.1719 29.7524 9.90532 30.161 9.61846 30.6042L9.26074 31.1582L9.82095 31.4906C9.97787 31.584 10.1348 31.6775 10.2917 31.7727L10.695 32.0151C11.5539 32.5327 13.3931 33.5749 13.4117 33.6424C14.7616 38.6456 16.1401 40.8494 16.1401 40.8494H20.043C20.043 40.8494 18.1768 36.5561 17.6352 34.8577C19.3225 35.1624 21.0015 35.1901 22.6315 34.9374C23.7772 34.7608 24.8217 34.4405 25.7413 33.9869C26.7503 33.4884 27.6396 32.8132 28.3837 31.9805C30.012 30.1679 30.7123 27.9156 30.4659 25.2877L30.4642 25.2894ZM26.779 26.5687C26.5327 29.1067 24.9499 30.8448 22.4357 31.3365C20.615 31.6914 18.7404 31.5702 16.7105 30.966C16.5333 30.1818 16.535 29.1517 16.535 29.1517C16.5097 26.6189 16.9366 24.9172 17.9659 23.463C19.304 21.5708 21.9953 20.8177 24.0927 21.7456C25.8442 22.5177 26.9747 24.5467 26.779 26.5687Z" fill="black"/>
</svg>
