<svg width="236" height="48" viewBox="0 0 236 48" fill="none" xmlns="http://www.w3.org/2000/svg">
<path d="M59.3323 13.5101C53.0954 13.5101 50.8917 16.8328 50.8917 19.9174C50.8917 24.3919 54.756 25.3069 58.2137 26.1208C60.6204 26.6971 62.6876 27.2051 62.6876 28.9C62.6876 29.7813 62.179 31.2396 58.6876 31.2396C56.3147 31.2057 54.01 30.459 52.0435 29.1031L50.5186 32.5615C52.349 33.9852 55.5352 34.9001 58.6543 34.9001C63.8067 34.9001 67.1624 32.3912 67.1624 28.5269C67.1285 24.1541 63.2294 23.2395 59.8063 22.4257C57.3996 21.8494 55.3324 21.3748 55.3324 19.6798C55.3324 17.4426 58.0777 17.2047 59.298 17.2047C60.62 17.137 61.9086 17.4086 63.095 17.985L66.4169 15.5443C64.2813 14.2562 61.841 13.544 59.3323 13.5101ZM113.668 13.8475V34.5592H118.142V28.6945H122.582L126.549 34.5592L131.328 34.5925L126.787 27.8468C129.465 26.6942 131.023 24.3563 131.023 21.2721C131.023 16.6959 127.633 13.8479 122.209 13.8479L113.668 13.8475ZM209.495 13.8475V34.5592H213.97V26.2196H216.75L223.597 34.5592H229.36L220.208 23.8467L228.206 13.8475H223.089L216.443 22.7275H213.97V13.8475H209.495ZM93.8397 13.8796V34.5913H109.5V31.1329H98.3135V25.8466H107.873V22.3881H98.3135V17.3382H104.822L109.5 13.8797L93.8397 13.8796ZM169.392 13.8808L160.476 34.5925H165.019L166.816 30.4238H176.306L178.001 34.5925H182.714L173.968 13.8808H169.392ZM185.56 13.8808V34.5925H189.865V21.0342L200.136 34.5925H204.374V13.8808H200.102V27.4737L189.798 13.8808H185.56ZM71.2973 13.9117V34.6235H81.6702C86.8226 34.6235 89.669 32.6239 89.669 29.0308C89.7029 26.5223 88.3481 24.6915 86.043 23.9119H86.0419L85.8388 23.8442L86.0419 23.7421C87.7029 22.8607 88.7534 21.0981 88.6856 19.2337C88.6856 15.8779 85.8384 13.9118 81.0928 13.9118L71.2973 13.9117ZM140.475 13.9152V34.6269H150.848C156.001 34.6269 158.848 32.6273 158.848 29.0342C158.848 26.5935 157.526 24.7283 155.221 23.9487L155.017 23.8466L155.22 23.7456C156.881 22.8643 157.932 21.1355 157.864 19.2372C157.864 15.8814 155.017 13.9153 150.271 13.9153L140.475 13.9152ZM75.7682 17.3358H80.5141C83.5309 17.3358 84.1412 18.726 84.1412 19.8785C84.1412 21.5395 82.8869 22.4202 80.5141 22.4202H75.7682V17.3358ZM149.693 17.3381C152.676 17.3381 153.32 18.7283 153.32 19.8808C153.32 21.5418 152.066 22.4236 149.693 22.4236H144.947V17.3724H149.693V17.3381ZM118.136 17.3392H122.103C124.984 17.3392 126.543 18.7625 126.543 21.3048C126.543 23.8471 124.984 25.2705 122.103 25.2705H118.136V17.3392ZM171.627 18.6267L174.881 26.9322H168.17L171.627 18.6267ZM75.7647 25.8441H81.3241C83.8665 25.8441 85.1543 26.7252 85.1543 28.4879C85.1543 30.2505 83.9004 31.1316 81.3241 31.1316H75.7647V25.8441ZM144.943 25.8464H150.502C153.045 25.8464 154.332 26.7275 154.332 28.4901C154.332 30.2528 153.078 31.1351 150.502 31.1351H144.943V25.8464Z" fill="#E7E6E2"/>
<path d="M36.924 13.7128C37.7376 14.7636 38.4155 15.9161 38.9918 17.1364L23.3308 28.6955L16.7549 24.56V19.6109L23.2973 23.7125L36.924 13.7128Z" fill="#BFBDB4"/>
<path d="M10.0764 24.2173C10.0764 23.98 10.0764 23.7767 10.1103 23.5394L6.14426 23.3361C6.14426 23.6072 6.11035 23.9123 6.11035 24.1835C6.11035 28.9292 8.04252 33.2339 11.1611 36.3529L13.9746 33.5394C11.5678 31.1666 10.0764 27.8783 10.0764 24.2173Z" fill="#BFBDB4"/>
<path d="M23.2967 10.9985C23.534 10.9985 23.7374 10.9985 23.9747 11.0324L24.1781 7.06637C23.9069 7.06637 23.6018 7.03247 23.3306 7.03247C18.585 7.03247 14.2802 8.96464 11.1611 12.0832L13.9746 14.8967C16.3475 12.4899 19.6697 10.9985 23.2967 10.9985Z" fill="#BFBDB4"/>
<path d="M23.2964 37.4419C23.0591 37.4419 22.8557 37.4419 22.6184 37.408L22.415 41.3741C22.6862 41.3741 22.9913 41.408 23.2625 41.408C28.0082 41.408 32.3129 39.4758 35.432 36.3572L32.6185 33.5437C30.2456 35.9844 26.9574 37.4419 23.2964 37.4419Z" fill="#BFBDB4"/>
<path d="M30.7545 13.3074L34.1104 10.8329C31.1613 8.46009 27.3988 7.00244 23.2969 7.00244V10.9685C26.0765 11.0024 28.6526 11.8498 30.7545 13.3074Z" fill="#BFBDB4"/>
<path d="M40.5166 24.2174C40.5166 23.1666 40.4149 22.1496 40.2454 21.1327L36.5506 23.8784V24.2174C36.5506 28.1156 34.8557 31.607 32.1777 34.014L34.8557 36.9631C38.3132 33.8445 40.5166 29.2687 40.5166 24.2174Z" fill="#BFBDB4"/>
<path d="M23.2964 37.4419C19.3982 37.4419 15.9068 35.747 13.4999 33.0691L10.5508 35.747C13.7032 39.2385 18.2453 41.408 23.2966 41.408L23.2964 37.4419Z" fill="#BFBDB4"/>
<path d="M14.4492 14.4237L11.7713 11.4746C8.27981 14.6271 6.11035 19.1691 6.11035 24.2198H10.0764C10.0764 20.3555 11.7713 16.8307 14.4492 14.4237Z" fill="#BFBDB4"/>
</svg>
