<svg width="154" height="47" viewBox="0 0 154 47" fill="none" xmlns="http://www.w3.org/2000/svg">
<g clip-path="url(#clip0_916_517)">
<path d="M42.022 10.6932C42.4797 12.1994 42.7357 13.7918 42.7357 15.447C42.7357 20.7891 40.137 25.4801 36.1884 28.4218C29.3231 33.5442 19.316 33.552 5.5 37.9528C9.6735 42.9968 15.9415 46.2052 22.9465 46.2052C35.5058 46.2052 45.6913 35.9054 45.6913 23.2052C45.6913 18.5926 44.3415 14.3017 42.022 10.6932Z" fill="#E7E6E2"/>
<path d="M36.8121 4.8797C33.0109 1.99293 28.2867 0.282837 23.1745 0.282837C10.6152 0.282837 0.429688 10.5826 0.429688 23.2828C0.429688 28.3974 2.08202 33.112 4.86694 36.9322C20.1646 32.4295 32.243 20.2941 36.8121 4.8797Z" fill="#BFBDB4"/>
<path d="M101.083 22.8283V22.7812C101.067 22.5773 101.028 22.2478 100.989 21.8869C100.904 21.2359 100.765 20.5926 100.571 19.9729C99.1044 15.2976 95.1792 12.2775 90.5635 12.2775C90.1058 12.2775 89.6248 12.3088 89.1594 12.3716C83.2405 13.1404 79.2221 18.553 80.0134 24.7031C80.7271 30.2648 85.1566 34.0773 90.548 34.0773C91.0057 34.0773 91.4789 34.0459 91.9521 33.991C94.8301 33.6223 97.3512 32.4064 99.2441 30.0452C99.3527 29.904 99.407 29.7393 99.3837 29.5824C99.3682 29.449 99.2906 29.3157 99.1432 29.2137C98.8252 28.9862 97.6926 28.4292 97.0797 28.1312C96.8936 28.037 96.7539 27.9664 96.6686 27.9272C96.4824 27.8331 96.3505 27.786 96.2264 27.786C96.079 27.786 95.9394 27.8644 95.7998 28.0292C94.5819 29.4647 93.0381 30.2178 91.4634 30.4217C91.1531 30.461 90.8505 30.4845 90.5557 30.4845C87.6855 30.4845 84.7842 28.5391 83.9464 25.8719L83.9231 25.8013L83.9852 25.77C84.1326 25.6915 85.4746 25.064 87.4683 25.064C87.7165 25.064 87.9647 25.0718 88.213 25.0953C88.787 25.1346 89.3611 25.213 89.9662 25.2914C91.0832 25.4405 92.2469 25.5974 93.5967 25.5974C94.4345 25.5974 95.249 25.5346 96.0868 25.417C99.3759 24.7816 100.679 23.8481 100.687 23.8324C101.129 23.5343 101.114 23.2833 101.083 22.8283ZM97.3668 21.4712C96.8237 21.6516 96.079 21.8007 95.1559 21.9183C94.7137 21.9811 94.2328 22.0046 93.6587 22.0046C92.6968 22.0046 91.6573 21.9262 90.6488 21.8477H90.61C89.6791 21.7771 88.7948 21.7065 87.9492 21.7065C87.3442 21.7065 86.7856 21.7457 86.2581 21.8085C84.6756 22.0125 83.4267 22.5145 83.4267 22.5145L83.4422 22.3812C83.7525 19.1806 86.4133 16.435 89.6404 16.0036C89.9351 15.9644 90.2454 15.9487 90.548 15.9487C93.5889 15.9487 96.5367 18.2785 97.4133 21.3692L97.4288 21.4477L97.3668 21.4712Z" fill="#E7E6E2"/>
<path d="M152.603 13.5094C152.603 13.227 152.378 13.0073 152.106 13.0073H149.383C149.112 13.0073 148.887 13.2348 148.887 13.5094V33.0656C148.887 33.3402 149.112 33.5677 149.383 33.5677H152.106C152.378 33.5677 152.603 33.3402 152.603 33.0656V13.5094Z" fill="#E7E6E2"/>
<path d="M150.742 6.02539C149.393 6.02539 148.283 7.13931 148.283 8.51209C148.283 9.88487 149.393 10.9909 150.742 10.9909C152.092 10.9909 153.201 9.87703 153.201 8.51209C153.201 7.14715 152.1 6.02539 150.742 6.02539Z" fill="#E7E6E2"/>
<path d="M114.593 34.0934C114.764 34.1013 114.942 34.1091 115.113 34.1091C117.905 34.1091 120.512 33.0187 122.444 31.0498C124.398 29.0494 125.477 26.296 125.477 23.3073C125.477 17.1258 120.768 12.2858 114.756 12.2858C109.861 12.2858 105.734 15.5412 104.47 20.3891C104.252 21.2128 104.035 23.3073 104.035 25.3939V40.7455C104.035 41.0279 104.252 41.2554 104.532 41.2554L107.239 41.2476C107.518 41.2476 107.743 41.0201 107.743 40.7455V31.0733L107.883 31.2145C109.202 32.501 111.661 33.9522 114.593 34.0934ZM114.709 15.9962C118.565 15.9962 121.59 19.2046 121.59 23.2994C121.59 27.3942 118.72 30.532 114.919 30.532C112.995 30.532 111.219 29.8339 109.915 28.5787C108.573 27.2844 107.829 25.4488 107.829 23.4328C107.829 19.3301 110.916 15.9962 114.709 15.9962Z" fill="#E7E6E2"/>
<path d="M66.0784 34.0934C66.2491 34.1013 66.4275 34.1091 66.5981 34.1091C69.3986 34.1091 71.9973 33.0187 73.9289 31.0498C75.8838 29.0494 76.9621 26.296 76.9621 23.3073C76.9621 17.1258 72.2456 12.2858 66.2413 12.2858C61.3463 12.2858 57.2116 15.5412 55.9549 20.3891C55.7377 21.2128 55.5205 23.3073 55.5205 25.3939V40.7455C55.5205 41.0279 55.7455 41.2554 56.017 41.2554L58.7243 41.2476C59.0036 41.2476 59.2286 41.0201 59.2286 40.7455L59.2131 31.0576L59.3527 31.1988C60.6792 32.501 63.1383 33.9522 66.0784 34.0934ZM66.1947 15.9962C70.0502 15.9962 73.0756 19.2046 73.0756 23.2994C73.0756 27.3942 70.2131 30.532 66.4042 30.532C64.4804 30.532 62.7039 29.8339 61.4007 28.5787C60.0586 27.2844 59.3139 25.4488 59.3139 23.4328C59.3061 19.3301 62.4014 15.9962 66.1947 15.9962Z" fill="#E7E6E2"/>
<path d="M128.078 30.6649C130.429 32.8378 132.997 34.0773 136.332 34.0773H136.433C142.189 34.038 144.765 30.861 144.765 27.7311C144.765 23.4009 140.715 22.2164 139.482 21.9575C139.086 21.8791 138.667 21.8007 138.248 21.7144C137.248 21.5183 136.208 21.3143 135.262 21.0554C134.602 20.875 132.438 20.1455 132.438 18.5138C132.438 16.7174 134.409 15.7526 136.263 15.7526C137.822 15.7526 139.117 16.0193 140.777 17.3293C140.902 17.4313 141.088 17.549 141.313 17.549C141.476 17.549 141.638 17.4862 141.801 17.3685C142.259 17.0234 143.105 16.3095 143.663 15.7447C143.795 15.6114 143.857 15.4623 143.849 15.3054C143.834 15.0701 143.663 14.874 143.57 14.7955C141.351 13.0148 139.21 12.2853 136.2 12.2775H136.185C131.872 12.2775 128.614 15.0779 128.614 18.7884C128.614 21.7301 131.003 23.8245 135.347 24.6874L138.062 25.213C139.846 25.5425 140.855 26.4995 140.816 27.8409C140.785 29.1509 139.195 30.508 136.588 30.508C134.455 30.508 132.586 29.6687 131.011 28.2253L130.987 28.2017C130.879 28.0998 130.747 27.9743 130.569 27.9743C130.444 27.9743 130.313 28.037 130.165 28.1468C130.002 28.2802 128.187 29.7314 127.993 29.9354C127.908 30.0295 127.861 30.1315 127.869 30.2413C127.869 30.4139 127.978 30.5708 128.078 30.6649Z" fill="#E7E6E2"/>
</g>
<defs>
<clipPath id="clip0_916_517">
<rect width="153" height="46" fill="white" transform="translate(0.199219 0.205566)"/>
</clipPath>
</defs>
</svg>
