<svg width="144" height="66" viewBox="0 0 144 66" fill="none" xmlns="http://www.w3.org/2000/svg">
<path d="M44.1452 0.200439H37.5293V41.9191H44.1452V0.200439Z" fill="#010202"/>
<path d="M67.1182 41.918H73.7341V13.6567H67.1182V28.5819H67.2375C67.2375 34.8223 61.9453 35.4321 60.5023 35.4321C56.6531 35.4321 55.8122 31.6387 55.8122 29.3158V13.6567H49.1963V29.5613C49.1963 33.476 50.52 36.6569 52.4432 38.9826C54.2471 40.8172 57.1333 41.918 60.3829 41.918C62.6695 41.918 65.6751 41.3055 67.1182 39.5923V41.918Z" fill="#010202"/>
<path d="M80.1101 41.9212H86.7261V20.3887H91.5381V13.66H86.7261V3.62891H80.1101V13.66H75.1787V20.3887H80.1101V41.9212Z" fill="#010202"/>
<path d="M106.94 41.7977C110.669 41.7977 114.158 40.4514 116.803 38.0044L117.765 37.025L113.195 32.3764L112.232 33.5986C110.789 34.9449 108.985 35.6787 106.94 35.6787C102.369 35.6787 99 32.3764 99 27.4823C99 22.5882 102.247 19.4073 106.94 19.4073C108.985 19.4073 110.789 20.0197 112.232 21.4874L113.195 22.3426L117.524 17.9396L116.561 16.9602C113.794 14.6345 110.547 13.1669 106.937 13.1669C98.7586 13.0454 92.7422 19.0403 92.7422 27.4796C92.7448 35.4359 98.8806 41.7977 106.94 41.7977Z" fill="#010202"/>
<path d="M127.511 26.1367C127.511 19.8963 132.082 19.2866 133.525 19.2866C137.374 19.2866 137.374 23.0799 137.374 25.4029V41.9199H143.99V25.2815C144.11 21.6122 143.269 18.3072 141.104 16.1057C139.3 14.2711 136.894 13.1703 133.886 13.1703C131.599 13.1703 129.196 13.7827 127.389 15.4959V0.203857H120.773V41.9226H127.389V26.1394H127.511V26.1367Z" fill="#010202"/>
<path d="M101.888 27.4814C101.888 30.174 104.052 32.2514 106.578 32.2514C109.225 32.2514 111.268 30.0499 111.268 27.4814C111.268 24.7889 109.103 22.7114 106.578 22.7114C104.052 22.7114 101.888 24.7916 101.888 27.4814Z" fill="#E52421"/>
<path d="M18.8848 41.7982C24.177 41.7982 29.2305 39.7181 32.5968 35.9247L33.5598 34.9454L29.2305 30.2968L28.3896 31.519C25.9836 33.966 22.3758 35.4337 18.8875 35.4337C11.4306 35.4337 6.13578 29.5602 6.13578 21.6093C6.13578 13.5343 11.428 7.78491 18.7655 7.78491C22.2538 7.78491 25.5008 9.25261 28.2676 11.6997L29.2305 12.679L33.5598 8.27594L32.5968 7.29658C28.9891 3.38182 24.055 1.4231 18.8848 1.4231C8.05901 1.5445 0 10.1106 0 21.6093C0 33.1081 8.05901 41.7982 18.8848 41.7982Z" fill="#010202"/>
<path d="M24.09 53.1882L19.7812 65.6409H21.643L25.8546 53.1882H24.09Z" fill="#010202"/>
<path d="M28.992 58.5654H28.208L28.3052 56.7729H32.1237V55.0793H26.5406L26.0504 60.259H28.4002C29.1842 60.259 29.7717 60.3578 30.0654 60.5577C30.3591 60.7576 30.5557 61.0563 30.5557 61.4539C30.5557 61.8515 30.3591 62.1503 30.0654 62.3502C29.7717 62.55 29.3808 62.6489 28.7933 62.6489C28.303 62.6489 27.8149 62.55 27.4218 62.449C26.9316 62.3502 26.5406 62.0514 26.2469 61.8515L25.4629 63.4463C25.8538 63.745 26.4413 64.0438 27.0309 64.1426C27.6184 64.3425 28.303 64.4413 28.8926 64.4413C29.6766 64.4413 30.4606 64.3425 30.9488 64.0437C31.5362 63.745 31.9272 63.4463 32.2209 62.9476C32.5146 62.449 32.6118 61.9526 32.6118 61.4539C32.6118 60.5577 32.3181 59.8592 31.7306 59.3628C31.1453 58.7653 30.2641 58.5654 28.992 58.5654Z" fill="#010202"/>
<path d="M34.7682 61.8511C34.3773 61.8511 34.0836 61.9499 33.887 62.2487C33.6905 62.4486 33.4961 62.7473 33.4961 63.1449C33.4961 63.5425 33.5933 63.8412 33.887 64.0411C34.0836 64.241 34.4745 64.4387 34.7682 64.4387C35.1591 64.4387 35.4529 64.3398 35.6494 64.0411C35.8459 63.8412 36.0403 63.4436 36.0403 63.1449C36.0403 62.7473 35.9431 62.4486 35.6494 62.2487C35.4529 61.9521 35.1591 61.8511 34.7682 61.8511Z" fill="#010202"/>
<path d="M42.7005 55.4779C42.1131 55.0803 41.4284 54.8804 40.6444 54.8804C39.8604 54.8804 39.1758 55.0803 38.5883 55.4779C38.0008 55.8754 37.5106 56.3741 37.2168 57.1714C36.9231 57.8678 36.7266 58.7662 36.7266 59.7613C36.7266 60.7563 36.9231 61.6547 37.2168 62.3511C37.5106 63.0474 38.0008 63.6449 38.5883 64.0447C39.1758 64.4445 39.8604 64.6421 40.6444 64.6421C41.4284 64.6421 42.1131 64.4423 42.7005 64.0447C43.288 63.6471 43.7783 63.1484 44.072 62.3511C44.3658 61.6547 44.5623 60.7563 44.5623 59.7613C44.5623 58.7662 44.3658 57.8678 44.072 57.1714C43.7783 56.3741 43.288 55.8776 42.7005 55.4779ZM42.0159 61.9535C41.7222 62.4521 41.2319 62.6498 40.7438 62.6498C40.1563 62.6498 39.7654 62.4499 39.4717 61.9535C39.1779 61.4549 38.9814 60.7585 38.9814 59.6624C38.9814 58.5663 39.1779 57.87 39.4717 57.3713C39.7654 56.8727 40.2557 56.675 40.7438 56.675C41.3312 56.675 41.7222 56.8749 42.0159 57.3713C42.3096 57.8678 42.5062 58.5663 42.5062 59.6624C42.504 60.7585 42.3096 61.4549 42.0159 61.9535Z" fill="#010202"/>
<path d="M3.5291 58.5654H2.74509L2.84229 56.7729H6.6608V55.0793H1.07773L0.587464 60.259H2.93732C3.72132 60.259 4.30878 60.3578 4.60252 60.5577C4.89625 60.7576 5.09279 61.0563 5.09279 61.4539C5.09279 61.8515 4.89625 62.1503 4.60252 62.3502C4.30878 62.55 3.91787 62.6489 3.3304 62.6489C2.84013 62.6489 2.35202 62.55 1.95893 62.449C1.46866 62.3502 1.07774 62.0514 0.784006 61.8515L0 63.4463C0.390922 63.745 0.978388 64.0438 1.56801 64.1426C2.15547 64.3425 2.84013 64.4413 3.42975 64.4413C4.21376 64.4413 4.99776 64.3425 5.48587 64.0437C6.07333 63.745 6.46426 63.4463 6.75799 62.9476C7.05172 62.449 7.14891 61.9526 7.14891 61.4539C7.14891 60.5577 6.85519 59.8592 6.26772 59.3628C5.68242 58.7653 4.80122 58.5654 3.5291 58.5654Z" fill="#010202"/>
<path d="M9.30532 61.8511C8.9144 61.8511 8.62067 61.9499 8.42413 62.2487C8.22758 62.4486 8.0332 62.7473 8.0332 63.1449C8.0332 63.5425 8.13039 63.8412 8.42413 64.0411C8.62067 64.241 9.01159 64.4387 9.30532 64.4387C9.69624 64.4387 9.98998 64.3398 10.1865 64.0411C10.3831 63.8412 10.5774 63.4436 10.5774 63.1449C10.5774 62.7473 10.4802 62.4486 10.1865 62.2487C9.98998 61.9521 9.69624 61.8511 9.30532 61.8511Z" fill="#010202"/>
<path d="M17.2425 55.4779C16.6551 55.0803 15.9704 54.8804 15.1864 54.8804C14.4024 54.8804 13.7178 55.0803 13.1303 55.4779C12.5428 55.8754 12.0526 56.3741 11.7588 57.1714C11.4651 57.8678 11.2686 58.7662 11.2686 59.7613C11.2686 60.7563 11.4651 61.6547 11.7588 62.3511C12.0526 63.0474 12.5428 63.6449 13.1303 64.0447C13.7178 64.4445 14.4024 64.6421 15.1864 64.6421C15.9704 64.6421 16.6551 64.4423 17.2425 64.0447C17.83 63.6471 18.3203 63.1484 18.614 62.3511C18.9077 61.6547 19.1043 60.7563 19.1043 59.7613C19.1043 58.7662 18.9077 57.8678 18.614 57.1714C18.3203 56.3741 17.83 55.8776 17.2425 55.4779ZM16.5579 61.9535C16.2642 62.4521 15.7739 62.6498 15.2858 62.6498C14.6983 62.6498 14.3074 62.4499 14.0136 61.9535C13.7199 61.4549 13.5234 60.7585 13.5234 59.6624C13.5234 58.5663 13.7199 57.87 14.0136 57.3713C14.3074 56.8727 14.7977 56.675 15.2858 56.675C15.8732 56.675 16.2642 56.8749 16.5579 57.3713C16.8516 57.8678 17.0482 58.5663 17.0482 59.6624C17.046 60.7585 16.8516 61.4549 16.5579 61.9535Z" fill="#010202"/>
<path d="M61.9932 56.9721H57.8788C57.7817 56.9721 57.5851 56.8732 57.5851 56.7722L56.313 52.7875C56.2158 52.4888 55.7255 52.4888 55.6283 52.7875L54.3562 56.7722C54.3562 56.8711 54.1597 56.9721 54.0625 56.9721H49.9481C49.6544 56.9721 49.4578 57.3697 49.7515 57.5696L53.0819 60.0605C53.1791 60.1594 53.2785 60.2604 53.1791 60.4581L51.907 64.4428C51.8098 64.7415 52.2007 65.0403 52.3973 64.8404L55.7277 62.3494C55.8249 62.2506 56.0214 62.2506 56.1186 62.3494L59.449 64.8404C59.7427 65.0403 60.0365 64.7415 59.9393 64.4428L58.6672 60.4581C58.6672 60.3593 58.6672 60.1594 58.7644 60.0605L62.0948 57.5696C62.4835 57.3719 62.3842 56.9721 61.9932 56.9721Z" fill="#E52421"/>
<path d="M75.2159 56.9719H71.1015C71.0043 56.9719 70.8078 56.873 70.8078 56.772L69.5357 52.7873C69.4385 52.4885 68.9482 52.4885 68.851 52.7873L67.5789 56.772C67.5789 56.8708 67.3823 56.9719 67.2851 56.9719H63.1707C62.877 56.9719 62.6805 57.3694 62.9742 57.5693L66.3046 60.0603C66.4018 60.1591 66.5011 60.2602 66.4018 60.4579L65.1297 64.4426C65.0325 64.7413 65.4234 65.04 65.6199 64.8401L68.9503 62.3492C69.0475 62.2503 69.2441 62.2503 69.3413 62.3492L72.6717 64.8401C72.9654 65.04 73.2591 64.7413 73.1619 64.4426L71.8898 60.4579C71.8898 60.359 71.8898 60.1591 71.987 60.0603L75.3174 57.5693C75.6068 57.3716 75.5096 56.9719 75.2159 56.9719Z" fill="#E52421"/>
<path d="M88.7286 56.9719H84.6142C84.517 56.9719 84.3205 56.873 84.3205 56.772L83.0483 52.7873C82.9512 52.4885 82.4609 52.4885 82.3637 52.7873L81.0916 56.772C81.0916 56.8708 80.895 56.9719 80.7978 56.9719H76.6834C76.3897 56.9719 76.1932 57.3694 76.4869 57.5693L79.8173 60.0603C79.9145 60.1591 80.0138 60.2602 79.9145 60.4579L78.6424 64.4426C78.5452 64.7413 78.9361 65.04 79.1326 64.8401L82.463 62.3492C82.5602 62.2503 82.7568 62.2503 82.854 62.3492L86.1844 64.8401C86.4781 65.04 86.7718 64.7413 86.6746 64.4426L85.4025 60.4579C85.4025 60.359 85.4025 60.1591 85.4997 60.0603L88.8301 57.5693C89.1217 57.3716 89.0223 56.9719 88.7286 56.9719Z" fill="#E52421"/>
<path d="M102.146 56.9721H98.0312C97.934 56.9721 97.7375 56.8732 97.7375 56.7722L96.4653 52.7875C96.3682 52.4888 95.8779 52.4888 95.7807 52.7875L94.5086 56.7722C94.5086 56.8711 94.312 56.9721 94.2148 56.9721H90.1004C89.8067 56.9721 89.6102 57.3697 89.9039 57.5696L93.2343 60.0605C93.3315 60.1594 93.4308 60.2604 93.3315 60.4581L92.0594 64.4428C91.9622 64.7415 92.3531 65.0403 92.5496 64.8404L95.88 62.3494C95.9772 62.2506 96.1738 62.2506 96.271 62.3494L99.6014 64.8404C99.8951 65.0403 100.189 64.7415 100.092 64.4428L98.8195 60.4581C98.8195 60.3593 98.8195 60.1594 98.9167 60.0605L102.247 57.5696C102.537 57.3719 102.439 56.9721 102.146 56.9721Z" fill="#E52421"/>
<path d="M115.469 57.5725C115.763 57.3726 115.566 56.975 115.273 56.975H111.158C111.061 56.975 110.864 56.8762 110.864 56.7751L109.592 52.7905C109.495 52.4917 109.005 52.4917 108.908 52.7905L107.636 56.7751C107.636 56.874 107.439 56.975 107.342 56.975H103.227C102.934 56.975 102.737 57.3726 103.031 57.5725L106.361 60.0635C106.458 60.1623 106.558 60.2634 106.458 60.4611L105.186 64.4457C105.089 64.7445 105.48 65.0432 105.677 64.8433L109.007 62.3523C109.104 62.2535 109.301 62.2535 109.398 62.3523L112.728 64.8433C113.022 65.0432 113.316 64.7445 113.219 64.4457L111.946 60.4611C111.946 60.3622 111.946 60.1623 112.044 60.0635L115.469 57.5725Z" fill="#E52421"/>
</svg>
