<svg width="142" height="57" viewBox="0 0 142 57" fill="none" xmlns="http://www.w3.org/2000/svg">
<path d="M41.4355 26.6056H43.8634C44.0729 27.1198 44.349 27.5482 44.6918 27.891C45.5487 28.7479 46.6531 29.1763 48.0051 29.1763C49.2238 29.1763 50.1188 28.9764 50.6901 28.5765C51.2804 28.1766 51.5755 27.6625 51.5755 27.0341C51.5755 26.6913 51.4518 26.3961 51.2042 26.1486C50.9757 25.901 50.5949 25.6821 50.0617 25.4916C49.5285 25.3012 49.0524 25.1584 48.6335 25.0632C48.2336 24.9489 47.6433 24.8156 46.8626 24.6633C43.7206 24.0159 42.1496 22.6163 42.1496 20.4645C42.1496 19.341 42.6257 18.3984 43.5778 17.6367C44.5299 16.856 45.8629 16.4656 47.5767 16.4656C49.7094 16.4656 51.3946 17.1797 52.6324 18.6079C53.1275 19.2553 53.4893 19.9694 53.7178 20.7501H51.2899C51.1185 20.3693 50.871 20.017 50.5473 19.6933C49.8237 18.9697 48.8335 18.6079 47.5767 18.6079C46.5674 18.6079 45.7867 18.7983 45.2345 19.1791C44.7013 19.56 44.4347 19.9884 44.4347 20.4645C44.4347 20.8072 44.549 21.1024 44.7775 21.3499C45.025 21.5975 45.4154 21.8165 45.9486 22.0069C46.4817 22.1973 46.9483 22.3497 47.3482 22.4639C47.7671 22.5591 48.3669 22.6829 49.1477 22.8352C52.2896 23.4827 53.8606 24.8823 53.8606 27.0341C53.8606 28.2528 53.3465 29.2715 52.3182 30.0903C51.2899 30.9092 49.8522 31.3186 48.0051 31.3186C45.682 31.3186 43.892 30.5378 42.6352 28.9764C42.102 28.2908 41.7021 27.5006 41.4355 26.6056Z" fill="#1F1F1F"/>
<path d="M54.2824 18.8935V16.7512H56.139V13.6093H58.4241V16.7512H62.9942V18.8935H58.4241V28.8907H63.137V31.0329H56.139V18.8935H54.2824Z" fill="#1F1F1F"/>
<path d="M65.7144 29.2049C64.3815 27.7767 63.715 26.0058 63.715 23.8921C63.715 21.7784 64.3815 20.017 65.7144 18.6079C67.0474 17.1797 68.666 16.4656 70.5702 16.4656C71.7698 16.4656 72.7791 16.6941 73.5979 17.1511C74.4357 17.6081 75.0451 18.1032 75.426 18.6364L75.683 19.0649H75.7116V16.7512H77.9967V31.0329H75.7116V28.7479H75.683L75.426 29.1477C75.0832 29.6619 74.4929 30.157 73.655 30.633C72.8172 31.0901 71.7889 31.3186 70.5702 31.3186C68.666 31.3186 67.0474 30.614 65.7144 29.2049ZM67.3711 20.0932C66.4571 21.0834 66 22.3497 66 23.8921C66 25.4345 66.4571 26.7008 67.3711 27.691C68.3042 28.6812 69.4657 29.1763 70.8558 29.1763C72.2459 29.1763 73.398 28.6812 74.312 27.691C75.245 26.7008 75.7116 25.4345 75.7116 23.8921C75.7116 22.3497 75.245 21.0834 74.312 20.0932C73.398 19.103 72.2459 18.6079 70.8558 18.6079C69.4657 18.6079 68.3042 19.103 67.3711 20.0932Z" fill="#1F1F1F"/>
<path d="M79.8242 31.0329V16.7512H82.1093V19.0363H82.1379C82.4044 18.5603 82.7282 18.1604 83.109 17.8367C84.0421 17.0178 85.1846 16.7512 86.5366 16.7512H88.0352V18.8935H86.5366C85.2417 18.8935 84.1754 19.3124 83.3375 20.1503C82.5187 20.9691 82.1093 22.0259 82.1093 23.3208V31.0329H79.8242Z" fill="#1F1F1F"/>
<path d="M89.2233 18.8935V16.7512H91.0016V13.6093H93.2867V16.7512H97.8568V18.8935H93.2867V28.8907H97.9996V31.0329H91.0016V18.8935H89.2233Z" fill="#1F1F1F"/>
<path d="M100.232 29.2049C98.8423 27.7957 98.1472 26.0248 98.1472 23.8921C98.1472 21.7594 98.8423 19.9884 100.232 18.5793C101.622 17.1702 103.355 16.4656 105.431 16.4656C107.506 16.4656 109.239 17.1607 110.629 18.5507C112.019 19.9408 112.715 21.6737 112.715 23.7493V24.6062H100.432C100.585 25.9391 101.127 27.0341 102.06 27.891C102.993 28.7479 104.117 29.1763 105.431 29.1763C106.84 29.1763 108.049 28.7479 109.058 27.891C109.515 27.5101 109.877 27.0817 110.144 26.6056H112.429C112.086 27.5006 111.601 28.2908 110.972 28.9764C109.487 30.5378 107.64 31.3186 105.431 31.3186C103.355 31.3186 101.622 30.614 100.232 29.2049ZM100.489 22.6067H110.287C110.115 21.4832 109.592 20.5407 108.716 19.779C107.84 18.9982 106.745 18.6079 105.431 18.6079C104.117 18.6079 103.013 18.9982 102.118 19.779C101.223 20.5407 100.68 21.4832 100.489 22.6067Z" fill="#1F1F1F"/>
<path d="M115.624 29.2049C114.252 27.7957 113.567 26.0248 113.567 23.8921C113.567 21.7594 114.252 19.9884 115.624 18.5793C116.995 17.1702 118.689 16.4656 120.708 16.4656C123.05 16.4656 124.907 17.3035 126.278 18.9792C126.868 19.7218 127.296 20.5502 127.563 21.4642H125.278C125.068 20.9501 124.754 20.474 124.335 20.036C123.421 19.0839 122.212 18.6079 120.708 18.6079C119.318 18.6079 118.156 19.103 117.223 20.0932C116.309 21.0834 115.852 22.3497 115.852 23.8921C115.852 25.4345 116.328 26.7008 117.28 27.691C118.232 28.6812 119.375 29.1763 120.708 29.1763C122.269 29.1763 123.517 28.6526 124.45 27.6053C124.869 27.1674 125.192 26.6437 125.421 26.0343H127.706C127.458 27.0055 127.02 27.891 126.392 28.6907C124.945 30.4426 123.05 31.3186 120.708 31.3186C118.689 31.3186 116.995 30.614 115.624 29.2049Z" fill="#1F1F1F"/>
<path d="M129.146 31.0329V11.0386H131.431V18.8935H131.46C131.746 18.4365 132.117 18.0366 132.574 17.6938C133.621 16.875 134.859 16.4656 136.287 16.4656C138.02 16.4656 139.401 17.0178 140.429 18.1223C141.476 19.2077 142 20.7025 142 22.6067V31.0329H139.715V22.7496C139.715 21.3785 139.372 20.3502 138.686 19.6647C138.001 18.9601 137.058 18.6079 135.859 18.6079C134.545 18.6079 133.478 19.0458 132.66 19.9218C131.841 20.7787 131.431 21.9117 131.431 23.3208V31.0329H129.146Z" fill="#1F1F1F"/>
<mask id="mask0_1304_106" style="mask-type:alpha" maskUnits="userSpaceOnUse" x="41" y="32" width="53" height="13">
<rect x="41.4785" y="32.988" width="51.754" height="11.7051" fill="#D9D9D9"/>
</mask>
<g mask="url(#mask0_1304_106)">
<path d="M82.3867 40.5916H83.6351C83.7428 40.8559 83.8848 41.0762 84.061 41.2525C84.5016 41.6931 85.0695 41.9134 85.7647 41.9134C86.3914 41.9134 86.8516 41.8106 87.1453 41.605C87.4488 41.3993 87.6006 41.135 87.6006 40.8119C87.6006 40.6356 87.5369 40.4839 87.4097 40.3566C87.2922 40.2293 87.0963 40.1167 86.8222 40.0188C86.548 39.9209 86.3032 39.8474 86.0878 39.7985C85.8822 39.7397 85.5787 39.6712 85.1772 39.5928C83.5617 39.2599 82.7539 38.5403 82.7539 37.4339C82.7539 36.8562 82.9987 36.3715 83.4882 35.9799C83.9778 35.5784 84.6632 35.3777 85.5444 35.3777C86.641 35.3777 87.5076 35.7449 88.144 36.4792C88.3986 36.8121 88.5846 37.1793 88.7021 37.5807H87.4537C87.3656 37.3849 87.2383 37.2038 87.0719 37.0373C86.6998 36.6652 86.1906 36.4792 85.5444 36.4792C85.0255 36.4792 84.624 36.5771 84.3401 36.7729C84.0659 36.9688 83.9288 37.1891 83.9288 37.4339C83.9288 37.6101 83.9876 37.7619 84.1051 37.8892C84.2324 38.0164 84.4331 38.129 84.7073 38.227C84.9814 38.3249 85.2213 38.4032 85.4269 38.4619C85.6423 38.5109 85.9508 38.5745 86.3522 38.6529C87.9678 38.9858 88.7755 39.7054 88.7755 40.8119C88.7755 41.4385 88.5112 41.9623 87.9824 42.3834C87.4537 42.8044 86.7145 43.0149 85.7647 43.0149C84.5702 43.0149 83.6498 42.6135 83.0036 41.8106C82.7294 41.4581 82.5238 41.0517 82.3867 40.5916Z" fill="#1F1F1F"/>
<path d="M75.2576 41.9281C74.5722 41.1937 74.2295 40.2831 74.2295 39.1963C74.2295 38.1095 74.5722 37.2038 75.2576 36.4792C75.943 35.7449 76.7752 35.3777 77.7544 35.3777C78.3712 35.3777 78.895 35.4952 79.3259 35.7302C79.7567 35.9652 80.0651 36.2148 80.2511 36.4792L80.3833 36.6995H80.398V32.5872H81.573V42.868H80.398V41.6931H80.3833L80.2511 41.8987C80.0749 42.1631 79.7714 42.4176 79.3406 42.6624C78.9097 42.8974 78.381 43.0149 77.7544 43.0149C76.7752 43.0149 75.943 42.6526 75.2576 41.9281ZM76.1094 37.2429C75.6394 37.7521 75.4044 38.4032 75.4044 39.1963C75.4044 39.9894 75.6394 40.6405 76.1094 41.1497C76.5892 41.6588 77.1865 41.9134 77.9012 41.9134C78.616 41.9134 79.2084 41.6588 79.6784 41.1497C80.1581 40.6405 80.398 39.9894 80.398 39.1963C80.398 38.4032 80.1581 37.7521 79.6784 37.2429C79.2084 36.7338 78.616 36.4792 77.9012 36.4792C77.1865 36.4792 76.5892 36.7338 76.1094 37.2429Z" fill="#1F1F1F"/>
<path d="M69.8262 42.8681V35.5246H71.0011V36.6996H71.0158C71.1529 36.4548 71.3193 36.2492 71.5152 36.0827C71.9949 35.6617 72.5824 35.4512 73.2776 35.4512H74.1588V36.6261H73.2776C72.6118 36.6261 72.0635 36.8415 71.6327 37.2724C71.2116 37.6934 71.0011 38.2368 71.0011 38.9026V42.8681H69.8262Z" fill="#1F1F1F"/>
<path d="M62.1834 41.9281C61.498 41.1937 61.1553 40.2831 61.1553 39.1963C61.1553 38.1095 61.498 37.2038 62.1834 36.4792C62.8688 35.7449 63.701 35.3777 64.6801 35.3777C65.297 35.3777 65.8159 35.4952 66.237 35.7302C66.6678 35.9652 66.9811 36.2197 67.1769 36.4939L67.3091 36.7142H67.3238V35.5246H68.4988V42.868H67.3238V41.6931H67.3091L67.1769 41.8987C67.0007 42.1631 66.6972 42.4176 66.2663 42.6624C65.8355 42.8974 65.3068 43.0149 64.6801 43.0149C63.701 43.0149 62.8688 42.6526 62.1834 41.9281ZM63.0352 37.2429C62.5652 37.7521 62.3302 38.4032 62.3302 39.1963C62.3302 39.9894 62.5652 40.6405 63.0352 41.1497C63.515 41.6588 64.1122 41.9134 64.827 41.9134C65.5418 41.9134 66.1342 41.6588 66.6041 41.1497C67.0839 40.6405 67.3238 39.9894 67.3238 39.1963C67.3238 38.4032 67.0839 37.7521 66.6041 37.2429C66.1342 36.7338 65.5418 36.4792 64.827 36.4792C64.1122 36.4792 63.515 36.7338 63.0352 37.2429Z" fill="#1F1F1F"/>
<path d="M50.3545 35.5247H51.6029L52.9247 41.7666H53.2919L54.5403 35.5247H56.6699L57.9183 41.7666H58.2854L59.6073 35.5247H60.8557L59.2401 42.8681H56.9636L55.7152 36.6262H55.4949L54.2465 42.8681H51.9701L50.3545 35.5247Z" fill="#1F1F1F"/>
<path d="M43.2996 41.9281C42.6142 41.1937 42.2715 40.2831 42.2715 39.1963C42.2715 38.1095 42.6142 37.2038 43.2996 36.4792C43.985 35.7449 44.8172 35.3777 45.7964 35.3777C46.4132 35.3777 46.9321 35.4952 47.3532 35.7302C47.784 35.9652 48.0973 36.2197 48.2931 36.4939L48.4253 36.7142H48.44V35.5246H49.615V42.868H48.44V41.6931H48.4253L48.2931 41.8987C48.1169 42.1631 47.8134 42.4176 47.3825 42.6624C46.9517 42.8974 46.423 43.0149 45.7964 43.0149C44.8172 43.0149 43.985 42.6526 43.2996 41.9281ZM44.1514 37.2429C43.6814 37.7521 43.4464 38.4032 43.4464 39.1963C43.4464 39.9894 43.6814 40.6405 44.1514 41.1497C44.6312 41.6588 45.2285 41.9134 45.9432 41.9134C46.658 41.9134 47.2504 41.6588 47.7203 41.1497C48.2001 40.6405 48.44 39.9894 48.44 39.1963C48.44 38.4032 48.2001 37.7521 47.7203 37.2429C47.2504 36.7338 46.658 36.4792 45.9432 36.4792C45.2285 36.4792 44.6312 36.7338 44.1514 37.2429Z" fill="#1F1F1F"/>
</g>
<path d="M20.4039 32.411C19.9565 32.1669 19.495 32.7217 19.8082 33.1241C21.1994 34.9093 23.0579 36.2672 24.6565 37.8683C27.9945 40.9105 31.3267 43.912 34.4715 47.155C34.7672 47.4599 34.5448 47.9697 34.1207 47.9614C33.9266 47.9572 33.7309 47.9531 33.5343 47.9556C33.451 47.9539 33.3477 47.9056 33.2902 47.8448C31.9023 46.3711 30.4987 44.9116 28.9534 43.6004C26.8816 41.8585 24.7457 40.1925 22.7364 38.3764C20.0048 36.0806 16.9059 33.509 16.3128 29.7836C16.3103 29.7694 16.3086 29.7553 16.307 29.7411C16.1928 28.464 17.6848 27.9617 18.7603 28.5465C20.0182 29.1671 21.2744 29.7936 22.534 30.4109C26.3326 32.2627 30.2846 33.9496 34.4956 34.5827C34.673 34.6094 35.0038 34.6194 35.1046 34.387C35.1987 34.1687 35.2004 33.9588 35.0054 33.783C30.7011 29.9019 24.1426 28.4574 20.4955 23.6632C20.4872 23.6524 20.4797 23.6416 20.4722 23.6299C18.4345 20.5526 20.8762 17.7111 24.3158 18.5483C27.4339 19.1206 30.2729 21.6498 33.4585 21.1C35.0213 20.83 33.9133 19.089 33.2919 18.4484C31.7999 16.7573 30.3387 15.0762 28.8234 13.4101C28.546 13.1069 28.7626 12.6179 29.175 12.6171C29.8306 12.6154 30.4862 12.6296 31.1434 12.6271C31.2326 12.6271 31.3467 12.6754 31.4075 12.7395C33.1619 14.758 35.3586 16.5057 36.4583 18.999C37.3588 20.8675 36.2258 22.8152 34.2774 23.31C30.7286 24.1381 27.2132 21.7489 23.7169 21.1933C23.3153 21.1291 23.0188 21.5648 23.2337 21.9105C24.8465 24.5046 30.617 27.5677 32.8262 29.2271C34.454 30.3142 36.0884 31.393 37.7037 32.4985C38.3443 32.9375 38.9182 33.4656 39.3756 34.1029C40.4802 35.5382 39.5563 37.2985 37.9686 37.7117C37.213 37.9357 36.4391 37.9632 35.6627 37.9033C31.6324 37.5984 27.8154 36.113 24.1942 34.397C22.8563 33.7514 21.7117 33.1449 20.4164 32.4177C20.413 32.4152 20.4089 32.4135 20.4047 32.4118L20.4039 32.411Z" fill="#1F1F1F"/>
</svg>
