<svg width="12" height="12" viewBox="0 0 12 12" fill="none" xmlns="http://www.w3.org/2000/svg">
<path fill-rule="evenodd" clip-rule="evenodd" d="M1.06539 0.647423C1.26065 0.452161 1.57724 0.452161 1.7725 0.647423L6.41895 5.29387L11.0654 0.647423C11.2607 0.452161 11.5772 0.452161 11.7725 0.647423C11.9678 0.842685 11.9678 1.15927 11.7725 1.35453L7.12605 6.00098L11.7725 10.6474C11.9678 10.8427 11.9678 11.1593 11.7725 11.3545C11.5772 11.5498 11.2607 11.5498 11.0654 11.3545L6.41895 6.70808L1.7725 11.3545C1.57724 11.5498 1.26065 11.5498 1.06539 11.3545C0.87013 11.1593 0.87013 10.8427 1.06539 10.6474L5.71184 6.00098L1.06539 1.35453C0.87013 1.15927 0.87013 0.842685 1.06539 0.647423Z" fill="#27262B"/>
</svg>
