<?xml version="1.0" encoding="utf-8"?>
<!-- Generator: Adobe Illustrator 25.3.0, SVG Export Plug-In . SVG Version: 6.00 Build 0)  -->
<svg version="1.1" id="Logo_x5F_Horizontal" xmlns="http://www.w3.org/2000/svg" xmlns:xlink="http://www.w3.org/1999/xlink"
	 x="0px" y="0px" viewBox="0 0 374.7 100" style="enable-background:new 0 0 374.7 100;" xml:space="preserve">
<style type="text/css">
	.st0{fill:#210B39;}
</style>
<path id="Icon" class="st0" d="M100,100V63.3L63.3,100H100z M93.2,93.2H79L93.2,79V93.2z M0,0v36.7L36.7,0H0z M6.8,6.8H21L6.8,21
	V6.8z M60.7,34.5V6.8H48V34l-1,0.2c-1.4,0.3-2.7,0.7-4,1.3l-1.8,0.8V0h25.5L81,14.2l-5,5l-8.5-8.5v17L60.7,34.5z M100,33.2v25.6
	H63.7l0.8-1.8c0.6-1.3,1.1-2.6,1.3-4L66,52h27.2V39.3H65.5l6.8-6.8h17.1L80.8,24l5-5L100,33.2z M57,64.5l1.8-0.8V100H33.2L19,85.8
	l5-5l8.5,8.5v-17l6.8-6.8v27.7H52V66l1-0.2C54.4,65.6,55.8,65.1,57,64.5z M19.2,76l-5,5L0,66.8V41.2h36.3L35.5,43
	c-0.6,1.3-1.1,2.6-1.3,4L34,48H6.8v12.7h27.7l-6.8,6.8H10.7L19.2,76z M59.9,50c0,5.5-4.4,9.9-9.9,9.9c-5.5,0-9.9-4.4-9.9-9.9
	c0-5.5,4.4-9.9,9.9-9.9l0,0C55.5,40.1,59.9,44.5,59.9,50z"/>
<path id="Text" class="st0" d="M173.5,39c2.5-0.9,4.7-2.6,6.2-4.8c1.6-2.2,2.5-4.9,2.5-7.7c0-3.6-1.4-7-4-9.4
	c-2.5-2.6-5.9-4-9.5-3.9h-13.4v13.3v24.8h7.7v-14l9.8,14h9.4L173.5,39z M168.8,32.2H163v-5.7v-5.7h5.8c1.5,0,3,0.6,4.1,1.7
	c1.1,1,1.7,2.5,1.7,4c0,1.5-0.6,3-1.7,4C171.8,31.6,170.3,32.2,168.8,32.2z M193.4,51.3V39.9h5.8c3.6,0,7-1.4,9.5-3.9
	c2.6-2.5,4-5.9,4-9.4c0-3.6-1.4-7-4-9.4c-2.5-2.6-5.9-4-9.5-3.9h-13.5v13.4v24.8h0H193.4z M193.4,26.5v-5.7h5.8
	c3.2,0,5.8,2.5,5.8,5.7c0,1.5-0.6,3-1.7,4c-1.1,1.1-2.5,1.7-4.1,1.7h-5.8V26.5z M133.8,13.1c-5.1-0.1-10,2-13.6,5.6
	c-3.7,3.5-5.7,8.4-5.6,13.5c-0.1,5.1,2,10,5.6,13.5c3.6,3.7,8.5,5.7,13.6,5.6c5.1,0.1,10-2,13.6-5.6c3.7-3.5,5.7-8.4,5.6-13.5
	c0.1-5.1-2-10-5.6-13.5C143.8,15.1,138.9,13.1,133.8,13.1z M142,40.3c-2.1,2.2-5.1,3.4-8.1,3.3c-3.1,0-6-1.2-8.1-3.3
	c-2.2-2.1-3.4-5-3.4-8.1c0-6.3,5.2-11.5,11.5-11.5c3.1,0,6,1.2,8.2,3.4c2.2,2.1,3.4,5,3.4,8.1C145.4,35.3,144.2,38.2,142,40.3z
	 M322.6,51.3c5.1,0.1,10-1.9,13.6-5.6c3.7-3.5,5.7-8.4,5.6-13.5c0.1-5.1-2-10-5.6-13.5c-3.6-3.7-8.5-5.7-13.6-5.6
	c-5.1-0.1-10,2-13.6,5.6c-3.7,3.5-5.7,8.4-5.6,13.5c-0.1,5.1,2,10,5.6,13.5C312.5,49.4,317.5,51.4,322.6,51.3z M322.5,20.8
	L322.5,20.8c3.1,0,6.1,1.2,8.2,3.4c2.2,2.1,3.4,5,3.4,8.1c0,3.1-1.2,6-3.4,8.1c-2.1,2.2-5.1,3.4-8.1,3.3c-3.1,0-6-1.2-8.1-3.3
	c-2.2-2.1-3.5-5-3.4-8.1C311,25.9,316.2,20.8,322.5,20.8z M238.6,51.3h-23.1V13.1h23v7.6h-15.4v7.6h11.5V36h-11.5v7.7h15.4V51.3z
	 M251.7,13.1H269v7.6h-9.6v30.6h-7.7V20.8h-9.6v-7.6H251.7z M280.6,37.3l9.8,14h9.4L291.1,39c2.5-0.9,4.7-2.6,6.2-4.8
	c1.6-2.2,2.5-4.9,2.5-7.7c0-3.6-1.4-7-4-9.4c-2.5-2.6-5.9-4-9.5-3.9h-13.4v13.3v24.8h0h7.7V37.3z M280.6,32.2v-5.7v-5.7h5.7
	c3.2,0,5.7,2.6,5.8,5.7c0,1.5-0.6,3-1.7,4c-1.1,1.1-2.5,1.7-4.1,1.7L280.6,32.2L280.6,32.2z M374.8,13.1v38.2l-23.1-20.9v20.9H344
	V13.1L367,34V13.1H374.8z M139.1,65.9h12.5v4.2h-8.4v4.2h6.3v4.2h-6.3v4.2h8.4v4.2h-12.6L139.1,65.9c-4.2,10.5-7,17.5-8.4,21
	l-3.9-9.8c-1.9,4.9-3.2,8.1-3.8,9.8c-4.2-10.5-7-17.5-8.4-21h4.5l3.9,9.5c1.9-4.7,3.2-7.9,3.9-9.5l3.8,9.5l3.8-9.5H139.1L139.1,65.9
	z M165.5,73.9c-0.5-0.5-1.1-0.8-1.8-1.1c0.1-0.3,0.1-0.6,0.2-0.9c0-0.3,0.1-0.6,0.1-0.8c0-0.7-0.1-1.4-0.4-2
	c-0.5-1.3-1.6-2.3-2.9-2.9c-0.6-0.3-1.3-0.4-2-0.4h-5.2v21h7.3c1,0,1.9-0.2,2.8-0.5c0.9-0.4,1.7-0.9,2.4-1.6
	c1.4-1.3,2.2-3.2,2.2-5.2c0-0.7-0.1-1.5-0.3-2.2C167.4,76,166.6,74.8,165.5,73.9z M157.7,70.1h1c0.1,0,0.2,0,0.3,0
	c0.5,0.1,0.8,0.6,0.8,1.1c0,0.3-0.1,0.6-0.3,0.8c-0.2,0.2-0.5,0.3-0.8,0.3h-1V70.1z M163.8,80.8c-0.2,0.4-0.4,0.7-0.7,1
	c-0.3,0.3-0.6,0.5-1,0.7c-0.4,0.2-0.8,0.2-1.2,0.2h-3.2v-6.3h3.1c0.4,0,0.8,0.1,1.2,0.3c0.4,0.2,0.7,0.4,1,0.7
	c0.3,0.3,0.5,0.6,0.7,1c0.2,0.4,0.2,0.8,0.2,1.2C164,80,163.9,80.4,163.8,80.8z M187.9,69c-1-1-2.1-1.8-3.4-2.3
	c-1.3-0.5-2.6-0.8-4-0.8l-4.2,0v21h4.2c1.4,0,2.7-0.2,4-0.8c3.9-1.7,6.4-5.5,6.5-9.8c0-1.4-0.2-2.7-0.8-4
	C189.6,71.1,188.9,70,187.9,69z M186.2,78.8c-0.3,0.7-0.8,1.4-1.4,2c-0.6,0.6-1.3,1-2,1.4c-0.8,0.3-1.6,0.5-2.4,0.5V70.1
	c0.8,0,1.7,0.1,2.4,0.5c0.7,0.3,1.4,0.8,2,1.4c0.6,0.6,1,1.3,1.4,2c0.3,0.8,0.5,1.6,0.5,2.4C186.7,77.2,186.6,78.1,186.2,78.8z
	 M192.4,65.9H205v4.2h-8.4v4.2h6.3v4.2h-6.3v4.2h8.4v4.2h-12.6V65.9z M211.1,71.4c-0.1,0.3-0.2,0.5-0.1,0.8c0,0.3,0.1,0.7,0.2,1
	c0.2,0.3,0.4,0.5,0.7,0.7c0.3,0.2,0.5,0.3,0.8,0.5c0.2,0.1,0.4,0.2,0.6,0.2l0.4,0.1c0.2,0.1,0.4,0.1,0.8,0.2c0.7,0.2,1.4,0.6,2.1,1
	c0.4,0.2,0.7,0.5,1,0.8c0.3,0.3,0.7,0.6,0.9,1c0.3,0.4,0.5,0.8,0.6,1.3c0.2,0.5,0.2,1,0.2,1.6c0,0.8-0.1,1.7-0.5,2.4
	c-0.3,0.8-0.8,1.4-1.4,2c-0.6,0.6-1.2,1.1-2,1.4c-0.8,0.3-1.6,0.5-2.4,0.5c-0.8,0-1.7-0.1-2.4-0.5c-0.8-0.3-1.4-0.8-2-1.4
	c-0.6-0.6-1.1-1.2-1.4-2c-0.3-0.8-0.5-1.6-0.5-2.4h4.2c0,0.3,0,0.6,0.2,0.8c0.1,0.3,0.3,0.5,0.5,0.7c0.2,0.2,0.4,0.4,0.7,0.5
	c0.3,0.1,0.5,0.2,0.8,0.2c0.3,0,0.6-0.1,0.8-0.2c0.5-0.2,0.9-0.6,1.1-1.1c0.1-0.3,0.2-0.5,0.2-0.8c0-0.4-0.1-0.8-0.3-1.1
	c-0.2-0.3-0.5-0.5-0.8-0.6l-0.9-0.3l-0.5-0.3l-0.4-0.1l-0.8-0.3c-0.3-0.1-0.7-0.3-1-0.4c-0.3-0.2-0.7-0.4-1-0.6
	c-0.4-0.2-0.7-0.5-1-0.8c-0.3-0.3-0.6-0.6-0.9-1c-0.3-0.4-0.5-0.8-0.6-1.3c-0.1-0.5-0.2-1-0.2-1.6c0-0.8,0.2-1.7,0.5-2.4
	c0.3-0.8,0.8-1.4,1.4-2c0.6-0.6,1.3-1,2-1.4c0.8-0.3,1.6-0.5,2.4-0.5c0.8,0,1.6,0.2,2.4,0.5c0.7,0.3,1.4,0.8,2,1.4
	c0.6,0.6,1.1,1.3,1.4,2c0.3,0.8,0.5,1.6,0.5,2.4h-4.2c0-0.3-0.1-0.6-0.2-0.8c-0.1-0.3-0.3-0.5-0.5-0.7c-0.2-0.2-0.4-0.4-0.7-0.5
	c-0.3-0.1-0.5-0.2-0.8-0.2c-0.3,0-0.5,0.1-0.8,0.2c-0.3,0.1-0.5,0.3-0.7,0.5C211.4,71,211.2,71.2,211.1,71.4z M221.1,65.9h4.2v21
	h-4.2V65.9z M248.4,75.3c0,0.3,0.1,0.7,0.1,1.1c0,2.8-1.1,5.5-3.1,7.4c-1,1-2.1,1.8-3.4,2.3c-1.3,0.5-2.6,0.8-4,0.8
	c-1.4,0-2.7-0.2-4-0.8c-2.6-1.1-4.6-3.1-5.7-5.7c-0.5-1.3-0.8-2.6-0.8-4c0-1.4,0.2-2.7,0.8-4c0.5-1.3,1.3-2.4,2.3-3.4
	c1-1,2.1-1.8,3.4-2.3c1.3-0.5,2.6-0.8,4-0.8c0.7,0,1.4,0,2.1,0.2c0.7,0.1,1.4,0.3,2,0.6c0.6,0.3,1.2,0.6,1.8,1
	c0.5,0.4,1,0.8,1.5,1.3l-3,3c-0.6-0.6-1.3-1-2.1-1.4c-0.8-0.3-1.6-0.5-2.4-0.5c-0.8,0-1.7,0.1-2.4,0.5c-0.8,0.3-1.4,0.8-2,1.4
	c-0.6,0.6-1,1.3-1.4,2c-0.3,0.8-0.5,1.6-0.5,2.4c0,0.8,0.1,1.7,0.5,2.4c0.3,0.7,0.8,1.4,1.4,2c0.6,0.6,1.3,1,2,1.4
	c0.8,0.3,1.6,0.5,2.4,0.5c0.7,0,1.3-0.1,1.9-0.3c0.6-0.2,1.2-0.5,1.8-0.9c1-0.8,1.8-1.8,2.3-3H238v-4.2h10.3
	C248.3,74.6,248.4,75,248.4,75.3z M262.3,65.9h4.2v21l-12.6-11.5v11.5h-4.2v-21l12.6,11.5V65.9z M284.4,65.9c-0.1,0.2-0.2,0.5-0.5,1
	c-1.5,3.3-4.5,10-9,20h4.5c0.2-0.5,0.7-1.5,1.3-3l0.1-0.2l7.2,0c0,0,0,0.1,0,0.1l1.3,3h4.5c-1.5-3.3-4.5-10-9-20
	C284.8,66.7,284.6,66.4,284.4,65.9z M282.7,79.5c0.3-0.6,0.8-1.8,1.6-3.7c0.3,0.6,0.8,1.8,1.6,3.7H282.7z M313.9,65.9
	c-4.2,10.5-7,17.5-8.4,21l-3.9-9.8c-1.9,4.9-3.2,8.1-3.8,9.8c-4.2-10.5-7-17.5-8.4-21h4.5l3.8,9.5c1.9-4.7,3.2-7.9,3.9-9.5l3.8,9.5
	l3.8-9.5H313.9z M319.3,65.9c-0.2,0.3-0.3,0.7-0.5,1c-1.5,3.3-4.5,10-9,20h4.5c0.2-0.5,0.7-1.5,1.4-3l0.1-0.2l7.1,0c0,0,0,0.1,0,0.1
	l1.4,3h4.5c-1.5-3.3-4.5-10-9-20C319.6,66.7,319.5,66.4,319.3,65.9z M317.6,79.5c0.3-0.6,0.8-1.8,1.6-3.7c0.3,0.6,0.8,1.8,1.6,3.7
	H317.6z M342.8,77.5c0.4-0.6,0.8-1.3,1-2c0.2-0.7,0.3-1.5,0.3-2.2c0-1-0.2-1.9-0.5-2.8c-0.4-0.9-0.9-1.7-1.6-2.4
	c-0.7-0.7-1.5-1.2-2.4-1.6c-0.9-0.4-1.8-0.5-2.8-0.5h-7.3v14.7c0,1.1,0,3.2,0,6.3l4.2,0v-7.7l5.4,7.7h5.1l-4.7-6.8
	c0.7-0.3,1.3-0.6,1.9-1.1C341.9,78.6,342.4,78.1,342.8,77.5z M339.7,74.5c-0.3,0.8-0.9,1.4-1.7,1.7c-0.4,0.2-0.8,0.2-1.2,0.2h-3.1
	v-6.3h3.1c0.4,0,0.8,0.1,1.2,0.2c0.4,0.2,0.7,0.4,1,0.7c0.3,0.3,0.5,0.6,0.7,1C340,72.8,340,73.7,339.7,74.5z M357.7,69
	c-1-1-2.1-1.8-3.4-2.3c-1.3-0.5-2.6-0.8-4-0.8l-4.1,0v21h4.2c1.4,0,2.7-0.2,4-0.8c1.3-0.5,2.4-1.3,3.4-2.3c2-1.9,3.1-4.6,3.1-7.4
	c0-1.4-0.2-2.7-0.8-4C359.4,71.1,358.6,70,357.7,69z M356.1,78.8c-0.3,0.7-0.8,1.4-1.4,2c-0.6,0.6-1.3,1-2,1.4
	c-0.8,0.3-1.6,0.5-2.4,0.5l0-12.5c0.8,0,1.7,0.1,2.4,0.5c1.5,0.7,2.7,1.9,3.4,3.4c0.3,0.8,0.5,1.6,0.5,2.4
	C356.5,77.2,356.4,78.1,356.1,78.8z M366.5,71.4c-0.1,0.3-0.2,0.5-0.2,0.8c0,0.3,0.1,0.7,0.2,1c0.2,0.3,0.4,0.5,0.7,0.7
	c0.3,0.2,0.6,0.3,0.8,0.5c0.2,0.1,0.4,0.2,0.6,0.2l0.4,0.1c0.2,0.1,0.5,0.1,0.8,0.2c0.7,0.2,1.4,0.6,2.1,1c0.4,0.2,0.7,0.5,1,0.8
	c0.3,0.3,0.7,0.6,0.9,1c0.3,0.4,0.5,0.8,0.6,1.3c0.2,0.5,0.2,1,0.2,1.6c0,1.6-0.6,3.2-1.8,4.3c-0.6,0.6-1.2,1.1-2,1.4
	c-0.8,0.3-1.6,0.5-2.4,0.5c-0.8,0-1.7-0.1-2.4-0.5c-0.8-0.3-1.5-0.8-2.1-1.4c-0.6-0.6-1.1-1.2-1.4-2c-0.3-0.8-0.5-1.6-0.5-2.4h4.2
	c0,0.3,0.1,0.6,0.2,0.8c0.1,0.3,0.3,0.5,0.5,0.7c0.2,0.2,0.4,0.4,0.7,0.5c0.3,0.1,0.5,0.2,0.8,0.2c0.3,0,0.6-0.1,0.8-0.2
	c0.3-0.1,0.5-0.3,0.7-0.5c0.2-0.2,0.4-0.4,0.5-0.7c0.1-0.3,0.2-0.5,0.2-0.8c0-0.4-0.1-0.8-0.3-1.1c-0.2-0.3-0.5-0.5-0.8-0.6
	l-0.9-0.3l-0.5-0.2l-0.4-0.1l-0.8-0.3c-0.3-0.1-0.7-0.3-1-0.4c-0.3-0.2-0.7-0.4-1-0.6c-0.4-0.2-0.7-0.5-1-0.8
	c-0.3-0.3-0.6-0.6-0.9-1c-0.3-0.4-0.5-0.8-0.6-1.3c-0.1-0.5-0.2-1-0.2-1.6c0-0.8,0.1-1.7,0.5-2.4c0.3-0.7,0.8-1.4,1.4-2
	c0.6-0.6,1.3-1,2-1.4c0.8-0.3,1.6-0.5,2.4-0.5c0.8,0,1.6,0.2,2.4,0.5c0.7,0.3,1.4,0.8,2,1.4c0.6,0.6,1.1,1.3,1.4,2
	c0.3,0.8,0.5,1.6,0.5,2.4h-4.2c0-0.3-0.1-0.6-0.2-0.8c-0.2-0.5-0.6-0.9-1.1-1.1c-0.3-0.1-0.5-0.2-0.8-0.2c-0.3,0-0.6,0.1-0.8,0.2
	C367.1,70.5,366.7,70.9,366.5,71.4z"/>
</svg>
