<svg width="25" height="25" viewBox="0 0 25 25" fill="none" xmlns="http://www.w3.org/2000/svg">
<g clip-path="url(#clip0_2867_8414)">
<path d="M12.692 0C6.065 0 0.692 5.373 0.692 12C0.692 14.333 1.369 16.504 2.521 18.347L0 24.763L6.444 22.23C8.266 23.346 10.4 24 12.692 24C19.319 24 24.692 18.627 24.692 12C24.692 5.373 19.32 0 12.692 0ZM12.692 22C10.864 22 9.065 21.49 7.488 20.525L6.639 20.005L3.539 21.223L4.75 18.141L4.216 17.287C3.22 15.691 2.692 13.863 2.692 12C2.692 6.486 7.178 2 12.692 2C18.206 2 22.692 6.486 22.692 12C22.692 17.514 18.207 22 12.692 22Z" fill="white"/>
<path d="M9.99983 14.6935C11.3678 16.0615 14.5228 18.0515 16.2788 17.5175C18.0348 16.9835 18.2978 16.0425 18.2978 16.0425L18.2588 14.5865L15.3958 13.5865C15.3958 13.5865 14.7588 13.6415 13.8918 14.6635C12.7268 14.5085 11.4788 13.2145 11.4788 13.2145C11.4788 13.2145 10.1848 11.9655 10.0298 10.8015C11.0518 9.93453 11.1068 9.29753 11.1068 9.29753L10.1068 6.43453L8.65083 6.39453C8.65083 6.39453 7.70983 6.65653 7.17583 8.41353C6.64183 10.1705 8.63083 13.3245 9.99983 14.6935Z" fill="white"/>
</g>
<defs>
<clipPath id="clip0_2867_8414">
<rect width="24.692" height="24.763" fill="white"/>
</clipPath>
</defs>
</svg>
