<svg width="221" height="222" viewBox="0 0 221 222" fill="none" xmlns="http://www.w3.org/2000/svg">
<g clip-path="url(#clip0_5889_6170)">
<path d="M214.78 95.2276L207.85 87.7609C203.319 82.8831 201.204 76.0953 202.104 69.3706L203.493 59.0941C205.087 47.3337 197.447 36.3784 186.208 34.3263L176.389 32.5267C169.964 31.3586 164.423 27.1596 161.361 21.161L156.688 11.9895C151.337 1.50777 138.977 -2.69123 128.732 2.53384L119.781 7.09592C113.925 10.0794 107.074 10.0794 101.202 7.09592L92.2512 2.53384C82.0062 -2.67544 69.6302 1.50777 64.2789 11.9895L59.6063 21.161C56.5439 27.1596 51.0031 31.3586 44.5783 32.5267L34.7596 34.3263C23.5202 36.3784 15.8799 47.3337 17.4742 59.0941L18.8634 69.3706C19.779 76.0953 17.6637 82.8831 13.1174 87.7609L6.18746 95.2276C-1.73697 103.768 -1.73697 117.312 6.18746 125.836L13.1174 133.303C17.6479 138.181 19.7632 144.968 18.8634 151.693L17.4742 161.97C15.8799 173.73 23.5202 184.685 34.7596 186.737L44.5783 188.537C51.0031 189.705 56.5439 193.904 59.6063 199.903L64.2789 209.074C69.6302 219.556 81.9905 223.755 92.2512 218.53L101.202 213.968C107.058 210.984 113.909 210.984 119.781 213.968L128.732 218.53C138.977 223.739 151.353 219.556 156.688 209.074L161.361 199.903C164.423 193.904 169.964 189.705 176.389 188.537L186.208 186.737C197.447 184.685 205.087 173.73 203.493 161.97L202.104 151.693C201.188 144.968 203.304 138.181 207.85 133.303L214.78 125.836C222.704 117.296 222.704 103.752 214.78 95.2276ZM34.9806 175.53C30.829 175.53 27.4666 172.025 27.4666 167.7C27.4666 163.375 30.829 159.87 34.9806 159.87C39.1322 159.87 42.4946 163.375 42.4946 167.7C42.4946 172.025 39.1322 175.53 34.9806 175.53Z" fill="#E4C655"/>
<path d="M92.1104 117.491C91.3527 118.328 90.2635 118.991 88.8112 119.496C87.3589 120.001 85.7804 120.254 84.0439 120.254C81.3919 120.254 79.2609 119.448 77.6823 117.838C76.0879 116.228 75.2513 113.987 75.125 111.114V109.377C75.125 107.404 75.4565 105.668 76.1669 104.184C76.8772 102.7 77.8875 101.563 79.1977 100.774C80.5079 99.9847 82.0391 99.5742 83.7598 99.5742C86.2855 99.5742 88.2429 100.143 89.6479 101.295C91.0528 102.447 91.8579 104.152 92.0946 106.425H87.3905C87.2169 105.304 86.8538 104.499 86.3013 104.026C85.7488 103.552 84.9595 103.3 83.9334 103.3C82.7021 103.3 81.755 103.821 81.092 104.847C80.429 105.873 80.0817 107.357 80.0817 109.267V110.482C80.0817 112.487 80.429 114.002 81.1236 115.013C81.8181 116.023 82.9074 116.528 84.3912 116.528C85.6699 116.528 86.617 116.244 87.2326 115.691V112.566H83.8387V109.235H92.1262V117.491H92.1104Z" fill="white"/>
<path d="M112.128 110.348C112.128 112.305 111.765 114.042 111.023 115.557C110.297 117.072 109.255 118.225 107.897 119.046C106.54 119.867 105.009 120.261 103.272 120.261C101.536 120.261 100.02 119.867 98.6786 119.077C97.3369 118.288 96.295 117.167 95.5531 115.699C94.8111 114.231 94.4165 112.558 94.3691 110.663V109.527C94.3691 107.554 94.7322 105.817 95.4584 104.318C96.1845 102.818 97.2264 101.65 98.5997 100.829C99.9573 100.008 101.504 99.5977 103.241 99.5977C104.977 99.5977 106.493 100.008 107.834 100.813C109.176 101.618 110.234 102.771 110.976 104.27C111.718 105.77 112.096 107.475 112.112 109.416V110.348H112.128ZM107.156 109.495C107.156 107.491 106.824 105.975 106.145 104.949C105.466 103.907 104.504 103.402 103.257 103.402C100.81 103.402 99.5153 105.233 99.3732 108.88V110.364C99.3732 112.337 99.6889 113.852 100.352 114.91C101.015 115.967 101.994 116.504 103.288 116.504C104.583 116.504 105.482 115.983 106.145 114.941C106.808 113.9 107.156 112.4 107.156 110.458V109.527V109.495Z" fill="white"/>
<path d="M119.546 116.237H128.054V119.963H114.652V99.8516H119.546V116.237Z" fill="white"/>
<path d="M130.123 119.963V99.8516H136.658C138.442 99.8516 140.068 100.262 141.489 101.067C142.925 101.872 144.03 103.009 144.835 104.477C145.641 105.945 146.051 107.587 146.051 109.418V110.349C146.051 112.196 145.656 113.838 144.867 115.306C144.078 116.774 142.973 117.91 141.552 118.731C140.131 119.552 138.537 119.978 136.785 119.978H130.107L130.123 119.963ZM135.001 103.593V116.237H136.706C138.111 116.237 139.184 115.748 139.942 114.753C140.7 113.759 141.063 112.291 141.063 110.333V109.465C141.063 107.523 140.684 106.055 139.942 105.077C139.184 104.098 138.095 103.593 136.658 103.593H135.017H135.001Z" fill="white"/>
<path d="M54.8396 63.1572L52.8348 65.8566L60.1593 71.3184L58.5492 73.4969L51.2246 68.035L49.2514 70.687L47.5781 69.4399L53.1821 61.9102L54.8553 63.1572H54.8396Z" fill="white"/>
<path d="M65.069 62.7603L62.4486 65.3965L63.4747 67.3381L61.4383 69.3903L56.3711 58.5613L58.1707 56.7617L69.0628 61.7342L67.0107 63.8021L65.0532 62.7919L65.069 62.7603ZM61.4225 63.4549L63.1274 61.75L59.5125 59.8715L61.4225 63.4706V63.4549Z" fill="white"/>
<path d="M76.0389 54.9911C75.9757 55.6068 75.7074 56.2698 75.218 56.9643C74.7287 57.6589 74.0972 58.2903 73.3237 58.8586C72.1398 59.7268 70.9243 60.0425 69.6772 59.8373C68.4302 59.6321 67.3252 58.8902 66.3307 57.6273L65.7624 56.838C65.1152 55.9383 64.7047 55.0385 64.5469 54.1545C64.3732 53.2547 64.468 52.418 64.7837 51.6288C65.0994 50.8395 65.6677 50.1765 66.4412 49.6082C67.5777 48.7873 68.6354 48.4085 69.6457 48.4716C70.656 48.5348 71.5715 49.0399 72.424 50.0028L70.3087 51.534C69.8667 51.0762 69.4405 50.8395 69.03 50.7921C68.6196 50.7605 68.1934 50.9026 67.7356 51.2341C67.1831 51.6288 66.9305 52.1655 66.9621 52.86C66.9937 53.5388 67.3252 54.3281 67.9566 55.1963L68.3512 55.7488C69.0142 56.6486 69.6615 57.2327 70.2929 57.4537C70.9401 57.6905 71.5873 57.5642 72.2503 57.0748C72.8186 56.6644 73.1501 56.2224 73.2448 55.7646L72.2187 54.3597L70.7033 55.4647L69.6141 53.965L73.3395 51.2815L76.0389 55.0227V54.9911Z" fill="white"/>
<path d="M79.2921 52.5082L83.4753 50.3298L84.4383 52.1767L77.8556 55.6022L72.6621 45.6572L75.0615 44.4102L79.2921 52.5082Z" fill="white"/>
<path d="M87.9762 50.8248L85.4663 51.8193L81.2988 41.4008L83.8088 40.4062L87.9762 50.8248Z" fill="white"/>
<path d="M98.411 47.7199L95.8064 48.4145L90.1551 42.7001L91.9705 49.4406L89.35 50.1509L86.4297 39.3062L89.0501 38.5958L94.7014 44.3102L92.886 37.5697L95.4907 36.8594L98.411 47.7042V47.7199Z" fill="white"/>
<path d="M106.113 42.0192L101.883 42.5085L102.183 45.1763L107.171 44.608L107.408 46.676L99.72 47.56L98.4414 36.4153L106.145 35.5312L106.382 37.615L101.378 38.1833L101.646 40.5353L105.876 40.046L106.097 42.035L106.113 42.0192Z" fill="white"/>
<path d="M118.441 45.0956L114.747 44.7483L113.91 46.7689L111.037 46.5006L116.183 35.7031L118.725 35.9399L121.803 47.5108L118.914 47.2425L118.456 45.0956H118.441ZM115.599 42.7278L117.999 42.9488L117.162 38.955L115.599 42.712V42.7278Z" fill="white"/>
<path d="M131.322 45.7786L134.464 39.338L137.052 40.0641L131.733 50.2302L129.033 49.4724L129.302 42.9056L126.16 48.6674L123.461 47.9096L124.187 36.4492L126.776 37.1754L126.113 44.2947L129.491 37.9331L131.701 38.5487L131.306 45.747L131.322 45.7786Z" fill="white"/>
<path d="M140.84 52.031L137.493 50.4208L135.993 52.031L133.389 50.7681L141.992 42.4648L144.281 43.5698L143.113 55.4881L140.492 54.2252L140.824 52.0468L140.84 52.031ZM138.993 48.8265L141.171 49.8841L141.771 45.8588L138.993 48.8423V48.8265Z" fill="white"/>
<path d="M149.126 54.8624L147.927 54.0257L145.654 57.2776L143.428 55.7306L149.837 46.5117L153.467 49.0374C154.557 49.7951 155.251 50.6318 155.52 51.5474C155.804 52.4629 155.63 53.3627 155.014 54.2467C154.572 54.8939 154.067 55.3359 153.515 55.5727C152.962 55.8095 152.315 55.8726 151.589 55.7464L150.926 60.7978L150.863 60.8925L148.479 59.235L149.126 54.8466V54.8624ZM149.111 52.3209L150.516 53.2996C150.942 53.5995 151.336 53.6942 151.699 53.6311C152.063 53.5521 152.394 53.3154 152.662 52.9207C152.931 52.5261 153.041 52.1314 152.994 51.7526C152.947 51.3737 152.694 51.0422 152.284 50.7581L150.879 49.7794L149.111 52.3209Z" fill="white"/>
<path d="M151.496 61.4771L159.247 53.3633L161.867 55.8574C162.594 56.5362 163.067 57.3255 163.336 58.1937C163.604 59.0619 163.604 59.9459 163.367 60.8457C163.115 61.7455 162.641 62.5664 161.946 63.3083L161.583 63.6871C160.873 64.4291 160.084 64.95 159.2 65.2341C158.316 65.5183 157.432 65.5656 156.548 65.3446C155.664 65.1394 154.859 64.6974 154.148 64.0186L151.48 61.4614L151.496 61.4771ZM159.768 56.7414L154.89 61.8402L155.569 62.4874C156.137 63.0241 156.753 63.2294 157.432 63.1189C158.11 63.0084 158.837 62.5506 159.579 61.7613L159.91 61.414C160.668 60.6247 161.078 59.8986 161.157 59.204C161.236 58.5252 160.983 57.8938 160.415 57.3571L159.752 56.7256L159.768 56.7414Z" fill="white"/>
<path d="M164.378 71.0541C164.694 70.8173 164.852 70.5174 164.852 70.1543C164.852 69.7912 164.741 69.2703 164.488 68.56C164.236 67.8496 164.078 67.2655 163.968 66.7762C163.636 65.1818 163.968 64.0137 164.962 63.256C165.451 62.8771 166.004 62.6877 166.604 62.6719C167.204 62.6719 167.803 62.8455 168.419 63.2086C169.035 63.5717 169.587 64.0768 170.108 64.7398C170.598 65.3712 170.929 66.0342 171.087 66.713C171.245 67.3918 171.229 68.039 171.024 68.6389C170.819 69.2387 170.44 69.7597 169.903 70.1701L168.245 68.039C168.609 67.7549 168.798 67.4392 168.83 67.0603C168.861 66.6814 168.719 66.3026 168.435 65.9237C168.135 65.5449 167.819 65.3081 167.488 65.2134C167.14 65.1187 166.841 65.1818 166.588 65.3712C166.367 65.5449 166.256 65.829 166.256 66.2237C166.256 66.6183 166.399 67.1866 166.683 67.9601C166.967 68.7336 167.14 69.3966 167.219 69.9649C167.409 71.354 167.014 72.4274 166.051 73.1694C165.278 73.7692 164.441 73.9429 163.541 73.7061C162.642 73.4693 161.805 72.8379 161.016 71.8118C160.463 71.0857 160.084 70.3437 159.895 69.5544C159.705 68.7652 159.721 68.0548 159.942 67.4076C160.163 66.7604 160.574 66.2237 161.158 65.7659L162.815 67.9127C162.342 68.2758 162.089 68.6705 162.042 69.0967C162.01 69.5229 162.2 69.9964 162.626 70.5489C162.894 70.8962 163.194 71.1172 163.51 71.212C163.825 71.2909 164.11 71.2435 164.394 71.0225L164.378 71.0541Z" fill="white"/>
<path d="M99.3867 184.805L91.7148 183.242L92.0463 181.585L96.3401 178.585C97.4135 177.764 98.0133 177.07 98.1238 176.486C98.2186 176.012 98.187 175.633 98.0291 175.349C97.8713 175.065 97.6029 174.876 97.2083 174.797C96.8136 174.718 96.4663 174.813 96.1664 175.097C95.8507 175.381 95.6455 175.76 95.5508 176.265L92.9935 175.744C93.1356 175.065 93.4355 174.481 93.8775 173.976C94.3353 173.471 94.8878 173.123 95.5508 172.918C96.2138 172.713 96.9241 172.697 97.6503 172.839C98.8342 173.076 99.7024 173.55 100.223 174.228C100.744 174.907 100.918 175.76 100.697 176.786C100.602 177.228 100.444 177.622 100.192 178.001C99.9392 178.38 99.6077 178.759 99.1815 179.138C98.7553 179.517 98.0765 180.006 97.1767 180.606L95.4245 181.963L99.7498 182.847L99.3551 184.805H99.3867Z" fill="white"/>
<path d="M110.104 181.055C110.009 182.571 109.599 183.723 108.873 184.497C108.147 185.27 107.152 185.633 105.921 185.554C104.674 185.475 103.742 185.002 103.095 184.134C102.464 183.265 102.195 182.081 102.29 180.582L102.416 178.53C102.511 177.014 102.921 175.862 103.648 175.088C104.374 174.315 105.368 173.968 106.6 174.031C107.847 174.11 108.778 174.583 109.409 175.451C110.041 176.32 110.309 177.504 110.214 179.019L110.088 181.055H110.104ZM107.657 178.514C107.705 177.709 107.641 177.093 107.452 176.683C107.263 176.272 106.947 176.051 106.489 176.02C106.047 175.988 105.7 176.162 105.479 176.509C105.258 176.856 105.116 177.425 105.053 178.167L104.879 181.024C104.832 181.86 104.895 182.476 105.084 182.871C105.274 183.265 105.589 183.486 106.047 183.518C106.489 183.55 106.821 183.376 107.057 183.013C107.294 182.65 107.436 182.066 107.484 181.261L107.657 178.482V178.514Z" fill="white"/>
<path d="M120.319 184.986L112.505 185.618L112.379 183.929L115.678 179.856C116.483 178.783 116.862 177.946 116.815 177.346C116.783 176.857 116.641 176.509 116.404 176.273C116.168 176.036 115.868 175.941 115.457 175.973C115.063 176.004 114.763 176.194 114.542 176.557C114.321 176.904 114.226 177.346 114.273 177.835L111.669 178.041C111.621 177.346 111.732 176.699 112.032 176.099C112.332 175.483 112.774 174.994 113.358 174.615C113.942 174.236 114.605 174.015 115.363 173.952C116.578 173.857 117.525 174.063 118.22 174.568C118.914 175.073 119.309 175.846 119.388 176.888C119.42 177.33 119.388 177.756 119.246 178.198C119.12 178.625 118.899 179.082 118.583 179.572C118.267 180.061 117.762 180.708 117.052 181.545L115.741 183.329L120.146 182.982L120.304 184.986H120.319Z" fill="white"/>
<path d="M128.671 178.814L129.792 178.561L130.234 180.519L129.113 180.771L129.634 183.092L127.092 183.66L126.571 181.34L122.341 182.287L121.852 180.771L124.661 172.736L127.203 172.152L128.687 178.83L128.671 178.814ZM124.156 179.808L126.129 179.366L125.372 176.004L125.277 176.288L124.156 179.808Z" fill="white"/>
<mask id="mask0_5889_6170" style="mask-type:luminance" maskUnits="userSpaceOnUse" x="13" y="80" width="74" height="103">
<path d="M71.8077 182.391L86.8199 176.077L82.0684 163.448L76.5434 105.104L51.3968 87.2666L44.5931 89.8396L39.2733 80.6523L13.3848 124.758L71.8077 182.391Z" fill="white"/>
</mask>
<g mask="url(#mask0_5889_6170)">
<path fill-rule="evenodd" clip-rule="evenodd" d="M139.326 47.4827C138.126 49.6453 133.296 50.1663 130.013 49.377C131.654 47.8931 135.19 46.4724 138.221 47.2143L139.31 47.4827L138.347 46.8986C135.68 45.2885 134.212 41.7998 134.117 39.5898C136.99 41.3263 140.021 45.1148 139.31 47.4827H139.326ZM110.565 178.252C111.591 178.252 112.427 179.072 112.427 180.098C112.427 181.125 111.591 181.945 110.565 181.945C109.538 181.945 108.702 181.125 108.702 180.098C108.702 179.072 109.538 178.252 110.565 178.252ZM135.19 45.5726L134.338 44.8465C131.986 42.8101 128.181 42.4628 126.035 43.0469C128.576 45.2411 133.122 46.9618 135.174 45.5884L135.19 45.5726ZM86.2072 45.5884C88.2751 46.9618 92.8056 45.2411 95.3471 43.0469C93.2002 42.4786 89.4117 42.8259 87.0438 44.8623L86.1914 45.5884H86.2072ZM105.781 180.13C105.213 182.529 100.698 184.329 97.3203 184.424C98.5042 182.561 101.519 180.256 104.645 180.162L105.766 180.13C105.813 177.667 101.882 174.826 98.6305 173.91C99.3093 176.01 101.677 178.978 104.692 179.814L105.781 180.114V180.13ZM98.7568 179.199C99.041 176.752 95.426 173.532 92.2847 172.3C92.7582 174.463 94.7946 177.636 97.715 178.788L98.7568 179.199L97.636 179.12C94.5105 178.899 91.2744 180.888 89.9168 182.624C93.2792 182.861 97.9517 181.535 98.7726 179.199H98.7568ZM91.8743 177.573C90.8324 179.814 86.0493 180.667 82.7185 180.098C84.2498 178.504 87.6752 176.847 90.7692 177.383L91.8743 177.573C92.411 175.158 89.1275 171.606 86.144 170.059C86.3966 172.253 88.1015 175.631 90.8797 177.052L91.8743 177.573ZM85.1811 175.268C85.9546 172.916 83.0658 169.064 80.2402 167.233C80.2718 169.443 81.6293 172.963 84.2497 174.668L85.1969 175.284L84.1077 174.984C81.0926 174.147 77.525 175.457 75.836 176.894C79.0878 177.794 83.934 177.415 85.1969 175.3L85.1811 175.268ZM78.7563 172.316C77.2725 174.305 72.4263 174.195 69.2849 172.979C71.116 171.716 74.8099 170.785 77.7145 171.906L78.7563 172.316C79.7666 170.059 77.2725 165.923 74.652 163.823C74.4468 166.018 75.4413 169.664 77.8881 171.622L78.7563 172.316ZM72.6788 168.717C73.9101 166.57 71.858 162.213 69.4585 159.861C69.0323 162.024 69.6638 165.749 71.8738 167.943L72.6788 168.733L71.6843 168.228C68.906 166.807 65.1333 167.375 63.1916 168.449C66.1909 169.98 71.0055 170.564 72.6788 168.733V168.717ZM66.9802 164.55C65.1333 166.207 60.3975 165.134 57.5719 163.318C59.624 162.45 63.4126 162.261 66.0488 163.95L66.996 164.55L66.2856 163.681C64.2966 161.282 64.0598 157.509 64.6913 155.41C66.8381 157.998 68.4483 162.545 66.996 164.55H66.9802ZM61.7393 159.814C59.7345 161.282 55.1251 159.735 52.5047 157.635C54.62 156.972 58.4243 157.162 60.8711 159.104L61.7551 159.798C63.3968 157.951 62.2603 153.263 60.3975 150.469C59.5451 152.505 59.403 156.278 61.1395 158.867L61.7709 159.798L61.7393 159.814ZM57.0036 154.589C54.8568 155.836 50.4368 153.847 48.0373 151.511C50.2158 151.069 53.9728 151.637 56.2143 153.815L57.0194 154.605C58.8505 152.931 58.1875 148.148 56.609 145.196C55.5513 147.138 55.0304 150.879 56.4985 153.626L57.0194 154.62L57.0036 154.589ZM52.8362 148.922C50.5788 149.948 46.3798 147.533 44.2172 144.959C46.4272 144.738 50.121 145.686 52.11 148.069L52.8204 148.922L52.3942 147.896C51.2103 145.023 52.1258 141.345 53.3729 139.513C54.6515 142.623 54.8094 147.438 52.8204 148.922H52.8362ZM49.2528 142.86L48.9371 141.787C48.0531 138.803 49.3318 135.251 50.7525 133.546C51.6996 136.767 51.3839 141.566 49.2528 142.86L48.6214 141.929C46.885 139.356 43.3016 138.045 41.0758 138.045C42.9543 140.824 46.885 143.649 49.237 142.86H49.2528ZM46.3009 136.467C43.8857 137.035 40.255 133.815 38.6606 130.863C40.8706 131.084 44.2961 132.741 45.7642 135.472L46.3009 136.451C48.5425 135.393 49.3633 130.642 48.7319 127.343C47.1375 128.89 45.5116 132.299 46.0957 135.362L46.3009 136.451V136.467ZM44.0278 129.821L43.933 128.7C43.6805 125.606 45.6379 122.37 47.3743 120.997C47.6585 124.328 46.364 128.984 44.0278 129.821L43.6015 128.779C42.4176 125.906 39.1815 123.917 37.0031 123.475C38.2818 126.569 41.5652 130.121 44.0278 129.805V129.821ZM42.4334 122.97V121.849C42.5123 118.739 44.7855 115.724 46.664 114.525C46.6008 117.871 44.8486 122.37 42.4334 122.97L42.1177 121.897C41.2337 118.929 38.2186 116.608 36.0875 115.961C37.0505 119.166 39.955 123.033 42.4334 122.97ZM41.5336 115.993C39.0553 115.819 36.5611 111.683 35.9297 108.384C37.9818 109.252 40.7443 111.841 41.3284 114.888L41.5336 115.977C43.9962 115.63 46.1904 111.32 46.6008 108.005C44.6276 109.015 42.0388 111.794 41.6757 114.872L41.5494 115.977L41.5336 115.993ZM41.36 108.968C38.9132 108.542 36.8453 104.185 36.5611 100.838C38.5028 101.896 40.9969 104.753 41.2653 107.847L41.36 108.952C43.8383 108.842 46.4745 104.785 47.2007 101.517C45.1328 102.322 42.2755 104.832 41.5968 107.863L41.36 108.952V108.968ZM41.8967 101.959C39.4973 101.296 37.8871 96.7499 37.9503 93.3876C39.7814 94.6346 41.9598 97.7286 41.9125 100.838V101.959C44.375 102.101 47.4059 98.3285 48.4635 95.1556C46.3167 95.7396 43.2385 97.9654 42.244 100.902L41.8967 101.959ZM43.128 95.0451L43.5858 94.019C44.8644 91.1933 48.1636 89.2991 50.3578 88.9202C48.9845 91.9826 45.5905 95.4397 43.128 95.0451L43.2543 93.9401C43.6173 90.8618 41.7546 87.5626 40.0655 86.1261C39.6709 89.4569 40.8233 94.1295 43.128 95.0451ZM45.0696 88.2888C42.8596 87.1522 42.1966 82.3849 42.9228 79.1015C44.454 80.6959 45.9852 84.1529 45.3064 87.1838L45.0696 88.273C47.469 88.9044 51.1945 85.8104 52.8835 82.9058C50.6578 83.0637 47.1849 84.6107 45.6379 87.3101L45.0696 88.273V88.2888ZM47.69 81.7535C45.6063 80.4117 45.4327 75.5971 46.4903 72.4083C47.8637 74.1448 49.016 77.7439 48.0373 80.6959L47.69 81.7535C50.0105 82.6217 54.0359 79.9223 56.0091 77.1914C53.7833 77.1283 50.1684 78.328 48.353 80.8379L47.69 81.7535ZM50.9577 75.5023C53.1835 76.6073 57.4614 74.3026 59.6872 71.7927C57.4772 71.4928 53.7675 72.3294 51.6996 74.6657L50.9577 75.5023L51.4155 74.4763C52.6783 71.6348 51.9048 67.941 50.7051 66.0783C49.3318 69.1407 49.016 73.9553 50.9577 75.5023ZM54.8252 69.6301C53.0572 67.8936 53.8623 63.1421 55.5355 60.2376C56.53 62.2108 56.9405 65.9678 55.3777 68.6671L54.8252 69.6458L55.646 68.8881C57.935 66.7728 61.7235 66.3151 63.8862 66.836C61.4078 69.1091 56.9247 70.9718 54.8252 69.6458V69.6301ZM59.2925 64.1682L60.1923 63.4894C62.6865 61.6267 66.5066 61.5478 68.6061 62.2739C65.9068 64.2945 61.2658 65.6836 59.3083 64.1682L59.9555 63.2526C61.7709 60.7269 61.7551 56.9541 60.9658 54.8862C59.0084 57.6171 57.714 62.2581 59.3083 64.1682H59.2925ZM64.2808 59.1641C62.8917 57.112 64.6439 52.6131 66.8697 50.1031C67.438 52.2342 67.0749 55.9912 65.0228 58.3275L64.2808 59.1641C66.0804 60.869 70.8477 59.9376 73.7365 58.2012C71.7159 57.2698 67.9273 56.9699 65.2438 58.5801L64.2808 59.1641ZM69.7427 54.6968C68.5745 52.5183 70.7688 48.2246 73.2471 45.9357C73.5944 48.1141 72.8525 51.8238 70.5635 53.9391L69.7427 54.6968L70.753 54.2232C73.5786 52.8814 77.3198 53.5602 79.2299 54.6968C76.1833 56.1333 71.337 56.5911 69.7269 54.6968H69.7427ZM75.6465 50.7977L76.7042 50.4188C79.6561 49.377 83.3026 50.4188 85.0864 51.7291C81.9135 52.8498 77.0515 52.8183 75.6308 50.7819L76.5305 50.1031C79.0247 48.2246 80.1297 44.6097 80.0034 42.4155C77.3198 44.4361 74.6836 48.5088 75.6308 50.7819L75.6465 50.7977ZM81.8977 47.5143C81.1873 45.1464 84.2182 41.3736 87.0912 39.6214C86.9965 41.8314 85.5284 45.3043 82.8448 46.9302L81.8819 47.5143L82.9711 47.2459C86.002 46.504 89.538 47.9089 91.1797 49.3928C87.8963 50.1978 83.0658 49.6769 81.8819 47.5143H81.8977ZM115.332 180.13C115.9 182.529 120.415 184.329 123.777 184.424C122.593 182.561 119.578 180.256 116.453 180.162L115.332 180.13C115.3 177.667 119.231 174.826 122.467 173.91C121.772 176.01 119.42 178.978 116.405 179.83L115.332 180.13ZM122.356 179.183C122.072 176.736 125.687 173.516 128.829 172.285C128.355 174.447 126.303 177.62 123.398 178.772L122.356 179.183L123.477 179.104C126.603 178.883 129.839 180.872 131.196 182.608C127.834 182.845 123.162 181.519 122.356 179.183ZM129.239 177.557L130.234 177.036C133.012 175.615 134.732 172.237 134.969 170.043C131.97 171.59 128.687 175.142 129.223 177.557L130.328 177.368C133.406 176.831 136.832 178.488 138.363 180.083C135.032 180.667 130.249 179.799 129.207 177.557H129.239ZM135.932 175.252C135.159 172.9 138.063 169.033 140.889 167.202C140.857 169.412 139.5 172.932 136.879 174.637L135.932 175.252L137.021 174.952C140.036 174.116 143.604 175.41 145.293 176.847C142.041 177.746 137.195 177.383 135.932 175.252ZM142.357 172.285C143.825 174.274 148.687 174.163 151.828 172.932C149.997 171.669 146.319 170.738 143.399 171.874L142.357 172.285C141.347 170.027 143.841 165.891 146.461 163.792C146.666 165.986 145.656 169.633 143.225 171.59L142.357 172.285ZM148.45 168.685C147.219 166.539 149.271 162.182 151.671 159.814C152.097 161.977 151.465 165.702 149.24 167.896L148.434 168.685L149.429 168.18C152.207 166.76 155.98 167.328 157.922 168.385C154.922 169.917 150.092 170.517 148.434 168.685H148.45ZM154.149 164.502C155.996 166.16 160.732 165.086 163.557 163.255C161.521 162.387 157.716 162.198 155.08 163.887L154.133 164.502L154.843 163.634C156.832 161.235 157.069 157.462 156.438 155.362C154.291 157.951 152.681 162.497 154.133 164.502H154.149ZM159.39 159.782L160.021 158.851C161.758 156.262 161.616 152.489 160.763 150.453C158.885 153.247 157.748 157.92 159.39 159.782L160.274 159.088C162.721 157.146 166.509 156.941 168.64 157.604C166.004 159.703 161.41 161.25 159.406 159.782H159.39ZM164.125 154.541C166.272 155.789 170.692 153.799 173.108 151.447C170.929 151.005 167.156 151.574 164.931 153.752L164.125 154.541C162.31 152.868 162.957 148.085 164.536 145.133C165.594 147.075 166.114 150.816 164.646 153.563L164.125 154.557V154.541ZM168.309 148.874C170.566 149.9 174.765 147.485 176.928 144.896C174.718 144.675 171.024 145.623 169.035 148.006L168.309 148.859L168.735 147.833C169.919 144.96 169.019 141.281 167.772 139.45C166.493 142.56 166.335 147.375 168.309 148.859V148.874ZM171.892 142.813C174.244 143.618 178.175 140.776 180.069 137.998C177.843 137.998 174.276 139.308 172.523 141.881L171.892 142.813C169.761 141.534 169.445 136.719 170.408 133.499C171.829 135.188 173.108 138.756 172.224 141.739L171.908 142.813H171.892ZM174.844 136.419C177.259 136.988 180.89 133.767 182.484 130.815C180.274 131.036 176.849 132.694 175.381 135.441L174.844 136.419C172.602 135.362 171.797 130.61 172.413 127.311C174.007 128.858 175.617 132.268 175.049 135.314L174.844 136.404V136.419ZM177.133 129.758C179.595 130.074 182.879 126.522 184.158 123.412C181.979 123.854 178.743 125.843 177.559 128.716L177.133 129.758C174.797 128.921 173.502 124.28 173.786 120.934C175.523 122.307 177.48 125.543 177.228 128.637L177.133 129.758ZM178.727 122.923C181.221 122.986 184.126 119.118 185.089 115.914C182.958 116.577 179.943 118.882 179.059 121.849L178.743 122.923C176.328 122.323 174.576 117.824 174.528 114.477C176.391 115.677 178.68 118.692 178.727 121.802V122.923ZM179.627 115.945C182.105 115.772 184.6 111.636 185.231 108.337C183.179 109.205 180.416 111.794 179.832 114.856L179.627 115.945C177.164 115.598 174.97 111.304 174.576 107.974C176.549 108.968 179.138 111.762 179.501 114.84L179.627 115.945ZM179.816 108.921L179.58 107.831C178.901 104.801 176.059 102.291 173.992 101.486C174.718 104.753 177.338 108.81 179.832 108.921L179.927 107.816C180.195 104.722 182.689 101.864 184.647 100.791C184.347 104.122 182.279 108.494 179.832 108.921H179.816ZM179.28 101.912C181.679 101.233 183.289 96.6868 183.242 93.3402C181.411 94.5873 179.217 97.6813 179.264 100.791V101.912C176.801 102.054 173.771 98.2811 172.713 95.1082C174.86 95.6923 177.938 97.9023 178.917 100.854L179.264 101.912H179.28ZM178.048 94.9977C180.369 94.0979 181.506 89.4096 181.127 86.0788C179.438 87.5153 177.575 90.7987 177.922 93.8927L178.048 94.9977C175.586 95.3924 172.208 91.9353 170.834 88.8886C173.029 89.2675 176.328 91.146 177.591 93.9874L178.048 95.0135V94.9977ZM176.123 88.2256C178.333 87.0891 178.996 82.3218 178.269 79.0383C176.722 80.6327 175.207 84.1056 175.87 87.1364L176.107 88.2256C173.707 88.8571 169.982 85.7631 168.309 82.8585C170.534 83.0006 173.992 84.5634 175.554 87.2469L176.107 88.2098L176.123 88.2256ZM173.518 81.7061L172.871 80.7906C171.055 78.2649 167.44 77.0651 165.215 77.1441C167.188 79.8592 171.197 82.5743 173.518 81.7061L173.171 80.6485C172.192 77.6966 173.36 74.0974 174.733 72.361C175.775 75.5497 175.602 80.3643 173.518 81.7061ZM170.25 75.455C168.025 76.56 163.747 74.2711 161.521 71.7611C163.731 71.4612 167.44 72.2979 169.508 74.6184L170.25 75.455L169.793 74.4289C168.53 71.5875 169.319 67.8936 170.503 66.0309C171.876 69.0933 172.192 73.908 170.25 75.455ZM166.383 69.5827C168.151 67.8463 167.346 63.0948 165.672 60.1902C164.678 62.1634 164.268 65.9204 165.815 68.6198L166.367 69.5985L165.546 68.8408C163.257 66.7413 159.469 66.2835 157.306 66.7886C159.784 69.0618 164.268 70.9087 166.367 69.5985L166.383 69.5827ZM161.915 64.1208L161.016 63.4421C158.522 61.5793 154.717 61.5004 152.602 62.2266C155.301 64.2471 159.942 65.6363 161.9 64.1208L161.252 63.2053C159.437 60.6796 159.469 56.9068 160.258 54.8388C162.215 57.5698 163.494 62.2108 161.915 64.1208ZM156.943 59.1326C158.332 57.0804 156.58 52.5815 154.354 50.0716C153.786 52.2026 154.133 55.9596 156.201 58.2959L156.943 59.1326C155.143 60.8374 150.376 59.9219 147.503 58.1854C149.524 57.2541 153.312 56.9541 155.996 58.5485L156.959 59.1326H156.943ZM151.465 54.6652C152.633 52.4868 150.439 48.1931 147.977 45.9041C147.629 48.0826 148.356 51.7922 150.644 53.9075L151.465 54.6652L150.455 54.1916C147.629 52.8656 143.888 53.5444 141.978 54.6652C145.025 56.1017 149.855 56.5437 151.481 54.6652H151.465ZM145.577 50.7661C146.524 48.4772 143.904 44.4203 141.22 42.3997C141.094 44.6097 142.199 48.2088 144.693 50.0873L145.593 50.7661C144.172 52.8025 139.326 52.8341 136.137 51.7133C137.921 50.4031 141.583 49.3454 144.535 50.3873L145.593 50.7661H145.577Z" fill="white"/>
</g>
<mask id="mask1_5889_6170" style="mask-type:luminance" maskUnits="userSpaceOnUse" x="134" y="70" width="60" height="113">
<path d="M135.77 96.4193L167.42 85.7797L176.608 89.8366L193.467 70.1992L190.247 112.915L177.602 157.131L145.242 182.388L134.176 176.074L138.927 161.867L135.77 96.4193Z" fill="white"/>
</mask>
<g mask="url(#mask1_5889_6170)">
<path fill-rule="evenodd" clip-rule="evenodd" d="M139.324 47.4944C138.124 49.6571 133.294 50.178 130.011 49.3887C131.652 47.9049 135.188 46.4841 138.219 47.2261L139.308 47.4944L138.345 46.9104C135.678 45.3002 134.21 41.8116 134.115 39.6016C136.988 41.338 140.019 45.1266 139.308 47.4944H139.324ZM110.563 178.263C111.589 178.263 112.425 179.084 112.425 180.11C112.425 181.136 111.589 181.957 110.563 181.957C109.537 181.957 108.7 181.136 108.7 180.11C108.7 179.084 109.537 178.263 110.563 178.263ZM135.188 45.5844L134.336 44.8582C131.984 42.8218 128.179 42.4746 126.033 43.0586C128.574 45.2528 133.12 46.9735 135.173 45.6001L135.188 45.5844ZM86.2052 45.6001C88.2732 46.9735 92.8037 45.2528 95.3452 43.0586C93.1983 42.4903 89.4097 42.8376 87.0419 44.874L86.1894 45.6001H86.2052ZM105.78 180.142C105.211 182.541 100.697 184.341 97.3184 184.436C98.5023 182.573 101.517 180.268 104.643 180.173L105.764 180.142C105.811 177.679 101.88 174.838 98.6286 173.922C99.3074 176.022 101.675 178.989 104.69 179.826L105.78 180.126V180.142ZM98.7549 179.21C99.039 176.764 95.4241 173.543 92.2827 172.312C92.7563 174.475 94.7927 177.648 97.713 178.8L98.7549 179.21L97.6341 179.132C94.5085 178.911 91.2724 180.9 89.9149 182.636C93.2772 182.873 97.9498 181.547 98.7706 179.21H98.7549ZM91.8723 177.585C90.8304 179.826 86.0474 180.678 82.7166 180.11C84.2478 178.516 87.6733 176.858 90.7673 177.395L91.8723 177.585C92.409 175.169 89.1256 171.617 86.1421 170.07C86.3947 172.265 88.0995 175.643 90.8778 177.064L91.8723 177.585ZM85.1792 175.28C85.9527 172.928 83.0639 169.076 80.2382 167.245C80.2698 169.455 81.6274 172.975 84.2478 174.68L85.1949 175.296L84.1057 174.996C81.0907 174.159 77.5231 175.469 75.834 176.906C79.0859 177.805 83.9321 177.427 85.1949 175.311L85.1792 175.28ZM78.7544 172.328C77.2705 174.317 72.4243 174.206 69.2829 172.991C71.1141 171.728 74.8079 170.797 77.7125 171.917L78.7544 172.328C79.7647 170.071 77.2705 165.935 74.6501 163.835C74.4449 166.029 75.4394 169.676 77.8862 171.633L78.7544 172.328ZM72.6769 168.729C73.9082 166.582 71.856 162.225 69.4566 159.873C69.0304 162.036 69.6618 165.761 71.8718 167.955L72.6769 168.744L71.6824 168.239C68.9041 166.819 65.1313 167.387 63.1897 168.46C66.1889 169.992 71.0036 170.576 72.6769 168.744V168.729ZM66.9782 164.561C65.1313 166.219 60.3956 165.145 57.5699 163.33C59.6221 162.462 63.4107 162.272 66.0469 163.961L66.994 164.561L66.2837 163.693C64.2947 161.294 64.0579 157.521 64.6893 155.421C66.8362 158.01 68.4463 162.557 66.994 164.561H66.9782ZM61.7374 159.826C59.7326 161.294 55.1232 159.747 52.5027 157.647C54.618 156.984 58.4224 157.174 60.8692 159.115L61.7532 159.81C63.3949 157.963 62.2583 153.275 60.3956 150.48C59.5432 152.517 59.4011 156.29 61.1375 158.878L61.7689 159.81L61.7374 159.826ZM57.0017 154.601C54.8548 155.848 50.4348 153.859 48.0354 151.522C50.2138 151.08 53.9708 151.649 56.2124 153.827L57.0174 154.616C58.8486 152.943 58.1856 148.16 56.607 145.208C55.5494 147.15 55.0284 150.891 56.4965 153.638L57.0174 154.632L57.0017 154.601ZM52.8342 148.933C50.5769 149.959 46.3779 147.544 44.2152 144.971C46.4252 144.75 50.1191 145.697 52.1081 148.081L52.8184 148.933L52.3922 147.907C51.2083 145.034 52.1239 141.356 53.3709 139.525C54.6496 142.635 54.8074 147.45 52.8184 148.933H52.8342ZM49.2509 142.872L48.9352 141.798C48.0512 138.815 49.3298 135.263 50.7505 133.558C51.6977 136.778 51.3819 141.577 49.2509 142.872L48.6194 141.94C46.883 139.367 43.2997 138.057 41.0739 138.057C42.9524 140.835 46.883 143.661 49.2351 142.872H49.2509ZM46.2989 136.479C43.8837 137.047 40.253 133.827 38.6587 130.875C40.8687 131.096 44.2942 132.753 45.7622 135.484L46.2989 136.463C48.5405 135.405 49.3614 130.654 48.7299 127.354C47.1356 128.901 45.5097 132.311 46.0937 135.374L46.2989 136.463V136.479ZM44.0258 129.833L43.9311 128.712C43.6785 125.618 45.6359 122.382 47.3724 121.009C47.6565 124.339 46.3621 128.996 44.0258 129.833L43.5996 128.791C42.4157 125.918 39.1796 123.929 37.0012 123.487C38.2798 126.581 41.5632 130.133 44.0258 129.817V129.833ZM42.4314 122.982V121.861C42.5104 118.751 44.7835 115.736 46.662 114.536C46.5989 117.883 44.8467 122.382 42.4314 122.982L42.1157 121.908C41.2317 118.941 38.2167 116.62 36.0856 115.973C37.0485 119.177 39.9531 123.045 42.4314 122.982ZM41.5317 116.004C39.0533 115.831 36.5592 111.695 35.9277 108.396C37.9799 109.264 40.7424 111.853 41.3264 114.899L41.5317 115.989C43.9942 115.641 46.1884 111.332 46.5989 108.017C44.6257 109.027 42.0368 111.805 41.6737 114.884L41.5474 115.989L41.5317 116.004ZM41.358 108.98C38.9112 108.554 36.8433 104.197 36.5592 100.85C38.5008 101.908 40.9949 104.765 41.2633 107.859L41.358 108.964C43.8364 108.853 46.4726 104.797 47.1987 101.529C45.1308 102.334 42.2736 104.844 41.5948 107.875L41.358 108.964V108.98ZM41.8947 101.971C39.4953 101.308 37.8852 96.7616 37.9483 93.3993C39.7794 94.6464 41.9579 97.7404 41.9105 100.85V101.971C44.3731 102.113 47.4039 98.3402 48.4616 95.1673C46.3147 95.7514 43.2365 97.9771 42.242 100.913L41.8947 101.971ZM43.126 95.0568L43.5838 94.0307C44.8624 91.2051 48.1617 89.3108 50.3559 88.9319C48.9825 91.9944 45.5886 95.4514 43.126 95.0568L43.2523 93.9518C43.6154 90.8736 41.7527 87.5744 40.0636 86.1379C39.6689 89.4686 40.8213 94.1412 43.126 95.0568ZM45.0677 88.3005C42.8577 87.1639 42.1947 82.3966 42.9208 79.1132C44.452 80.7076 45.9832 84.1646 45.3044 87.1955L45.0677 88.2847C47.4671 88.9161 51.1925 85.8221 52.8816 82.9176C50.6558 83.0754 47.1829 84.6224 45.6359 87.3218L45.0677 88.2847V88.3005ZM47.6881 81.7652C45.6044 80.4234 45.4307 75.6088 46.4884 72.4201C47.8617 74.1565 49.0141 77.7556 48.0354 80.7076L47.6881 81.7652C50.0086 82.6334 54.0339 79.9341 56.0072 77.2031C53.7814 77.14 50.1664 78.3397 48.3511 80.8496L47.6881 81.7652ZM50.9557 75.5141C53.1815 76.6191 57.4594 74.3144 59.6852 71.8044C57.4752 71.5045 53.7656 72.3411 51.6977 74.6774L50.9557 75.5141L51.4135 74.488C52.6764 71.6466 51.9029 67.9527 50.7032 66.09C49.3298 69.1524 49.0141 73.9671 50.9557 75.5141ZM54.8232 69.6418C53.0552 67.9054 53.8603 63.1539 55.5336 60.2493C56.5281 62.2225 56.9385 65.9795 55.3757 68.6789L54.8232 69.6576L55.6441 68.8999C57.933 66.7846 61.7216 66.3268 63.8842 66.8477C61.4059 69.1209 56.9227 70.9836 54.8232 69.6576V69.6418ZM59.2906 64.1799L60.1904 63.5011C62.6845 61.6384 66.5047 61.5595 68.6042 62.2856C65.9048 64.3062 61.2638 65.6954 59.3064 64.1799L59.9536 63.2644C61.7689 60.7386 61.7532 56.9659 60.9639 54.8979C59.0064 57.6289 57.712 62.2698 59.3064 64.1799H59.2906ZM64.2789 59.1759C62.8897 57.1237 64.6419 52.6248 66.8677 50.1148C67.436 52.2459 67.0729 56.0029 65.0208 58.3392L64.2789 59.1759C66.0784 60.8807 70.8457 59.9494 73.7345 58.2129C71.7139 57.2816 67.9254 56.9816 65.2418 58.5918L64.2789 59.1759ZM69.7407 54.7085C68.5726 52.5301 70.7668 48.2364 73.2452 45.9474C73.5924 48.1258 72.8505 51.8355 70.5616 53.9508L69.7407 54.7085L70.751 54.2349C73.5767 52.8931 77.3179 53.5719 79.2279 54.7085C76.1813 56.145 71.3351 56.6028 69.7249 54.7085H69.7407ZM75.6446 50.8094L76.7022 50.4306C79.6542 49.3887 83.3007 50.4306 85.0844 51.7408C81.9115 52.8616 77.0495 52.83 75.6288 50.7936L76.5286 50.1148C79.0227 48.2363 80.1277 44.6214 80.0014 42.4272C77.3179 44.4478 74.6817 48.5205 75.6288 50.7936L75.6446 50.8094ZM81.8957 47.526C81.1854 45.1581 84.2162 41.3853 87.0892 39.6331C86.9945 41.8431 85.5264 45.316 82.8429 46.9419L81.8799 47.526L82.9692 47.2576C86 46.5157 89.536 47.9206 91.1777 49.4045C87.8943 50.2096 83.0639 49.6886 81.8799 47.526H81.8957ZM115.33 180.142C115.898 182.541 120.413 184.341 123.775 184.436C122.591 182.573 119.576 180.268 116.451 180.173L115.33 180.142C115.298 177.679 119.229 174.838 122.465 173.922C121.77 176.022 119.418 178.989 116.403 179.842L115.33 180.142ZM122.355 179.195C122.07 176.748 125.685 173.528 128.827 172.296C128.353 174.459 126.301 177.632 123.396 178.784L122.355 179.195L123.475 179.116C126.601 178.895 129.837 180.884 131.195 182.62C127.832 182.857 123.16 181.531 122.355 179.195ZM129.237 177.569L130.232 177.048C133.01 175.627 134.73 172.249 134.967 170.055C131.968 171.602 128.685 175.153 129.221 177.569L130.326 177.379C133.404 176.843 136.83 178.5 138.361 180.094C135.03 180.678 130.247 179.81 129.205 177.569H129.237ZM135.93 175.264C135.157 172.912 138.061 169.044 140.887 167.213C140.855 169.423 139.498 172.944 136.877 174.648L135.93 175.264L137.019 174.964C140.035 174.127 143.602 175.422 145.291 176.858C142.039 177.758 137.193 177.395 135.93 175.264ZM142.355 172.296C143.823 174.285 148.685 174.175 151.826 172.943C149.995 171.681 146.317 170.749 143.397 171.886L142.355 172.296C141.345 170.039 143.839 165.903 146.459 163.804C146.664 165.998 145.654 169.644 143.223 171.602L142.355 172.296ZM148.448 168.697C147.217 166.55 149.269 162.193 151.669 159.826C152.095 161.988 151.463 165.714 149.238 167.908L148.432 168.697L149.427 168.192C152.205 166.771 155.978 167.34 157.92 168.397C154.92 169.928 150.09 170.528 148.432 168.697H148.448ZM154.147 164.514C155.994 166.171 160.73 165.098 163.555 163.267C161.519 162.399 157.714 162.209 155.078 163.898L154.131 164.514L154.841 163.646C156.83 161.246 157.067 157.473 156.436 155.374C154.289 157.963 152.679 162.509 154.131 164.514H154.147ZM159.388 159.794L160.019 158.863C161.756 156.274 161.614 152.501 160.761 150.465C158.883 153.259 157.746 157.931 159.388 159.794L160.272 159.099C162.719 157.158 166.507 156.953 168.638 157.616C166.002 159.715 161.408 161.262 159.404 159.794H159.388ZM164.124 154.553C166.27 155.8 170.69 153.811 173.106 151.459C170.927 151.017 167.154 151.585 164.929 153.764L164.124 154.553C162.308 152.88 162.955 148.097 164.534 145.145C165.592 147.087 166.113 150.828 164.644 153.574L164.124 154.569V154.553ZM168.307 148.886C170.564 149.912 174.763 147.497 176.926 144.908C174.716 144.687 171.022 145.634 169.033 148.018L168.307 148.87L168.733 147.844C169.917 144.971 169.017 141.293 167.77 139.462C166.491 142.572 166.333 147.386 168.307 148.87V148.886ZM171.89 142.824C174.242 143.629 178.173 140.788 180.067 138.01C177.841 138.01 174.274 139.32 172.521 141.893L171.89 142.824C169.759 141.546 169.443 136.731 170.406 133.511C171.827 135.2 173.106 138.767 172.222 141.751L171.906 142.824H171.89ZM174.842 136.431C177.257 136.999 180.888 133.779 182.482 130.827C180.272 131.048 176.847 132.706 175.379 135.452L174.842 136.431C172.6 135.373 171.795 130.622 172.411 127.323C174.005 128.87 175.615 132.28 175.047 135.326L174.842 136.415V136.431ZM177.131 129.77C179.593 130.085 182.877 126.534 184.156 123.424C181.977 123.866 178.741 125.855 177.557 128.728L177.131 129.77C174.795 128.933 173.5 124.292 173.784 120.945C175.521 122.319 177.478 125.555 177.226 128.649L177.131 129.77ZM178.725 122.934C181.219 122.997 184.124 119.13 185.087 115.925C182.956 116.589 179.941 118.893 179.057 121.861L178.741 122.934C176.326 122.334 174.574 117.836 174.526 114.489C176.389 115.689 178.678 118.704 178.725 121.814V122.934ZM179.625 115.957C182.103 115.783 184.598 111.648 185.229 108.348C183.177 109.217 180.414 111.805 179.83 114.868L179.625 115.957C177.162 115.61 174.968 111.316 174.574 107.985C176.547 108.98 179.136 111.774 179.499 114.852L179.625 115.957ZM179.814 108.932L179.578 107.843C178.899 104.812 176.057 102.302 173.99 101.497C174.716 104.765 177.336 108.822 179.83 108.932L179.925 107.827C180.193 104.733 182.688 101.876 184.645 100.803C184.345 104.134 182.277 108.506 179.83 108.932H179.814ZM179.278 101.924C181.677 101.245 183.287 96.6985 183.24 93.3519C181.409 94.599 179.215 97.693 179.262 100.803V101.924C176.799 102.066 173.769 98.2929 172.711 95.1199C174.858 95.704 177.936 97.914 178.915 100.866L179.262 101.924H179.278ZM178.046 95.0094C180.367 94.1096 181.504 89.4213 181.125 86.0905C179.436 87.527 177.573 90.8104 177.92 93.9044L178.046 95.0094C175.584 95.4041 172.206 91.947 170.832 88.9004C173.027 89.2792 176.326 91.1577 177.589 93.9991L178.046 95.0252V95.0094ZM176.121 88.2374C178.331 87.1008 178.994 82.3335 178.268 79.0501C176.72 80.6444 175.205 84.1173 175.868 87.1481L176.105 88.2374C173.705 88.8688 169.98 85.7748 168.307 82.8702C170.533 83.0123 173.99 84.5751 175.552 87.2586L176.105 88.2216L176.121 88.2374ZM173.516 81.7179L172.869 80.8023C171.053 78.2766 167.439 77.0769 165.213 77.1558C167.186 79.8709 171.195 82.5861 173.516 81.7179L173.169 80.6602C172.19 77.7083 173.358 74.1091 174.732 72.3727C175.773 75.5614 175.6 80.3761 173.516 81.7179ZM170.248 75.4667C168.023 76.5717 163.745 74.2828 161.519 71.7729C163.729 71.4729 167.438 72.3096 169.506 74.6301L170.248 75.4667L169.791 74.4406C168.528 71.5992 169.317 67.9053 170.501 66.0426C171.874 69.1051 172.19 73.9197 170.248 75.4667ZM166.381 69.5944C168.149 67.858 167.344 63.1065 165.67 60.2019C164.676 62.1751 164.266 65.9321 165.813 68.6315L166.365 69.6102L165.544 68.8525C163.255 66.753 159.467 66.2952 157.304 66.8004C159.782 69.0735 164.266 70.9204 166.365 69.6102L166.381 69.5944ZM161.913 64.1326L161.014 63.4538C158.52 61.5911 154.715 61.5121 152.6 62.2383C155.299 64.2589 159.94 65.648 161.898 64.1326L161.251 63.217C159.435 60.6913 159.467 56.9185 160.256 54.8506C162.213 57.5815 163.492 62.2225 161.913 64.1326ZM156.941 59.1443C158.33 57.0921 156.578 52.5932 154.352 50.0833C153.784 52.2144 154.131 55.9714 156.199 58.3076L156.941 59.1443C155.141 60.8491 150.374 59.9336 147.501 58.1971C149.522 57.2658 153.31 56.9659 155.994 58.5602L156.957 59.1443H156.941ZM151.463 54.6769C152.631 52.4985 150.437 48.2048 147.975 45.9158C147.627 48.0943 148.354 51.8039 150.643 53.9192L151.463 54.6769L150.453 54.2033C147.627 52.8773 143.886 53.5561 141.976 54.6769C145.023 56.1134 149.853 56.5554 151.479 54.6769H151.463ZM145.575 50.7779C146.522 48.4889 143.902 44.432 141.218 42.4114C141.092 44.6214 142.197 48.2206 144.691 50.0991L145.591 50.7779C144.17 52.8142 139.324 52.8458 136.135 51.725C137.919 50.4148 141.581 49.3571 144.533 50.399L145.591 50.7779H145.575Z" fill="white"/>
</g>
<path fill-rule="evenodd" clip-rule="evenodd" d="M177.1 90.554L177.147 89.4333C177.289 86.3235 175.206 83.1348 173.422 81.793C173.264 85.1553 174.732 89.7805 177.084 90.5383L177.1 90.554Z" fill="white"/>
<path fill-rule="evenodd" clip-rule="evenodd" d="M44.1675 90.554L44.1202 89.4333C43.9781 86.3235 46.0618 83.1348 47.8456 81.793C48.0035 85.1553 46.5354 89.7805 44.1833 90.5383L44.1675 90.554Z" fill="white"/>
</g>
<defs>
<clipPath id="clip0_5889_6170">
<rect width="221" height="221" fill="white" transform="translate(0 0.0429688)"/>
</clipPath>
</defs>
</svg>
