<svg width="221" height="221" viewBox="0 0 221 221" fill="none" xmlns="http://www.w3.org/2000/svg">
<path d="M215.038 95.1547L208.091 87.6772C203.544 82.784 201.422 75.9808 202.337 69.2408L203.736 58.9401C205.337 47.1534 197.672 36.1675 186.411 34.1118L176.569 32.314C170.13 31.1382 164.57 26.9334 161.507 20.9198L156.822 11.7301C151.464 1.21419 139.06 -2.98109 128.788 2.246L119.811 6.81476C113.936 9.80416 107.067 9.80416 101.192 6.81476L92.2147 2.246C81.9426 -2.98109 69.5388 1.21419 64.1804 11.7301L59.4962 20.9198C56.4324 26.9334 50.8731 31.1382 44.4338 32.314L34.5922 34.1118C23.331 36.1691 15.6653 47.1534 17.2652 58.9401L18.6642 69.2408C19.5804 75.9808 17.4567 82.784 12.9101 87.6772L5.96291 95.1547C-1.98764 103.71 -1.98764 117.289 5.96291 125.845L12.9101 133.322C17.4567 138.215 19.5789 145.017 18.6642 151.759L17.2652 162.059C15.6637 173.846 23.3294 184.832 34.5922 186.888L44.4338 188.685C50.8731 189.861 56.4324 194.066 59.4962 200.079L64.1804 209.269C69.5388 219.785 81.9426 223.98 92.2147 218.753L101.192 214.185C107.067 211.195 113.936 211.195 119.811 214.185L128.788 218.753C139.06 223.982 151.464 219.785 156.822 209.269L161.507 200.079C164.57 194.066 170.13 189.861 176.569 188.685L186.411 186.888C197.672 184.83 205.337 173.846 203.736 162.059L202.337 151.759C201.421 145.019 203.544 138.215 208.091 133.322L215.038 125.845C222.987 117.289 222.987 103.711 215.038 95.1547ZM34.7916 175.648C30.6311 175.648 27.2588 172.137 27.2588 167.805C27.2588 163.474 30.6311 159.962 34.7916 159.962C38.952 159.962 42.3243 163.474 42.3243 167.805C42.3243 172.137 38.952 175.648 34.7916 175.648Z" fill="#9F9F9F"/>
<path d="M76.1681 113.937C76.1681 113.226 75.9149 112.673 75.4069 112.275C74.9005 111.878 74.008 111.467 72.7341 111.043C71.457 110.617 70.4157 110.207 69.6055 109.81C66.969 108.526 65.6523 106.763 65.6523 104.519C65.6523 103.402 65.9799 102.416 66.6367 101.563C67.2934 100.71 68.2223 100.046 69.4235 99.5692C70.6246 99.0944 71.9745 98.8555 73.4747 98.8555C74.9369 98.8555 76.2473 99.115 77.4057 99.6309C78.5641 100.147 79.4661 100.884 80.107 101.84C80.7495 102.796 81.0708 103.886 81.0708 105.114H76.1824C76.1824 104.293 75.9292 103.655 75.4228 103.203C74.9148 102.75 74.228 102.524 73.3623 102.524C72.4856 102.524 71.7957 102.715 71.2877 103.098C70.7797 103.481 70.5265 103.969 70.5265 104.559C70.5265 105.076 70.8066 105.545 71.3636 105.964C71.9238 106.385 72.905 106.819 74.3103 107.267C75.7171 107.714 76.8708 108.197 77.7728 108.715C79.9709 109.97 81.0692 111.701 81.0692 113.907C81.0692 115.67 80.3982 117.055 79.0578 118.061C77.7158 119.069 75.877 119.571 73.5412 119.571C71.8938 119.571 70.4015 119.278 69.0658 118.691C67.7286 118.105 66.7237 117.301 66.0495 116.282C65.3738 115.262 65.0352 114.087 65.0352 112.756H69.9504C69.9504 113.837 70.2337 114.635 70.7955 115.146C71.3589 115.659 72.2752 115.915 73.5396 115.915C74.3498 115.915 74.9892 115.743 75.4608 115.396C75.9323 115.051 76.1681 114.564 76.1681 113.937Z" fill="white"/>
<path d="M88.8064 119.297H83.918V99.1328H88.8064V119.297Z" fill="white"/>
<path d="M97.1159 115.558H105.65V119.296H92.2148V99.1328H97.1175L97.1159 115.558Z" fill="white"/>
<path d="M112.73 113.811L116.781 99.1328H122.255L115.412 119.296H110.049L103.262 99.1328H108.694L112.73 113.811Z" fill="white"/>
<path d="M136.347 110.737H128.637V115.558H137.743V119.296H123.734V99.1328H137.77V102.887H128.637V107.139H136.347V110.737Z" fill="white"/>
<path d="M147.299 112.165H144.645V119.297H139.742V99.1328H147.745C150.157 99.1328 152.043 99.663 153.401 100.723C154.76 101.784 155.441 103.282 155.441 105.219C155.441 106.621 155.154 107.783 154.581 108.706C154.01 109.628 153.113 110.375 151.893 110.946L156.14 119.087V119.296H150.889L147.299 112.165ZM144.645 108.425H147.745C148.677 108.425 149.377 108.183 149.847 107.697C150.318 107.212 150.552 106.534 150.552 105.664C150.552 104.794 150.315 104.111 149.84 103.616C149.365 103.121 148.668 102.874 147.745 102.874H144.645V108.425Z" fill="white"/>
<path d="M54.7025 62.3572L52.6848 65.0665L60.0292 70.5389L58.4071 72.7149L51.0643 67.2425L49.0814 69.9012L47.4023 68.6494L53.0218 61.1055L54.7025 62.3572Z" fill="white"/>
<path d="M64.955 61.9412L62.336 64.5808L63.3694 66.5226L61.3279 68.5783L56.248 57.7222L58.0474 55.9102L68.962 60.8888L66.9094 62.9572L64.955 61.9412ZM61.3058 62.6422L63.0101 60.9252L59.3846 59.0372L61.3058 62.6422Z" fill="white"/>
<path d="M75.9644 54.1684C75.8979 54.7887 75.6225 55.4486 75.1383 56.1497C74.6524 56.8492 74.0226 57.4822 73.2472 58.0424C72.0524 58.908 70.8338 59.2325 69.59 59.0172C68.3477 58.8052 67.2305 58.063 66.2382 56.7985L65.6606 56.0136C65.0118 55.1163 64.6035 54.2158 64.4357 53.3186C64.2696 52.4181 64.3487 51.5746 64.6794 50.7833C65.0086 49.9952 65.5625 49.3211 66.3379 48.7593C67.4742 47.938 68.5439 47.5581 69.5473 47.6246C70.5522 47.6895 71.4795 48.1991 72.3309 49.1565L70.2135 50.6884C69.7704 50.2326 69.3431 49.9873 68.9364 49.9509C68.5297 49.9177 68.0945 50.0633 67.6372 50.3956C67.0833 50.7944 66.8269 51.3372 66.8665 52.0193C66.9029 52.7061 67.2336 53.4847 67.8603 54.3567L68.2591 54.909C68.9158 55.8174 69.5662 56.3902 70.2087 56.6213C70.8497 56.8539 71.5048 56.7273 72.1711 56.2446C72.7439 55.8316 73.0778 55.3964 73.1744 54.9391L72.1505 53.5227L70.6218 54.6273L69.5314 53.1192L73.2567 50.4241L75.9644 54.1684Z" fill="white"/>
<path d="M79.2208 51.6669L83.4081 49.4799L84.3734 51.3298L77.7823 54.7734L72.5742 44.794L74.9796 43.5391L79.2208 51.6669Z" fill="white"/>
<path d="M87.9229 49.994L85.4115 50.9989L81.2305 40.5479L83.7435 39.543L87.9229 49.994Z" fill="white"/>
<path d="M98.3885 46.8789L95.7837 47.58L90.112 41.8576L91.9318 48.6166L89.3128 49.3224L86.3867 38.4567L89.0058 37.7509L94.6696 43.4781L92.8497 36.7159L95.4608 36.0117L98.3885 46.8789Z" fill="white"/>
<path d="M106.109 41.1638L101.869 41.6512L102.175 44.3225L107.182 43.7481L107.419 45.8212L99.717 46.7074L98.4336 35.5284L106.15 34.6406L106.389 36.7201L101.366 37.2977L101.637 39.6541L105.876 39.1667L106.109 41.1638Z" fill="white"/>
<path d="M118.465 44.2338L114.764 43.8888L113.922 45.9208L111.037 45.6518L116.195 34.832L118.734 35.0662L121.825 46.6599L118.924 46.3877L118.465 44.2338ZM115.606 41.8632L118.014 42.0895L117.171 38.092L115.606 41.8632Z" fill="white"/>
<path d="M131.379 44.9236L134.523 38.4732L137.114 39.1996L131.782 49.3927L129.071 48.6346L129.35 42.0513L126.199 47.8307L123.496 47.0743L124.222 35.5898L126.819 36.3162L126.161 43.4613L129.552 37.0806L131.769 37.7041L131.379 44.9236Z" fill="white"/>
<path d="M140.922 51.1942L137.575 49.5753L136.077 51.1831L133.469 49.9203L142.089 41.5898L144.383 42.7008L143.22 54.6441L140.6 53.3734L140.922 51.1942ZM139.074 47.9706L141.252 49.0261L141.859 44.9844L139.074 47.9706Z" fill="white"/>
<path d="M149.23 54.0503L148.026 53.2116L145.75 56.4779L143.525 54.9286L149.955 45.6914L153.59 48.225C154.685 48.9862 155.372 49.8266 155.651 50.7428C155.931 51.6575 155.761 52.558 155.144 53.4458C154.698 54.0883 154.196 54.5314 153.642 54.772C153.089 55.0125 152.443 55.0711 151.707 54.9476L151.038 60.018L150.971 60.1146L148.585 58.4529L149.23 54.0503ZM149.219 51.4993L150.626 52.4805C151.05 52.7748 151.446 52.884 151.815 52.8096C152.183 52.7368 152.506 52.501 152.783 52.1022C153.06 51.7034 153.169 51.3157 153.112 50.9391C153.055 50.5624 152.816 50.2301 152.399 49.9373L150.99 48.9546L149.219 51.4993Z" fill="white"/>
<path d="M151.602 60.6695L159.373 52.5273L161.994 55.0293C162.714 55.7177 163.205 56.4979 163.467 57.3715C163.73 58.245 163.739 59.1312 163.496 60.0364C163.25 60.9385 162.776 61.7614 162.076 62.5036L161.719 62.8771C161.006 63.6225 160.212 64.1399 159.334 64.4295C158.452 64.7191 157.569 64.7587 156.678 64.5466C155.789 64.333 154.988 63.8931 154.279 63.2237L151.602 60.6695ZM159.889 55.9155L155.006 61.0319L155.688 61.6839C156.249 62.2203 156.873 62.4324 157.558 62.32C158.243 62.2077 158.963 61.7567 159.717 60.9654L160.052 60.6125C160.805 59.8275 161.217 59.0901 161.296 58.4033C161.377 57.7165 161.127 57.0961 160.548 56.5454L159.889 55.9155Z" fill="white"/>
<path d="M164.513 70.2603C164.826 70.0181 164.986 69.7159 164.989 69.3598C164.992 69.0037 164.874 68.4704 164.628 67.7678C164.383 67.0651 164.212 66.4669 164.114 65.9764C163.788 64.3843 164.122 63.2054 165.113 62.441C165.606 62.0596 166.152 61.8665 166.752 61.8634C167.35 61.8586 167.958 62.0375 168.574 62.403C169.191 62.7654 169.753 63.2766 170.259 63.9333C170.753 64.5727 171.084 65.2357 171.248 65.921C171.413 66.6046 171.392 67.2503 171.186 67.858C170.982 68.4657 170.609 68.98 170.066 69.3978L168.411 67.255C168.775 66.9765 168.971 66.6474 168.998 66.2723C169.026 65.8957 168.895 65.5158 168.601 65.1376C168.305 64.7562 167.985 64.5157 167.645 64.4271C167.303 64.3353 167.002 64.3891 166.741 64.5917C166.512 64.7673 166.401 65.0522 166.404 65.4383C166.407 65.8276 166.55 66.4052 166.828 67.1728C167.107 67.9419 167.282 68.6129 167.36 69.1841C167.55 70.5736 167.157 71.6466 166.182 72.3983C165.404 73.0028 164.567 73.18 163.668 72.9363C162.769 72.6926 161.922 72.0596 161.133 71.0373C160.574 70.3141 160.199 69.5624 160.006 68.7759C159.813 67.9909 159.827 67.2756 160.049 66.6315C160.272 65.989 160.675 65.4399 161.264 64.9873L162.927 67.1379C162.449 67.5083 162.195 67.9023 162.158 68.3248C162.123 68.7458 162.32 69.2332 162.748 69.7887C163.022 70.1432 163.315 70.3647 163.628 70.4533C163.94 70.5372 164.236 70.4755 164.513 70.2603Z" fill="white"/>
<path d="M99.3661 184.3L91.6719 182.727L92.0121 181.06L96.3197 178.06C97.3958 177.243 97.9956 176.542 98.1159 175.958C98.2124 175.482 98.1823 175.101 98.0257 174.811C97.8674 174.52 97.5936 174.335 97.2012 174.256C96.8119 174.176 96.4621 174.276 96.152 174.556C95.8434 174.836 95.6377 175.226 95.5348 175.719L92.9759 175.196C93.1151 174.521 93.4111 173.928 93.8652 173.426C94.321 172.923 94.8828 172.57 95.549 172.371C96.2153 172.17 96.9195 172.146 97.6617 172.296C98.8533 172.54 99.7158 173.004 100.248 173.686C100.778 174.368 100.939 175.224 100.729 176.253C100.638 176.688 100.472 177.093 100.227 177.471C99.9817 177.851 99.6414 178.231 99.2078 178.614C98.7758 178.997 98.1016 179.491 97.1917 180.09L95.4303 181.443L99.7696 182.331L99.3661 184.3Z" fill="white"/>
<path d="M110.101 180.538C110.009 182.057 109.596 183.206 108.867 183.988C108.134 184.768 107.148 185.121 105.909 185.046C104.659 184.967 103.717 184.494 103.084 183.627C102.451 182.757 102.181 181.568 102.271 180.06L102.397 178.009C102.489 176.491 102.901 175.341 103.632 174.559C104.364 173.78 105.352 173.428 106.597 173.502C107.841 173.578 108.78 174.053 109.414 174.921C110.046 175.79 110.318 176.982 110.226 178.493L110.101 180.538ZM107.647 177.996C107.696 177.189 107.626 176.578 107.441 176.167C107.254 175.755 106.933 175.537 106.474 175.51C106.028 175.48 105.691 175.648 105.464 176.004C105.238 176.36 105.096 176.914 105.034 177.667L104.86 180.536C104.809 181.373 104.877 181.994 105.066 182.396C105.251 182.798 105.574 183.011 106.031 183.038C106.472 183.065 106.811 182.896 107.045 182.532C107.279 182.168 107.423 181.581 107.479 180.775L107.647 177.996Z" fill="white"/>
<path d="M120.344 184.468L112.517 185.095L112.381 183.402L115.685 179.322C116.492 178.24 116.872 177.399 116.824 176.804C116.786 176.32 116.652 175.961 116.421 175.728C116.19 175.494 115.873 175.391 115.473 175.423C115.077 175.454 114.77 175.65 114.55 176.005C114.33 176.359 114.242 176.79 114.281 177.293L111.676 177.502C111.623 176.814 111.744 176.163 112.04 175.554C112.336 174.945 112.779 174.451 113.365 174.071C113.949 173.694 114.62 173.475 115.376 173.414C116.589 173.316 117.543 173.522 118.244 174.032C118.943 174.538 119.334 175.317 119.42 176.366C119.453 176.807 119.407 177.243 119.276 177.675C119.144 178.105 118.924 178.566 118.614 179.053C118.304 179.542 117.794 180.2 117.085 181.031L115.772 182.821L120.186 182.466L120.344 184.468Z" fill="white"/>
<mask id="mask0_5889_6873" style="mask-type:luminance" maskUnits="userSpaceOnUse" x="13" y="79" width="74" height="103">
<path d="M71.7165 181.892L86.7551 175.558L82.006 162.895L76.4656 104.409L51.2546 86.5206L44.4308 89.0922L39.0898 79.8945L13.1445 124.11L71.7165 181.892Z" fill="white"/>
</mask>
<g mask="url(#mask0_5889_6873)">
<path fill-rule="evenodd" clip-rule="evenodd" d="M139.394 46.6407C138.19 48.8087 133.349 49.3357 130.064 48.5318C131.714 47.0426 135.256 45.6247 138.299 46.3717L139.394 46.6407L138.432 46.0567C135.758 44.4378 134.281 40.9436 134.19 38.7344C137.076 40.4831 140.102 44.2685 139.394 46.6407ZM110.572 177.741C111.604 177.741 112.438 178.568 112.438 179.592C112.438 180.613 111.602 181.442 110.57 181.444C109.539 181.445 108.705 180.616 108.705 179.594C108.706 178.571 109.54 177.741 110.572 177.741ZM135.247 44.7195L134.397 43.9852C132.034 41.9406 128.231 41.5972 126.079 42.1732C128.629 44.3793 133.177 46.1042 135.247 44.7195ZM86.1444 44.7401C88.2128 46.1232 92.7625 44.3951 95.3135 42.1875C93.1613 41.613 89.3585 41.958 86.9942 44.0058L86.1444 44.7401ZM105.771 179.617C105.198 182.024 100.677 183.825 97.2932 183.925C98.4801 182.051 101.509 179.742 104.644 179.649L105.771 179.617C105.81 177.142 101.871 174.303 98.6162 173.389C99.3046 175.492 101.669 178.464 104.687 179.314L105.771 179.617ZM98.7333 178.688C99.0245 176.231 95.3942 173.012 92.2482 171.778C92.7182 173.938 94.7691 177.131 97.6857 178.275L98.7333 178.688L97.6081 178.608C94.4811 178.388 91.2338 180.382 89.8617 182.126C93.2388 182.365 97.9183 181.024 98.7333 178.688ZM91.8256 177.06C90.7764 179.304 85.9846 180.17 82.6502 179.592C84.1916 177.992 87.6241 176.335 90.7131 176.865L91.8256 177.06C92.3637 174.643 89.0784 171.076 86.0764 169.535C86.3232 171.733 88.0418 175.115 90.8239 176.544L91.8256 177.06ZM85.1205 174.75C85.9007 172.398 82.9952 168.522 80.1641 166.688C80.1878 168.9 81.552 172.436 84.1773 174.137L85.1205 174.75L84.0349 174.447C81.0155 173.607 77.4327 174.917 75.7362 176.354C78.993 177.259 83.8482 176.88 85.1205 174.75ZM78.6813 171.779C77.2 173.773 72.3322 173.665 69.183 172.441C71.0156 171.179 74.7139 170.236 77.6336 171.371L78.6813 171.779C79.6972 169.519 77.1985 165.371 74.5683 163.264C74.3673 165.466 75.3659 169.12 77.8046 171.076L78.6813 171.779ZM72.5791 168.182C73.8198 166.035 71.7546 161.66 69.3524 159.298C68.9282 161.469 69.5517 165.207 71.7783 167.394L72.5791 168.182L71.5774 167.672C68.7906 166.248 65.0147 166.818 63.0634 167.891C66.0702 169.426 70.9032 170.018 72.5791 168.182ZM66.8726 163.993C65.0194 165.652 60.2719 164.579 57.4344 162.752C59.4854 161.88 63.2977 161.691 65.9262 163.384L66.8726 163.993L66.1557 163.131C64.1617 160.728 63.9212 156.949 64.5637 154.832C66.7143 157.422 68.3237 161.98 66.8726 163.993ZM61.6218 159.257C59.6104 160.722 54.9958 159.181 52.3577 157.077C54.4846 156.416 58.2985 156.607 60.7419 158.556L61.6218 159.257C63.2692 157.397 62.1313 152.702 60.2545 149.909C59.4015 151.953 59.2575 155.739 60.9967 158.326L61.6218 159.257ZM56.8774 154.018C54.7283 155.273 50.2941 153.279 47.884 150.925C50.0678 150.478 53.8421 151.051 56.0751 153.233L56.8774 154.018C58.7068 152.333 58.05 147.547 56.4659 144.582C55.4088 146.53 54.8818 150.282 56.3488 153.029L56.8774 154.018ZM52.6901 148.331C50.4239 149.367 46.216 146.938 44.0575 144.355C46.2746 144.129 49.9713 145.077 51.9716 147.471L52.6901 148.331L52.2644 147.296C51.0838 144.412 51.9906 140.735 53.2376 138.899C54.5131 142.009 54.6793 146.837 52.6901 148.331ZM49.1009 142.255L48.7844 141.181C47.903 138.198 49.1753 134.625 50.6043 132.925C51.557 136.145 51.2326 140.967 49.1009 142.255L48.4727 141.325C46.7256 138.744 43.1443 137.434 40.9162 137.435C42.8009 140.22 46.7414 143.058 49.1009 142.255ZM46.148 135.848C43.7188 136.413 40.0869 133.197 38.4933 130.236C40.712 130.455 44.1413 132.118 45.6178 134.862L46.148 135.848C48.3983 134.78 49.2101 130.016 48.5914 126.717C46.9978 128.264 45.3678 131.691 45.9422 134.75L46.148 135.848ZM43.8596 129.182L43.7647 128.067C43.5036 124.968 45.4722 121.719 47.2162 120.337C47.4978 123.683 46.2065 128.345 43.8596 129.182L43.4308 128.146C42.2407 125.269 38.9997 123.271 36.8143 122.833C38.0977 125.938 41.3862 129.5 43.8596 129.182ZM42.2597 122.319L42.2787 121.2C42.3325 118.089 44.6224 115.055 46.4961 113.854C46.4376 117.21 44.681 121.719 42.2597 122.319L41.9385 121.246C41.0475 118.264 38.0233 115.952 35.8949 115.296C36.857 118.514 39.7673 122.388 42.2597 122.319ZM41.3656 115.329C38.8779 115.15 36.3775 111.005 35.7461 107.706C37.797 108.571 40.5696 111.173 41.1551 114.23L41.3656 115.329C43.8343 114.976 46.0403 110.665 46.4391 107.332C44.4531 108.339 41.8688 111.127 41.4985 114.216L41.3656 115.329ZM41.1852 108.286C38.7275 107.859 36.6608 103.485 36.3696 100.141C38.3208 101.206 40.8165 104.071 41.0871 107.172L41.1852 108.286C43.6761 108.18 46.3094 104.113 47.0437 100.836C44.9658 101.638 42.111 104.156 41.4289 107.195L41.1852 108.286ZM41.7185 101.262C39.3194 100.589 37.7052 96.033 37.7559 92.6749C39.59 93.9314 41.7802 97.03 41.7359 100.141L41.7185 101.262C44.2078 101.406 47.2399 97.6203 48.3049 94.433C46.1559 95.0233 43.0605 97.2452 42.073 100.198L41.7185 101.262ZM42.9639 94.3223L43.4245 93.3015C44.7047 90.4609 48.0106 88.5619 50.2071 88.1868C48.8256 91.2537 45.4263 94.7147 42.9639 94.3223L43.0937 93.2129C43.4545 90.1222 41.5903 86.8179 39.8907 85.3857C39.503 88.7201 40.6456 93.4155 42.9639 94.3223ZM44.9073 87.5459C42.6917 86.4112 42.0318 81.6241 42.7582 78.3435C44.3012 79.9403 45.822 83.4139 45.1494 86.4524L44.9073 87.5459C47.3159 88.1805 51.0506 85.0756 52.7375 82.1637C50.5141 82.3156 47.0326 83.876 45.4706 86.5742L44.9073 87.5459ZM47.5279 80.9942C45.439 79.6427 45.2681 74.8144 46.3236 71.6241C47.6972 73.3648 48.8572 76.9746 47.8792 79.9308L47.5279 80.9942C49.8605 81.8678 53.8896 79.1506 55.8646 76.4223C53.6364 76.3527 50.0156 77.557 48.1862 80.0843L47.5279 80.9942ZM50.8005 74.7385C53.0319 75.8415 57.3158 73.5405 59.5566 71.0227C57.3474 70.7284 53.6222 71.5655 51.5459 73.8997L50.8005 74.7385L51.2579 73.7146C52.5302 70.8708 51.7421 67.1645 50.5521 65.294C49.1801 68.3641 48.8604 73.186 50.8005 74.7385ZM54.6888 68.842C52.9164 67.1028 53.725 62.3378 55.4025 59.4196C56.3963 61.3993 56.8046 65.1658 55.249 67.8671L54.6888 68.842L55.518 68.0824C57.819 65.9681 61.6091 65.5076 63.7772 66.0187C61.2942 68.3008 56.7983 70.1602 54.6888 68.842ZM59.1578 63.3617L60.0583 62.6859C62.5634 60.8122 66.3804 60.7347 68.4851 61.4595C65.7838 63.4835 61.1217 64.8857 59.1578 63.3617L59.813 62.4486C61.6329 59.9149 61.6107 56.1264 60.8226 54.058C58.8587 56.7942 57.5705 61.4547 59.1578 63.3617ZM64.1601 58.3561C62.7738 56.3004 64.5289 51.7918 66.7602 49.2661C67.3331 51.4025 66.9723 55.1753 64.9039 57.5142L64.1601 58.3561C65.9594 60.0684 70.7402 59.1395 73.6331 57.3987C71.6122 56.465 67.8062 56.1628 65.1239 57.7769L64.1601 58.3561ZM69.6451 53.8744C68.4741 51.6905 70.6769 47.3797 73.1536 45.0914C73.508 47.2753 72.7643 50.9911 70.4696 53.1132L69.6451 53.8744L70.6627 53.3933C73.4954 52.0545 77.2491 52.735 79.1655 53.8665C76.1081 55.3114 71.2593 55.7576 69.6451 53.8744ZM75.5542 49.964L76.6161 49.5874C79.5691 48.5397 83.2357 49.5905 85.0271 50.9072C81.84 52.0387 76.9706 51.9991 75.5542 49.964L76.4515 49.2867C78.9503 47.405 80.066 43.7811 79.9362 41.5734C77.2396 43.6054 74.611 47.6757 75.5542 49.964ZM81.8305 46.6644C81.1247 44.2922 84.152 40.5052 87.0417 38.7549C86.9467 40.9626 85.4687 44.4584 82.7926 46.0805L81.8305 46.6644L82.9256 46.3954C85.9703 45.6453 89.5104 47.0616 91.1594 48.5492C87.8725 49.3563 83.0332 48.8309 81.8305 46.6644ZM115.34 179.613C115.911 182.018 120.431 183.816 123.815 183.914C122.629 182.04 119.602 179.734 116.467 179.644L115.34 179.613C115.302 177.138 119.244 174.295 122.499 173.377C121.811 175.481 119.442 178.454 116.424 179.307L115.34 179.613ZM122.379 178.677C122.09 176.22 125.723 172.998 128.871 171.76C128.399 173.922 126.343 177.115 123.428 178.263L122.379 178.677L123.504 178.595C126.631 178.372 129.879 180.364 131.248 182.107C127.871 182.35 123.191 181.015 122.379 178.677ZM129.287 177.044L130.289 176.527C133.074 175.095 134.792 171.713 135.044 169.513C132.039 171.059 128.75 174.628 129.287 177.044L130.398 176.85C133.487 176.316 136.919 177.972 138.459 179.568C135.125 180.149 130.333 179.288 129.287 177.044ZM135.995 174.729C135.217 172.379 138.125 168.5 140.96 166.663C140.934 168.875 139.565 172.412 136.94 174.115L135.995 174.729L137.081 174.425C140.1 173.583 143.683 174.889 145.378 176.326C142.119 177.233 137.264 176.857 135.995 174.729ZM142.436 171.754C143.916 173.746 148.783 173.635 151.933 172.407C150.102 171.148 146.403 170.208 143.485 171.344L142.436 171.754C141.422 169.494 143.924 165.346 146.557 163.235C146.755 165.438 145.753 169.094 143.314 171.051L142.436 171.754ZM148.541 168.152C147.304 166.006 149.372 161.629 151.776 159.266C152.199 161.437 151.572 165.175 149.344 167.364L148.541 168.152L149.545 167.641C152.333 166.215 156.107 166.781 158.059 167.853C155.049 169.389 150.216 169.985 148.541 168.152ZM154.251 163.958C156.103 165.615 160.852 164.539 163.691 162.71C161.641 161.839 157.829 161.653 155.197 163.349L154.251 163.958L154.969 163.096C156.963 160.692 157.209 156.913 156.568 154.795C154.416 157.386 152.803 161.945 154.251 163.958ZM159.508 159.215L160.133 158.285C161.874 155.696 161.733 151.91 160.882 149.866C159.003 152.662 157.861 157.359 159.508 159.215L160.386 158.514C162.831 156.565 166.644 156.368 168.772 157.028C166.134 159.135 161.518 160.679 159.508 159.215ZM164.256 153.974C166.405 155.227 170.841 153.229 173.254 150.874C171.07 150.429 167.296 151.005 165.061 153.189L164.256 153.974C162.429 152.29 163.089 147.503 164.675 144.536C165.731 146.482 166.256 150.235 164.786 152.983L164.256 153.974ZM168.448 148.283C170.712 149.317 174.923 146.886 177.085 144.3C174.868 144.075 171.171 145.026 169.169 147.422L168.448 148.283L168.873 147.248C170.057 144.365 169.155 140.686 167.907 138.851C166.629 141.963 166.459 146.791 168.448 148.283ZM172.042 142.205C174.401 143.006 178.345 140.167 180.233 137.378C178.003 137.377 174.422 138.69 172.672 141.274L172.042 142.205C169.912 140.92 169.592 136.098 170.546 132.874C171.974 134.574 173.244 138.146 172.36 141.129L172.042 142.205ZM174.999 135.796C177.429 136.359 181.064 133.14 182.659 130.178C180.442 130.398 177.009 132.064 175.531 134.81L174.999 135.796C172.751 134.731 171.942 129.967 172.565 126.666C174.159 128.212 175.786 131.638 175.208 134.697L174.999 135.796ZM177.294 129.128C179.767 129.443 183.058 125.878 184.344 122.773C182.159 123.213 178.915 125.213 177.723 128.09L177.294 129.128C174.947 128.293 173.659 123.632 173.945 120.285C175.686 121.665 177.653 124.913 177.389 128.011L177.294 129.128ZM178.9 122.262C181.393 122.33 184.306 118.454 185.27 115.234C183.14 115.892 180.116 118.206 179.222 121.189L178.9 122.262C176.481 121.665 174.727 117.158 174.67 113.802C176.544 115 178.831 118.033 178.881 121.143L178.9 122.262ZM179.801 115.272C182.288 115.091 184.792 110.944 185.427 107.646C183.376 108.513 180.6 111.116 180.011 114.174L179.801 115.272C177.332 114.92 175.129 110.611 174.734 107.278C176.718 108.283 179.301 111.07 179.668 114.159L179.801 115.272ZM179.987 108.23L179.742 107.138C179.063 104.101 176.21 101.584 174.134 100.784C174.866 104.06 177.497 108.125 179.987 108.23L180.086 107.115C180.359 104.014 182.857 101.148 184.809 100.081C184.515 103.425 182.444 107.801 179.987 108.23ZM179.459 101.205C181.86 100.531 183.477 95.9728 183.431 92.6147C181.595 93.8713 179.402 96.9746 179.445 100.084L179.459 101.205C176.97 101.35 173.941 97.568 172.879 94.3824C175.028 94.9711 178.122 97.1898 179.104 100.143L179.459 101.205ZM178.218 94.2669C180.538 93.3569 181.685 88.6616 181.299 85.3272C179.6 86.7609 177.732 90.0668 178.09 93.1575L178.218 94.2669C175.757 94.6625 172.36 91.2015 170.978 88.1377C173.176 88.5112 176.481 90.4071 177.758 93.2462L178.218 94.2669ZM176.283 87.4921C178.498 86.3558 179.163 81.5687 178.44 78.2881C176.895 79.8864 175.373 83.3617 176.042 86.3985L176.283 87.4921C173.873 88.1283 170.141 85.0265 168.457 82.1162C170.681 82.265 174.161 83.8238 175.721 86.5204L176.283 87.4921ZM173.667 80.9436L173.01 80.0336C171.182 77.5079 167.563 76.3052 165.335 76.378C167.307 79.1047 171.334 81.8187 173.667 80.9436L173.317 79.8817C172.342 76.9255 173.505 73.3158 174.881 71.5734C175.931 74.7622 175.757 79.5905 173.667 80.9436ZM170.401 74.6894C168.168 75.794 163.885 73.4962 161.648 70.98C163.857 70.684 167.581 71.518 169.654 73.8507L170.401 74.6894L169.945 73.6671C168.674 70.8233 169.465 67.117 170.657 65.2465C172.026 68.315 172.342 73.1354 170.401 74.6894ZM166.516 68.7961C168.291 67.0553 167.487 62.2903 165.811 59.3753C164.816 61.3566 164.406 65.123 165.958 67.8228L166.516 68.7961L165.688 68.0365C163.388 65.9238 159.598 65.4664 157.429 65.9792C159.912 68.2596 164.406 70.1159 166.516 68.7961ZM162.051 63.3205L161.152 62.6464C158.649 60.7758 154.832 60.6999 152.725 61.4263C155.427 63.4471 160.087 64.8445 162.051 63.3205L161.398 62.409C159.579 59.877 159.605 56.0884 160.394 54.0184C162.357 56.7515 163.642 61.412 162.051 63.3205ZM157.054 58.3166C158.442 56.2593 156.691 51.7523 154.462 49.2281C153.885 51.3661 154.243 55.1373 156.311 57.4747L157.054 58.3166C155.254 60.0305 150.475 59.1047 147.582 57.3671C149.605 56.4318 153.409 56.1264 156.09 57.7374L157.054 58.3166ZM151.573 53.8412C152.746 51.6557 150.546 47.3465 148.071 45.0597C147.715 47.2452 148.454 50.9578 150.749 53.0784L151.573 53.8412L150.556 53.3601C147.725 52.0229 143.969 52.7081 142.053 53.8412C145.109 55.2829 149.956 55.726 151.573 53.8412ZM145.667 49.9355C146.612 47.6456 143.987 43.5785 141.292 41.5481C141.159 43.7557 142.273 47.3797 144.769 49.2582L145.667 49.9355C144.251 51.9722 139.38 52.015 136.195 50.8866C137.988 49.5684 141.654 48.5144 144.607 49.5589L145.667 49.9355Z" fill="white"/>
</g>
<mask id="mask1_5889_6873" style="mask-type:luminance" maskUnits="userSpaceOnUse" x="134" y="69" width="60" height="113">
<path d="M135.833 95.6843L167.573 85.0181L176.772 89.0725L193.684 69.3906L190.447 112.217L177.783 156.542L145.331 181.872L134.25 175.539L138.999 161.291L135.833 95.6843Z" fill="white"/>
</mask>
<g mask="url(#mask1_5889_6873)">
<path fill-rule="evenodd" clip-rule="evenodd" d="M139.394 46.6329C138.19 48.8009 133.349 49.3279 130.064 48.524C131.714 47.0348 135.256 45.6169 138.299 46.3638L139.394 46.6329L138.432 46.0489C135.758 44.43 134.281 40.9358 134.19 38.7266C137.076 40.4753 140.102 44.2607 139.394 46.6329ZM110.572 177.733C111.604 177.733 112.438 178.56 112.438 179.584C112.438 180.605 111.602 181.434 110.57 181.436C109.539 181.437 108.705 180.608 108.705 179.586C108.706 178.564 109.54 177.733 110.572 177.733ZM135.247 44.7117L134.397 43.9774C132.034 41.9328 128.231 41.5894 126.079 42.1654C128.629 44.3714 133.177 46.0964 135.247 44.7117ZM86.1444 44.7323C88.2128 46.1154 92.7625 44.3873 95.3135 42.1796C93.1613 41.6052 89.3585 41.9502 86.9942 43.998L86.1444 44.7323ZM105.771 179.61C105.198 182.017 100.677 183.818 97.2932 183.917C98.4801 182.044 101.509 179.735 104.644 179.641L105.771 179.61C105.81 177.135 101.871 174.295 98.6162 173.381C99.3046 175.484 101.669 178.456 104.687 179.306L105.771 179.61ZM98.7333 178.681C99.0245 176.223 95.3942 173.004 92.2482 171.77C92.7182 173.93 94.7691 177.123 97.6857 178.268L98.7333 178.681L97.6081 178.6C94.4811 178.38 91.2338 180.374 89.8617 182.118C93.2388 182.357 97.9183 181.016 98.7333 178.681ZM91.8256 177.052C90.7764 179.296 85.9846 180.162 82.6502 179.584C84.1916 177.984 87.6241 176.327 90.7131 176.858L91.8256 177.052C92.3637 174.636 89.0784 171.069 86.0764 169.527C86.3232 171.725 88.0418 175.107 90.8239 176.536L91.8256 177.052ZM85.1205 174.742C85.9007 172.39 82.9952 168.514 80.1641 166.68C80.1878 168.893 81.552 172.428 84.1773 174.129L85.1205 174.742L84.0349 174.439C81.0155 173.599 77.4327 174.909 75.7362 176.346C78.993 177.252 83.8482 176.872 85.1205 174.742ZM78.6813 171.771C77.2 173.765 72.3322 173.658 69.183 172.433C71.0156 171.172 74.7139 170.228 77.6336 171.363L78.6813 171.771C79.6972 169.511 77.1985 165.364 74.5683 163.256C74.3673 165.459 75.3659 169.113 77.8046 171.069L78.6813 171.771ZM72.5791 168.174C73.8198 166.027 71.7546 161.653 69.3524 159.29C68.9282 161.461 69.5517 165.199 71.7783 167.386L72.5791 168.174L71.5774 167.665C68.7906 166.24 65.0147 166.81 63.0634 167.883C66.0702 169.418 70.9032 170.01 72.5791 168.174ZM66.8726 163.985C65.0194 165.644 60.2719 164.571 57.4344 162.745C59.4854 161.873 63.2977 161.683 65.9262 163.376L66.8726 163.985L66.1557 163.123C64.1617 160.721 63.9212 156.941 64.5637 154.824C66.7143 157.415 68.3237 161.972 66.8726 163.985ZM61.6218 159.249C59.6104 160.714 54.9958 159.173 52.3577 157.07C54.4846 156.408 58.2985 156.6 60.7419 158.548L61.6218 159.249C63.2692 157.389 62.1313 152.694 60.2545 149.901C59.4015 151.945 59.2575 155.731 60.9967 158.318L61.6218 159.249ZM56.8774 154.011C54.7283 155.266 50.2941 153.272 47.884 150.917C50.0678 150.47 53.8421 151.043 56.0751 153.226L56.8774 154.011C58.7068 152.325 58.05 147.54 56.4659 144.574C55.4088 146.522 54.8818 150.274 56.3488 153.022L56.8774 154.011ZM52.6901 148.323C50.4239 149.36 46.216 146.93 44.0575 144.348C46.2746 144.121 49.9713 145.069 51.9716 147.464L52.6901 148.323L52.2644 147.288C51.0838 144.405 51.9906 140.727 53.2376 138.891C54.5131 142.001 54.6793 146.829 52.6901 148.323ZM49.1009 142.248L48.7844 141.173C47.903 138.19 49.1753 134.617 50.6043 132.917C51.557 136.138 51.2326 140.959 49.1009 142.248L48.4727 141.317C46.7256 138.736 43.1443 137.426 40.9162 137.427C42.8009 140.213 46.7414 143.05 49.1009 142.248ZM46.148 135.84C43.7188 136.405 40.0869 133.189 38.4933 130.228C40.712 130.447 44.1413 132.11 45.6178 134.854L46.148 135.84C48.3983 134.772 49.2101 130.008 48.5914 126.709C46.9978 128.257 45.3678 131.683 45.9422 134.742L46.148 135.84ZM43.8596 129.174L43.7647 128.059C43.5036 124.96 45.4722 121.711 47.2162 120.33C47.4978 123.675 46.2065 128.337 43.8596 129.174L43.4308 128.138C42.2407 125.261 38.9997 123.264 36.8143 122.825C38.0977 125.93 41.3862 129.492 43.8596 129.174ZM42.2597 122.311L42.2787 121.192C42.3325 118.081 44.6224 115.047 46.4961 113.846C46.4376 117.203 44.681 121.711 42.2597 122.311L41.9385 121.238C41.0475 118.257 38.0233 115.944 35.8949 115.288C36.857 118.507 39.7673 122.381 42.2597 122.311ZM41.3656 115.321C38.8779 115.142 36.3775 110.997 35.7461 107.698C37.797 108.564 40.5696 111.165 41.1551 114.223L41.3656 115.321C43.8343 114.968 46.0403 110.657 46.4391 107.324C44.4531 108.331 41.8688 111.119 41.4985 114.208L41.3656 115.321ZM41.1852 108.279C38.7275 107.851 36.6608 103.477 36.3696 100.133C38.3208 101.198 40.8165 104.063 41.0871 107.165L41.1852 108.279C43.6761 108.173 46.3094 104.106 47.0437 100.828C44.9658 101.63 42.111 104.148 41.4289 107.187L41.1852 108.279ZM41.7185 101.254C39.3194 100.581 37.7052 96.0252 37.7559 92.667C39.59 93.9236 41.7802 97.0222 41.7359 100.133L41.7185 101.254C44.2078 101.398 47.2399 97.6124 48.3049 94.4252C46.1559 95.0155 43.0605 97.2374 42.073 100.19L41.7185 101.254ZM42.9639 94.3145L43.4245 93.2937C44.7047 90.4531 48.0106 88.5541 50.2071 88.179C48.8256 91.2459 45.4263 94.7069 42.9639 94.3145L43.0937 93.2051C43.4545 90.1144 41.5903 86.8101 39.8907 85.3779C39.503 88.7123 40.6456 93.4077 42.9639 94.3145ZM44.9073 87.5381C42.6917 86.4034 42.0318 81.6162 42.7582 78.3357C44.3012 79.9324 45.822 83.4061 45.1494 86.4445L44.9073 87.5381C47.3159 88.1727 51.0506 85.0677 52.7375 82.1559C50.5141 82.3078 47.0326 83.8682 45.4706 86.5664L44.9073 87.5381ZM47.5279 80.9864C45.439 79.6349 45.2681 74.8066 46.3236 71.6163C47.6972 73.357 48.8572 76.9668 47.8792 79.9229L47.5279 80.9864C49.8605 81.86 53.8896 79.1428 55.8646 76.4145C53.6364 76.3448 50.0156 77.5491 48.1862 80.0764L47.5279 80.9864ZM50.8005 74.7307C53.0319 75.8337 57.3158 73.5327 59.5566 71.0149C57.3474 70.7205 53.6222 71.5577 51.5459 73.8919L50.8005 74.7307L51.2579 73.7068C52.5302 70.863 51.7421 67.1567 50.5521 65.2861C49.1801 68.3562 48.8604 73.1782 50.8005 74.7307ZM54.6888 68.8342C52.9164 67.095 53.725 62.33 55.4025 59.4118C56.3963 61.3915 56.8046 65.158 55.249 67.8593L54.6888 68.8342L55.518 68.0746C57.819 65.9603 61.6091 65.4998 63.7772 66.0109C61.2942 68.2929 56.7983 70.1524 54.6888 68.8342ZM59.1578 63.3539L60.0583 62.6781C62.5634 60.8044 66.3804 60.7269 68.4851 61.4517C65.7838 63.4757 61.1217 64.8778 59.1578 63.3539L59.813 62.4408C61.6329 59.9071 61.6107 56.1185 60.8226 54.0502C58.8587 56.7864 57.5705 61.4469 59.1578 63.3539ZM64.1601 58.3483C62.7738 56.2926 64.5289 51.784 66.7602 49.2583C67.3331 51.3947 66.9723 55.1675 64.9039 57.5064L64.1601 58.3483C65.9594 60.0606 70.7402 59.1317 73.6331 57.3909C71.6122 56.4572 67.8062 56.1549 65.1239 57.7691L64.1601 58.3483ZM69.6451 53.8666C68.4741 51.6827 70.6769 47.3719 73.1536 45.0836C73.508 47.2675 72.7643 50.9832 70.4696 53.1054L69.6451 53.8666L70.6627 53.3855C73.4954 52.0467 77.2491 52.7272 79.1655 53.8587C76.1081 55.3035 71.2593 55.7498 69.6451 53.8666ZM75.5542 49.9562L76.6161 49.5795C79.5691 48.5319 83.2357 49.5827 85.0271 50.8994C81.84 52.0309 76.9706 51.9913 75.5542 49.9562L76.4515 49.2789C78.9503 47.3972 80.066 43.7732 79.9362 41.5656C77.2396 43.5976 74.611 47.6678 75.5542 49.9562ZM81.8305 46.6566C81.1247 44.2844 84.152 40.4974 87.0417 38.7471C86.9467 40.9548 85.4687 44.4506 82.7926 46.0727L81.8305 46.6566L82.9256 46.3876C85.9703 45.6375 89.5104 47.0538 91.1594 48.5414C87.8725 49.3485 83.0332 48.8231 81.8305 46.6566ZM115.34 179.605C115.911 182.01 120.431 183.808 123.815 183.906C122.629 182.032 119.602 179.727 116.467 179.636L115.34 179.605C115.302 177.13 119.244 174.288 122.499 173.37C121.811 175.473 119.442 178.446 116.424 179.299L115.34 179.605ZM122.379 178.67C122.09 176.212 125.723 172.99 128.871 171.752C128.399 173.914 126.343 177.108 123.428 178.255L122.379 178.67L123.504 178.587C126.631 178.364 129.879 180.357 131.248 182.099C127.871 182.343 123.191 181.007 122.379 178.67ZM129.287 177.036L130.289 176.519C133.074 175.087 134.792 171.705 135.044 169.505C132.039 171.051 128.75 174.62 129.287 177.036L130.398 176.842C133.487 176.308 136.919 177.964 138.459 179.561C135.125 180.141 130.333 179.28 129.287 177.036ZM135.995 174.721C135.217 172.371 138.125 168.492 140.96 166.655C140.934 168.867 139.565 172.404 136.94 174.107L135.995 174.721L137.081 174.417C140.1 173.575 143.683 174.881 145.378 176.318C142.119 177.225 137.264 176.85 135.995 174.721ZM142.436 171.746C143.916 173.738 148.783 173.628 151.933 172.4C150.102 171.14 146.403 170.2 143.485 171.336L142.436 171.746C141.422 169.486 143.924 165.338 146.557 163.227C146.755 165.43 145.753 169.086 143.314 171.043L142.436 171.746ZM148.541 168.144C147.304 165.998 149.372 161.621 151.776 159.258C152.199 161.429 151.572 165.167 149.344 167.356L148.541 168.144L149.545 167.633C152.333 166.207 156.107 166.774 158.059 167.845C155.049 169.382 150.216 169.977 148.541 168.144ZM154.251 163.95C156.103 165.607 160.852 164.531 163.691 162.702C161.641 161.831 157.829 161.645 155.197 163.341L154.251 163.95L154.969 163.088C156.963 160.684 157.209 156.905 156.568 154.788C154.416 157.378 152.803 161.937 154.251 163.95ZM159.508 159.208L160.133 158.277C161.874 155.688 161.733 151.903 160.882 149.858C159.003 152.654 157.861 157.351 159.508 159.208L160.386 158.507C162.831 156.557 166.644 156.361 168.772 157.021C166.134 159.127 161.518 160.671 159.508 159.208ZM164.256 153.966C166.405 155.22 170.841 153.221 173.254 150.866C171.07 150.421 167.296 150.997 165.061 153.181L164.256 153.966C162.429 152.282 163.089 147.495 164.675 144.528C165.731 146.475 166.256 150.227 164.786 152.976L164.256 153.966ZM168.448 148.276C170.712 149.309 174.923 146.878 177.085 144.292C174.868 144.068 171.171 145.019 169.169 147.415L168.448 148.276L168.873 147.241C170.057 144.357 169.155 140.678 167.907 138.844C166.629 141.955 166.459 146.783 168.448 148.276ZM172.042 142.197C174.401 142.998 178.345 140.159 180.233 137.37C178.003 137.369 174.422 138.682 172.672 141.266L172.042 142.197C169.912 140.912 169.592 136.09 170.546 132.866C171.974 134.566 173.244 138.138 172.36 141.121L172.042 142.197ZM174.999 135.788C177.429 136.351 181.064 133.132 182.659 130.17C180.442 130.39 177.009 132.056 175.531 134.802L174.999 135.788C172.751 134.723 171.942 129.959 172.565 126.658C174.159 128.204 175.786 131.63 175.208 134.69L174.999 135.788ZM177.294 129.121C179.767 129.436 183.058 125.87 184.344 122.765C182.159 123.205 178.915 125.205 177.723 128.082L177.294 129.121C174.947 128.285 173.659 123.624 173.945 120.277C175.686 121.657 177.653 124.905 177.389 128.003L177.294 129.121ZM178.9 122.254C181.393 122.322 184.306 118.446 185.27 115.226C183.14 115.884 180.116 118.198 179.222 121.181L178.9 122.254C176.481 121.657 174.727 117.15 174.67 113.794C176.544 114.992 178.831 118.025 178.881 121.135L178.9 122.254ZM179.801 115.264C182.288 115.084 184.792 110.936 185.427 107.638C183.376 108.505 180.6 111.108 180.011 114.166L179.801 115.264C177.332 114.913 175.129 110.603 174.734 107.271C176.718 108.276 179.301 111.062 179.668 114.151L179.801 115.264ZM179.987 108.222L179.742 107.13C179.063 104.093 176.21 101.577 174.134 100.776C174.866 104.052 177.497 108.117 179.987 108.222L180.086 107.108C180.359 104.006 182.857 101.14 184.809 100.073C184.515 103.417 182.444 107.793 179.987 108.222ZM179.459 101.197C181.86 100.523 183.477 95.965 183.431 92.6069C181.595 93.8634 179.402 96.9668 179.445 100.076L179.459 101.197C176.97 101.342 173.941 97.5602 172.879 94.3746C175.028 94.9633 178.122 97.182 179.104 100.135L179.459 101.197ZM178.218 94.2591C180.538 93.3491 181.685 88.6538 181.299 85.3194C179.6 86.7531 177.732 90.059 178.09 93.1497L178.218 94.2591C175.757 94.6547 172.36 91.1937 170.978 88.1299C173.176 88.5034 176.481 90.3993 177.758 93.2383L178.218 94.2591ZM176.283 87.4843C178.498 86.348 179.163 81.5609 178.44 78.2803C176.895 79.8786 175.373 83.3539 176.042 86.3907L176.283 87.4843C173.873 88.1204 170.141 85.0187 168.457 82.1084C170.681 82.2572 174.161 83.816 175.721 86.5126L176.283 87.4843ZM173.667 80.9358L173.01 80.0258C171.182 77.5001 167.563 76.2974 165.335 76.3702C167.307 79.0969 171.334 81.8109 173.667 80.9358L173.317 79.8739C172.342 76.9177 173.505 73.308 174.881 71.5656C175.931 74.7544 175.757 79.5827 173.667 80.9358ZM170.401 74.6816C168.168 75.7862 163.885 73.4884 161.648 70.9722C163.857 70.6762 167.581 71.5102 169.654 73.8429L170.401 74.6816L169.945 73.6593C168.674 70.8155 169.465 67.1092 170.657 65.2387C172.026 68.3072 172.342 73.1276 170.401 74.6816ZM166.516 68.7883C168.291 67.0475 167.487 62.2825 165.811 59.3675C164.816 61.3488 164.406 65.1152 165.958 67.815L166.516 68.7883L165.688 68.0287C163.388 65.916 159.598 65.4586 157.429 65.9714C159.912 68.2518 164.406 70.1081 166.516 68.7883ZM162.051 63.3127L161.152 62.6386C158.649 60.768 154.832 60.6921 152.725 61.4184C155.427 63.4393 160.087 64.8367 162.051 63.3127L161.398 62.4012C159.579 59.8691 159.605 56.0806 160.394 54.0106C162.357 56.7437 163.642 61.4042 162.051 63.3127ZM157.054 58.3088C158.442 56.2515 156.691 51.7444 154.462 49.2203C153.885 51.3583 154.243 55.1295 156.311 57.4669L157.054 58.3088C155.254 60.0226 150.475 59.0969 147.582 57.3592C149.605 56.424 153.409 56.1185 156.09 57.7296L157.054 58.3088ZM151.573 53.8334C152.746 51.6479 150.546 47.3387 148.071 45.0519C147.715 47.2374 148.454 50.95 150.749 53.0706L151.573 53.8334L150.556 53.3523C147.725 52.0151 143.969 52.7003 142.053 53.8334C145.109 55.2751 149.956 55.7182 151.573 53.8334ZM145.667 49.9277C146.612 47.6378 143.987 43.5707 141.292 41.5403C141.159 43.7479 142.273 47.3719 144.769 49.2504L145.667 49.9277C144.251 51.9644 139.38 52.0071 136.195 50.8788C137.988 49.5606 141.654 48.5066 144.607 49.5511L145.667 49.9277Z" fill="white"/>
</g>
<path fill-rule="evenodd" clip-rule="evenodd" d="M177.265 89.8282L177.316 88.7062C177.458 85.5839 175.372 82.3872 173.587 81.0547C173.434 84.4223 174.898 89.0607 177.265 89.8282Z" fill="white"/>
<path fill-rule="evenodd" clip-rule="evenodd" d="M44.0068 89.8282L43.9561 88.7062C43.8137 85.5839 45.8995 82.3872 47.6845 81.0547C47.838 84.4223 46.3742 89.0607 44.0068 89.8282Z" fill="white"/>
<path d="M129.749 178.647L129.925 180.568L122.181 181.279L121.894 179.77L125.579 172.421L127.544 172.24L125.729 175.931L124.237 179.153L129.749 178.647ZM128.061 172.193L129.048 182.951L126.558 183.18L125.571 172.421L128.061 172.193Z" fill="white"/>
</svg>
