<svg width="501" height="165" viewBox="0 0 501 165" fill="none" xmlns="http://www.w3.org/2000/svg">
<path d="M207.029 72.5986L208.516 74.0792C208.033 73.5743 207.54 73.0751 207.029 72.5986Z" fill="white"/>
<path d="M89.4856 61.3089V72.8413C80.001 63.8842 67.1866 58.4102 53.0277 58.4102C23.6152 58.4102 0 82.0253 0 111.438C0 140.85 23.6152 164.465 53.0277 164.465C67.1866 164.465 80.001 158.991 89.4856 150.034V161.981H106.055V61.3089H89.4856ZM53.0277 147.896C32.7311 147.896 16.5754 131.74 16.5754 111.438C16.5754 91.1355 32.7311 74.9799 53.0277 74.9799C73.3243 74.9799 89.4856 91.5553 89.4856 111.438C89.4856 131.32 73.33 147.896 53.0277 147.896Z" fill="white"/>
<path d="M365.539 162.809H349.588V-0.000976562H365.539V162.809Z" fill="white"/>
<path d="M500.06 111.024C500.06 140.436 476.451 164.051 447.032 164.051C432.879 164.051 420.059 158.577 410.58 149.62C400.358 139.977 394.005 126.277 394.005 111.024V66.6977H377.475V50.1223H394.005V-0.000976562H410.58V50.1223H446.918V66.6977H410.58V111.024C410.58 131.32 426.736 147.481 447.032 147.481C467.329 147.481 483.49 131.326 483.49 111.024H500.06Z" fill="white"/>
<path d="M209.123 74.6728L209.106 74.6898C208.919 74.4856 208.726 74.2757 208.521 74.0771L209.123 74.6728Z" fill="white"/>
<path d="M337.294 118.136C337.611 115.811 337.77 113.44 337.77 111.029C337.77 81.7409 314.025 58.001 284.743 58.001C255.46 58.001 231.715 81.7409 231.715 111.029C231.715 140.316 255.455 164.056 284.743 164.056C308 164.056 327.764 149.075 334.911 128.239H316.884C310.74 139.692 298.652 147.481 284.743 147.481C267.038 147.481 252.284 134.865 248.982 118.136H337.294ZM248.982 103.921C252.284 87.1866 267.038 74.5707 284.743 74.5707C302.447 74.5707 317.201 87.1866 320.503 103.921H248.982Z" fill="white"/>
<path d="M219.528 162.809H203.576V-0.000976562H219.528V162.809Z" fill="white"/>
<path fill-rule="evenodd" clip-rule="evenodd" d="M166.672 148.583C187.054 148.583 203.576 132.061 203.576 111.679C203.576 91.2969 187.054 74.7741 166.672 74.7741C146.29 74.7741 129.767 91.2969 129.767 111.679C129.767 132.061 146.29 148.583 166.672 148.583ZM166.672 164.503C195.846 164.503 219.496 140.853 219.496 111.679C219.496 82.5047 195.846 58.8545 166.672 58.8545C137.498 58.8545 113.848 82.5047 113.848 111.679C113.848 140.853 137.498 164.503 166.672 164.503Z" fill="white"/>
</svg>
